<?xml version="1.0" standalone="no"?>
<!DOCTYPE svg PUBLIC "-//W3C//DTD SVG 1.1//EN" "http://www.w3.org/Graphics/SVG/1.1/DTD/svg11.dtd" >
<svg>
<metadata>
Created by FontForge 20090622 at Thu Oct 15 20:32:53 2015
 By deploy user
&#194;&#169; 2011 Sergiy S. Tkachenko / 4th february
&#194;&#169; 2011 Azoft.com
http://creativecommons.org/licenses/by-nc-nd/3.0
http://creativecommons.org/licenses/by-nc-nd/3.0/deed.ru
</metadata>
<defs>
<font id="AzoftSans-Bold" horiz-adv-x="758" >
  <font-face 
    font-family="Azoft Sans"
    font-weight="700"
    font-stretch="normal"
    units-per-em="1000"
    panose-1="2 0 0 0 0 0 0 0 0 0"
    ascent="750"
    descent="-250"
    x-height="642"
    cap-height="642"
    bbox="-34 -330 1229 1014"
    underline-thickness="50"
    underline-position="-50"
    unicode-range="U+0020-U+25FF"
  />
<missing-glyph horiz-adv-x="500" 
 />
    <glyph glyph-name=".notdef" horiz-adv-x="500" 
 />
    <glyph glyph-name=".null" horiz-adv-x="0" 
 />
    <glyph glyph-name="nonmarkingreturn" horiz-adv-x="500" 
 />
    <glyph glyph-name="space" unicode=" " horiz-adv-x="500" 
 />
    <glyph glyph-name="space" unicode="&#xa0;" horiz-adv-x="500" 
 />
    <glyph glyph-name="numbersign" unicode="#" horiz-adv-x="549" 
d="M288 -11l42 194h-171l-41 -194h-52l42 194h-84v48h94l40 187h-134v48h144l20.5 97t21.5 98h50l-43 -195h173l20.5 97t21.5 98h50l-42 -195h85v-48h-94l-39 -187h133v-48h-144l-41 -194h-52zM381 418h-172l-41 -187h172z" />
    <glyph glyph-name="dollar" unicode="$" horiz-adv-x="624" 
d="M522 512q-13 4 -33 9.5t-44 10.5t-51.5 9t-54.5 5v-165q46 -10 89 -22.5t76.5 -34t54 -57t21.5 -90.5q0 -56 -17.5 -92t-49.5 -57t-76 -29.5t-98 -9.5v-96h-55v97q-32 2 -66 6t-66 10.5t-59.5 14.5t-46.5 17l15 54.5t16 50.5q25 -11 79.5 -25.5t127.5 -19.5v170
q-60 13 -101.5 27.5t-68 37.5t-38.5 57.5t-12 88.5q0 42 17.5 74t47.5 53.5t70 33t85 13.5v98h55v-98q31 -1 61.5 -4t59 -8t53 -11.5t42.5 -14.5zM372 249q-19 3 -33 7v-159q27 0 48 1.5t35.5 9t22 23t7.5 42.5q0 21 -4 34t-13.5 20.5t-25 12t-37.5 9.5zM284 393v153
q-45 -4 -68 -19t-23 -49q0 -23 1.5 -35t8 -19.5t20 -12.5t36.5 -12z" />
    <glyph glyph-name="percent" unicode="%" horiz-adv-x="814" 
d="M162 -24l373 685h116l-371 -685h-118zM180 328q-27 0 -50.5 6t-41 23.5t-27.5 50.5t-10 87t10 86.5t27.5 50.5t41 23.5t50.5 5.5t50.5 -5.5t41 -23.5t27.5 -50.5t10 -86.5t-10 -87t-27.5 -50.5t-41 -23.5t-50.5 -6zM180 376q11 0 20.5 2t16.5 13t11 35.5t4 68.5t-4 68
t-11 35t-16.5 13t-20.5 2t-20.5 -2t-16.5 -13t-11 -35t-4 -68t4 -68.5t11 -35.5t16.5 -13t20.5 -2zM632 -24q-27 0 -50.5 6t-41 23.5t-27.5 50.5t-10 87t10 86.5t27.5 50.5t41 23.5t50.5 5.5t50.5 -5.5t41 -23.5t27.5 -50.5t10 -86.5t-10 -87t-27.5 -50.5t-41 -23.5
t-50.5 -6zM632 24q11 0 20.5 2t16.5 13t11 35.5t4 68.5t-4 68t-11 35t-16.5 13t-20.5 2t-20.5 -2t-16.5 -13t-11 -35t-4 -68t4 -68.5t11 -35.5t16.5 -13t20.5 -2z" />
    <glyph glyph-name="ampersand" unicode="&#x26;" horiz-adv-x="688" 
d="M482 57q-38 -33 -80.5 -50.5t-93.5 -17.5q-46 0 -89.5 4t-77.5 22t-54.5 56t-20.5 106q0 37 14 65t38.5 51t58 42.5t71.5 39.5l-43 49.5t-29 39t-16.5 32t-5.5 28.5q0 29 8 53t30 41.5t60 27t97 9.5q51 0 84.5 -9.5t53 -26t27 -39t7.5 -49.5q0 -34 -10 -59t-29 -45
t-46 -38.5t-61 -38.5l112 -124q14 26 23 50.5t15 49.5q26 -10 46 -22t45 -23q-11 -38 -27.5 -74t-34.5 -64q49 -62 107 -103l-43.5 -26.5t-43.5 -25.5q-17 11 -39.5 32.5l-44.5 44.5zM331 409l39.5 27t25 22.5t13.5 25t4 34.5q0 23 -13 36t-56 13q-25 0 -40.5 -3t-24.5 -8.5
t-12.5 -13.5t-3.5 -19q0 -16 1.5 -31.5t23.5 -35.5zM290 306q-22 -18 -39 -30t-28.5 -24t-17.5 -28t-6 -42q0 -38 8.5 -56.5t23.5 -26t35 -7t43 0.5q29 0 58.5 15.5t49.5 38.5z" />
    <glyph glyph-name="quotesingle" unicode="'" horiz-adv-x="192" 
d="M76 433l-20 117v100h77v-100l-9.5 -59t-9.5 -58h-38z" />
    <glyph glyph-name="parenleft" unicode="(" horiz-adv-x="236" 
d="M183 -197l-65.5 76.5t-52.5 83.5t-34.5 111t-12.5 158t12.5 158t34.5 111t52.5 83.5l65.5 76.5l26 -20q-14 -36 -25.5 -62t-19.5 -50t-13.5 -49.5t-8.5 -59t-4.5 -79t-1.5 -109.5t1.5 -109.5t4.5 -79t8.5 -59t13.5 -49.5t19 -50.5l26 -61.5z" />
    <glyph glyph-name="parenright" unicode=")" horiz-adv-x="236" 
d="M27 -177l25.5 61.5t19.5 50.5t13.5 49.5t8.5 59t4.5 79t1.5 109.5t-1.5 109.5t-4.5 79t-8.5 59t-13.5 49.5t-19.5 50t-25.5 62l26 20l65.5 -76.5t52.5 -83.5t34.5 -111t12.5 -158t-12.5 -158t-34.5 -111t-52.5 -83.5l-65.5 -76.5z" />
    <glyph glyph-name="asterisk" unicode="*" horiz-adv-x="347" 
d="M234 381q-11 15 -25.5 37l-36.5 58q-29 -52 -62 -93l-53 35q20 26 40 47t37 36l-55.5 11.5t-57.5 14.5l22 61l62.5 -24t43.5 -19q-5 38 -6.5 67t-2.5 43h66q-1 -26 -3.5 -52t-7.5 -57q26 12 48 21t45 17l16 5l21 -62q-30 -10 -58.5 -15.5t-57.5 -10.5q20 -17 38 -36.5
l41 -45.5z" />
    <glyph glyph-name="plus" unicode="+" horiz-adv-x="443" 
d="M271 273v-165h-101v165h-169v96h169v162h101v-162h171v-96h-171z" />
    <glyph glyph-name="comma" unicode="," horiz-adv-x="185" 
d="M42 -94q26 11 37.5 33t14.5 61h-50v123h117v-133q0 -45 -21 -74.5t-65 -46.5z" />
    <glyph glyph-name="hyphen" unicode="-" horiz-adv-x="405" 
d="M79 181v103h244v-103h-244z" />
    <glyph glyph-name="period" unicode="." horiz-adv-x="245" 
d="M59 0v123h117v-123h-117z" />
    <glyph glyph-name="slash" unicode="/" horiz-adv-x="270" 
d="M0 -11l198 672h72l-196 -672h-74z" />
    <glyph glyph-name="zero" unicode="0" horiz-adv-x="629" 
d="M314 95q25 0 48 3.5t39.5 25t26.5 67.5t10 131t-10 131t-26.5 67.5t-39.5 25t-48 3.5q-26 0 -48.5 -3.5t-39 -25t-26 -67.5t-9.5 -131t9.5 -131t26 -67.5t39 -25t48.5 -3.5zM314 -11q-53 0 -100 11.5t-82 47t-55 101t-20 173.5t20 173.5t55 101t82 47t100 11.5
q54 0 101 -11.5t82 -47t55 -101t20 -173.5t-20 -173.5t-55 -101t-82 -47t-101 -11.5z" />
    <glyph glyph-name="one" unicode="1" horiz-adv-x="420" 
d="M154 107v419l-92 -24l-25 94l249 66v-555h126v-107h-381v107h123z" />
    <glyph glyph-name="two" unicode="2" horiz-adv-x="540" 
d="M53 0v167q0 45 11 76t29.5 52.5t43.5 35t53.5 23t59 16.5t60.5 17q17 7 29 12.5t19 14t10 22t3 37.5q0 42 -22 58t-64 16q-24 0 -52 -3.5t-54 -9t-47.5 -11.5t-32.5 -11l-26 103q16 10 43 17t58 12t63 7.5t60 2.5q39 0 76 -6t66.5 -25t47.5 -54.5t18 -94.5
q0 -63 -14 -100t-44 -60.5t-78 -38t-115 -32.5q-17 -5 -29 -10t-20.5 -13.5t-12.5 -21.5t-4 -35v-55h317v-108h-452z" />
    <glyph glyph-name="three" unicode="3" horiz-adv-x="546" 
d="M60 131q11 -5 32.5 -11t47 -11.5t53.5 -9t52 -3.5t43 1.5t32 8t20 19.5t7 36q0 39 -6.5 61t-18.5 32t-29 12.5t-39 2.5h-133v107h133q22 0 39 3t28.5 13.5t17.5 31.5t6 57q0 41 -25.5 53t-74.5 12q-24 0 -52 -3.5t-53.5 -9t-47 -11.5t-32.5 -11l-27 103q16 10 43 17
t58 12t63.5 7.5t60.5 2.5q57 0 99 -7.5t69.5 -26t41 -51.5t13.5 -84q0 -38 -7 -64t-19 -44t-29 -31t-38 -23q21 -10 38 -22.5t29.5 -30.5t19.5 -44.5t7 -63.5q0 -51 -13.5 -84.5t-41.5 -53t-70 -27t-99 -7.5q-28 0 -60.5 2.5t-63.5 7.5t-58 12t-43 17z" />
    <glyph glyph-name="four" unicode="4" horiz-adv-x="526" 
d="M169 240h144v121h132v-121h64v-108h-64v-132h-132v132h-308v67l256 443h140z" />
    <glyph glyph-name="five" unicode="5" horiz-adv-x="525" 
d="M214 404q24 3 54 3q115 0 169.5 -52.5t54.5 -155.5q0 -113 -53 -161.5t-167 -48.5q-28 0 -60.5 2.5t-63.5 7.5t-58 12t-43 17l27 103q11 -5 32.5 -11t47 -11.5t53.5 -9t52 -3.5t42.5 4t30.5 15t18.5 31.5t6.5 52.5t-6 52t-17 31t-27.5 14.5t-38.5 3.5q-41 0 -70.5 -4
t-43.5 -19l-75 10v355h383v-108h-248v-130z" />
    <glyph glyph-name="six" unicode="6" horiz-adv-x="574" 
d="M483 513q-11 5 -32.5 11t-47 11.5t-53.5 9t-52 3.5t-43 -3t-32.5 -19.5t-21.5 -52.5t-9 -102q20 22 45.5 29.5t60.5 7.5q53 0 95 -8.5t71.5 -32.5t45 -67.5t15.5 -113.5q0 -56 -14 -94t-42.5 -61t-71 -32.5t-99.5 -9.5q-54 0 -98 11.5t-75.5 47t-49 101t-17.5 173.5
t17.5 173.5t49 101t75.5 47t98 11.5q28 0 58.5 -2.5t59 -7.5t53 -12t41.5 -17zM197 202q4 -40 13 -61.5t21.5 -31.5t29 -11.5t37.5 -1.5q22 0 39 1.5t28.5 10t17.5 26.5t6 52q0 37 -7 58.5t-19.5 31.5t-29 12.5t-35.5 2.5t-36.5 -2t-31 -10.5t-22.5 -26.5t-11 -50z" />
    <glyph glyph-name="seven" unicode="7" horiz-adv-x="455" 
d="M103 0l213 534h-307v108h434v-108l-212 -534h-128z" />
    <glyph glyph-name="eight" unicode="8" horiz-adv-x="579" 
d="M276 -11q-54 1 -93.5 9t-66 27.5t-39 52.5t-12.5 83q0 37 5 63.5t14.5 44.5t23 30.5t29.5 22.5q-16 10 -29 23t-22.5 31t-14.5 44t-5 64q0 51 13 84t40.5 51.5t69 26t98.5 7.5h17q54 -1 93.5 -9t65.5 -27t38.5 -51.5t12.5 -81.5q0 -38 -5 -64t-14.5 -44t-22.5 -31
t-29 -23q16 -10 29.5 -22.5t23 -30.5t14.5 -44.5t5 -63.5q0 -51 -13.5 -84.5t-40.5 -53t-69 -27t-99 -7.5h-17zM300 96q28 0 44 4t24 12.5t10 20.5t2 28q0 37 -5 58.5t-15 32t-24.5 13.5t-32.5 4h-26q-19 -1 -33.5 -4t-24 -13.5t-14.5 -32t-5 -58.5q0 -22 5 -34.5
t15.5 -19.5t25 -9t34.5 -2h20zM303 376q18 1 32 4.5t23.5 14.5t14.5 31t5 55q0 21 -5.5 33.5t-16 19t-26 9t-35.5 3.5q-23 0 -40 -2.5t-29 -9.5t-18 -19.5t-6 -33.5q0 -35 5 -55t14.5 -31t23.5 -14.5t32 -4.5h26z" />
    <glyph glyph-name="nine" unicode="9" horiz-adv-x="573" 
d="M100 131q11 -5 32.5 -11t47 -11.5t53.5 -9t52 -3.5t42.5 2.5t32 19t21 52t9.5 100.5q-19 -20 -44.5 -27t-60.5 -7q-57 0 -99.5 8.5t-71 32.5t-42.5 67.5t-14 113.5q0 56 14 94t42.5 61t71 32.5t99.5 9.5q54 0 98 -11.5t75.5 -47t49 -101t17.5 -173.5t-17.5 -173.5
t-49 -101t-75.5 -47t-98 -11.5q-28 0 -58.5 2.5t-59 7.5t-53.5 12t-41 17zM385 441q-4 40 -12.5 62t-21.5 32t-29.5 11.5t-36.5 1.5q-22 0 -39 -1.5t-28.5 -10t-17.5 -26.5t-6 -52q0 -41 6 -64.5t17.5 -34.5t28.5 -13.5t39 -2.5q21 0 38.5 2t30.5 11.5t21 29.5t10 55z" />
    <glyph glyph-name="colon" unicode=":" horiz-adv-x="235" 
d="M56 342v124h117v-124h-117zM56 0v123h117v-123h-117z" />
    <glyph glyph-name="semicolon" unicode=";" horiz-adv-x="185" 
d="M44 342v124h117v-124h-117zM42 -94q26 11 37.5 33t14.5 61h-50v123h117v-133q0 -45 -21 -74.5t-65 -46.5z" />
    <glyph glyph-name="less" unicode="&#x3c;" horiz-adv-x="522" 
d="M0 290v63l443 178v-58l-386 -151l94 -37.5l98.5 -39l99 -39l94.5 -37.5v-61z" />
    <glyph glyph-name="equal" unicode="=" horiz-adv-x="599" 
d="M79 375v96h441v-96h-441zM79 172v95h441v-95h-441z" />
    <glyph glyph-name="greater" unicode="&#x3e;" horiz-adv-x="522" 
d="M79 108v61l384 153l-384 151v58l443 -179v-62z" />
    <glyph glyph-name="question" unicode="?" horiz-adv-x="511" 
d="M110 186v14q0 51 16.5 85t44 56t64 35.5t77.5 22.5q23 7 36.5 12t20 12.5t8 19.5t1.5 35q0 38 -30.5 53.5t-90.5 15.5q-30 0 -61 -3.5t-59 -9t-51 -11.5t-37 -11l-33 103q21 10 50.5 17t63.5 12t70.5 7.5t71.5 2.5q48 0 90.5 -11t75 -32.5t51 -54.5t18.5 -77
q0 -48 -10 -81t-31.5 -54.5t-56 -35.5t-82.5 -24q-23 -7 -38 -12.5t-24.5 -14t-13.5 -23t-4 -38.5v-10h-137zM110 0v123h137v-123h-137z" />
    <glyph glyph-name="at" unicode="@" horiz-adv-x="994" 
d="M880 -58q-55 -60 -150.5 -99.5t-229.5 -39.5q-112 0 -192 29.5t-131 84t-74.5 131.5t-23.5 171q0 103 27 185t80 139.5t131.5 88t181.5 30.5q79 0 151.5 -20.5t128 -67t88 -123.5t32.5 -189q0 -39 -5.5 -83t-22.5 -81.5t-47.5 -62t-81.5 -24.5q-40 0 -58.5 18t-25.5 60
q-28 -42 -76 -63.5t-123 -21.5q-42 0 -78 7.5t-62 26t-41 49t-15 76.5t15 76.5t42.5 48.5t65.5 25.5t84 7.5h174q-2 58 -11.5 91.5t-28.5 50.5t-49 22t-73 5q-11 0 -25.5 -0.5t-34 -3.5t-44.5 -9t-58 -17l-26 42q39 18 85.5 26t105.5 8q57 0 98.5 -9t68 -35.5t39.5 -73.5
t13 -123v-7.5v-17v-36v-64.5q0 -35 3 -57.5t10 -35.5t16.5 -18t23.5 -5q36 0 55 25t27.5 63.5t9.5 85t0 90.5q-2 73 -33 128.5t-81.5 93.5t-116 57.5t-135.5 19.5q-87 0 -153.5 -29t-111 -81t-67.5 -125t-23 -161q0 -188 100 -279.5t280 -91.5q64 0 117.5 10.5t96.5 29.5
t75.5 43.5t54.5 53.5zM470 274q-33 0 -61 -3.5t-48.5 -15t-31.5 -33.5t-11 -59t11 -59t29.5 -34t44 -16t54.5 -4q62 0 99.5 13t57 40.5t25.5 70t6 100.5h-175z" />
    <glyph glyph-name="A" unicode="A" horiz-adv-x="657" 
d="M401 642l227 -642h-144l-56 181h-201l-55 -181h-144l227 642h146zM256 274h144l-51 167l-18 101h-6l-18 -101z" />
    <glyph glyph-name="B" unicode="B" horiz-adv-x="675" 
d="M79 0v642h275q71 0 119 -6.5t76.5 -24t40.5 -49.5t12 -83q0 -38 -5 -63t-15.5 -42.5t-26 -29.5t-35.5 -22q20 -10 36.5 -21.5t28 -29t17.5 -43t6 -62.5q0 -51 -12.5 -83.5t-41.5 -50.5t-77 -25t-119 -7h-279zM360 107q31 0 53 1t36 6t20 17t6 35q0 39 -5.5 60t-18 30.5
t-32 11t-47.5 1.5h-181v-162h169zM372 376q27 0 46 2.5t30 12t16 29.5t5 56q0 21 -6 32.5t-19 17.5t-35 7.5t-53 1.5h-165v-159h181z" />
    <glyph glyph-name="C" unicode="C" horiz-adv-x="650" 
d="M614 31q-42 -20 -103.5 -32t-131.5 -12q-74 0 -133.5 12.5t-101.5 48.5t-65 101.5t-23 171.5t23 171.5t65 101.5t101.5 48.5t133.5 12.5q140 0 225 -40l-33 -103q-29 9 -79 22.5t-111 13.5q-41 0 -76 -6t-60.5 -29t-40 -68.5t-14.5 -123.5q0 -79 14.5 -124.5t40 -68
t60.5 -28.5t76 -6q30 0 60 4.5t56 10.5t48 13t36 12z" />
    <glyph glyph-name="D" unicode="D" horiz-adv-x="689" 
d="M79 0v642h230q73 0 133 -9.5t102 -42.5t65 -96t23 -169q0 -107 -20.5 -171.5t-60.5 -98.5t-98 -44.5t-134 -10.5h-240zM309 108q53 0 89.5 6.5t58.5 29t31.5 66t9.5 116.5q0 76 -14.5 118.5t-40 62.5t-60.5 24t-76 4h-96v-427h98z" />
    <glyph glyph-name="E" unicode="E" horiz-adv-x="566" 
d="M79 0v642h480l-10 -107h-338v-149h263v-107h-263v-171h348l-10 -108h-470z" />
    <glyph glyph-name="F" unicode="F" horiz-adv-x="526" 
d="M200 278v-278h-121v642h447l-10 -107h-316v-149h275v-108h-275z" />
    <glyph glyph-name="G" unicode="G" horiz-adv-x="672" 
d="M500 279h-145l10 107h263v-341q-20 -12 -49.5 -22t-64 -17.5t-72 -11.5t-73.5 -4q-76 0 -134.5 12t-98 48t-60 102t-20.5 173q0 106 23 171t65 100t101.5 47t133.5 12q70 0 129 -11t101 -31l-33 -103q-14 5 -35 11.5t-46.5 12.5t-54.5 10t-59 4q-41 0 -76 -5.5
t-60.5 -27.5t-40 -66.5t-14.5 -122.5q0 -73 10 -118t32.5 -69.5t59.5 -33t92 -8.5q31 0 63.5 5.5t52.5 12.5v164z" />
    <glyph glyph-name="H" unicode="H" horiz-adv-x="681" 
d="M470 0v287h-260v-287h-131v642h131v-246h260v246h131v-642h-131z" />
    <glyph glyph-name="I" unicode="I" horiz-adv-x="290" 
d="M79 0v642h132v-642h-132z" />
    <glyph glyph-name="J" unicode="J" horiz-adv-x="322" 
d="M6 98q31 0 52.5 2t35 11.5t19.5 29.5t6 56v445h131v-441q0 -66 -12.5 -106.5t-41.5 -62.5t-77 -29.5t-119 -7.5z" />
    <glyph glyph-name="K" unicode="K" horiz-adv-x="675" 
d="M269 267h-59v-267h-131v642h131v-268h59l197 268h154l-122.5 -160.5l-123.5 -160.5l123.5 -161l122.5 -160h-154z" />
    <glyph glyph-name="L" unicode="L" horiz-adv-x="532" 
d="M79 0v642h131v-534h322l-10 -108h-443z" />
    <glyph glyph-name="M" unicode="M" horiz-adv-x="855" 
d="M647 0v392h-3l-148 -392h-138l-148 392h-3v-392h-128v642h148l158 -382l42 -171l42 171l158 382h148v-642h-128z" />
    <glyph glyph-name="N" unicode="N" horiz-adv-x="685" 
d="M466 0l-259 424v-424h-128v642h140l259 -422v422h127v-642h-139z" />
    <glyph glyph-name="O" unicode="O" 
d="M379 549q-38 0 -72 -3.5t-60 -25t-41 -67.5t-15 -131t15 -131t41 -67.5t60 -25t72 -3.5q37 0 71 3.5t60 25t41.5 67.5t15.5 131t-15.5 131t-42 67.5t-60.5 25t-70 3.5zM57 322q0 108 25.5 173.5t69 101t102 47t125.5 11.5t125.5 -11.5t102 -47t69 -101t25.5 -173.5
t-25.5 -173.5t-69 -101t-102 -47t-125.5 -11.5t-125.5 11.5t-102 47t-69 101t-25.5 173.5z" />
    <glyph glyph-name="P" unicode="P" horiz-adv-x="595" 
d="M79 0v642h259q71 0 119 -7.5t77 -29.5t41.5 -62.5t12.5 -106.5t-12.5 -106.5t-41.5 -62t-77 -29t-119 -7.5h-127v-231h-132zM453 439q0 34 -6 53.5t-19 29t-35 11.5t-53 2h-129v-197h129q31 0 53 2t35 11.5t19 28.5t6 53v6z" />
    <glyph glyph-name="Q" unicode="Q" horiz-adv-x="766" 
d="M712 -121q-52 -46 -121 -46q-31 0 -60 9.5t-57.5 21t-57 21t-57.5 9.5t-54.5 -9.5t-61.5 -39.5v106q26 28 65 40q-56 4 -104 20.5t-83 53.5t-55 99t-20 158q0 108 25.5 173.5t69 101t102 47t125.5 11.5t125.5 -11.5t102 -47t69 -101t25.5 -173.5q0 -96 -20 -158
t-55.5 -99t-84 -53.5t-104.5 -20.5q24 -6 47 -15.5t45 -17.5t42.5 -14t39.5 -6q27 0 57 14t55 35v-108zM368 95q37 0 71 3.5t60 25t41.5 67.5t15.5 131t-15.5 131t-42 67.5t-60.5 25t-70 3.5q-38 0 -72 -3.5t-60 -25t-41 -67.5t-15 -131t15 -131t41 -67.5t60 -25t72 -3.5z
" />
    <glyph glyph-name="R" unicode="R" horiz-adv-x="669" 
d="M467 0l-170 231h-86v-231h-132v642h260q71 0 119 -7.5t77 -29.5t41.5 -62.5t12.5 -106.5q0 -53 -7.5 -89t-25 -59t-46 -35.5t-70.5 -17.5l178 -235h-151zM341 338q31 0 52.5 2t35 12t19.5 29.5t6 54.5q0 36 -6 56t-19.5 29.5t-35 11.5t-52.5 2h-130v-197h130z" />
    <glyph glyph-name="S" unicode="S" horiz-adv-x="624" 
d="M522 512q-14 5 -37 11t-51 11.5t-59 9t-61 3.5q-60 0 -90.5 -15t-30.5 -54q0 -23 1.5 -35t8 -19.5t20 -12.5t36.5 -12q56 -14 112.5 -25.5t102.5 -32.5t75.5 -59t30.5 -105q0 -58 -19 -94.5t-53 -57.5t-81.5 -28.5t-104.5 -7.5q-35 0 -74 3.5t-76.5 10.5t-70.5 15.5
t-55 19.5l15 54.5t16 50.5q15 -6 39.5 -14t57.5 -15t73 -12t84 -5q28 0 50.5 1.5t38.5 8.5t24 22.5t8 43.5q0 21 -4 34t-13.5 20.5t-25 12t-37.5 9.5q-84 18 -143 32.5t-95.5 37.5t-53 60t-16.5 100q0 44 18.5 77t51 54.5t75 32.5t90.5 11q35 0 71.5 -2.5t70.5 -7.5
t63.5 -12t50.5 -17z" />
    <glyph glyph-name="T" unicode="T" horiz-adv-x="543" 
d="M204 0v535h-197l10 107h529l-10 -107h-200v-535h-132z" />
    <glyph glyph-name="U" unicode="U" horiz-adv-x="686" 
d="M483 642h131v-372q0 -75 -10 -128.5t-39 -87t-82 -49.5t-139 -16t-139.5 16t-83 49.5t-40 87t-10.5 128.5v372h131v-371q0 -47 4.5 -80t19.5 -54t43 -30.5t75 -9.5q46 0 74 9.5t42 30.5t18.5 54t4.5 80v371z" />
    <glyph glyph-name="V" unicode="V" horiz-adv-x="655" 
d="M248 0l-227 642h144l135 -441l18 -101h6l18 101l135 441h144l-227 -642h-146z" />
    <glyph glyph-name="W" unicode="W" horiz-adv-x="908" 
d="M560 0l-107 482l-98 -482h-165l-147 642h144l83 -532h6l92 532h169l103 -532h6l72 532h146l-139 -642h-165z" />
    <glyph glyph-name="X" unicode="X" horiz-adv-x="696" 
d="M350 289l-14 -44t-19 -50l-123 -195h-163l61 82l64.5 86.5l64 86.5l59.5 81l-52.5 74l-56 78.5l-57 79l-53.5 74.5h163l93 -165q11 -25 19 -50l14 -44l14 44t19 50l93 165h163l-54 -74.5l-56.5 -79l-56 -78.5l-52.5 -74l59.5 -81l64 -86.5l64.5 -86.5l61 -82h-163
l-123 195q-11 25 -19 50z" />
    <glyph glyph-name="Y" unicode="Y" horiz-adv-x="618" 
d="M239 0v274l-113 184l-113 184h146l58.5 -97.5l58.5 -97.5q8 -29 16 -64l14 -63l16 60.5l17 66.5l61.5 97.5t66.5 97.5h139l-235 -368v-274h-132z" />
    <glyph glyph-name="Z" unicode="Z" horiz-adv-x="585" 
d="M28 0v117l379 418h-359l10 107h485v-113l-384 -421h396l-10 -108h-517z" />
    <glyph glyph-name="bracketleft" unicode="[" horiz-adv-x="248" 
d="M79 -186v936h169l-10 -47h-94v-842h104l-10 -47h-159z" />
    <glyph glyph-name="backslash" unicode="\" horiz-adv-x="270" 
d="M196 -11l-196 672h72l198 -672h-74z" />
    <glyph glyph-name="bracketright" unicode="]" horiz-adv-x="253" 
d="M0 -186l10 97h64v742h-74l10 97h189v-936h-199z" />
    <glyph glyph-name="asciicircum" unicode="^" horiz-adv-x="499" 
d="M412 500l-162 194l-160 -194h-69l200 251h58l199 -251h-66z" />
    <glyph glyph-name="underscore" unicode="_" horiz-adv-x="708" 
d="M79 -186v38h549v-38h-549z" />
    <glyph glyph-name="grave" unicode="`" horiz-adv-x="170" 
d="M97 547l-94 107h86l53 -107h-45z" />
    <glyph glyph-name="a" unicode="a" horiz-adv-x="703" 
d="M648 -1q-64 7 -94.5 29t-41.5 71q-31 -53 -82.5 -81t-123.5 -28q-57 0 -104.5 9t-81.5 31.5t-53 61t-19 96.5q0 66 19 109t53 68.5t81.5 35.5t104.5 10h158q-3 48 -11.5 75.5t-25.5 41t-44.5 17t-68.5 3.5q-30 0 -59 -4t-54.5 -10t-46.5 -12.5t-35 -11.5l-33 103
q42 20 101 31t129 11q81 0 135.5 -12t87 -47t46.5 -100t14 -171v-16v-112q0 -49 14 -69t46 -25zM465 303h-159q-29 0 -52.5 -3.5t-41 -15.5t-27 -34.5t-9.5 -61.5q0 -30 10 -48t27 -27t41 -12t53 -3q51 0 82 13t48 39t22.5 63.5t5.5 87.5v2z" />
    <glyph glyph-name="b" unicode="b" horiz-adv-x="675" 
d="M79 0v642h275q71 0 119 -6.5t76.5 -24t40.5 -49.5t12 -83q0 -38 -5 -63t-15.5 -42.5t-26 -29.5t-35.5 -22q20 -10 36.5 -21.5t28 -29t17.5 -43t6 -62.5q0 -51 -12.5 -83.5t-41.5 -50.5t-77 -25t-119 -7h-279zM360 107q31 0 53 1t36 6t20 17t6 35q0 39 -5.5 60t-18 30.5
t-32 11t-47.5 1.5h-181v-162h169zM372 376q27 0 46 2.5t30 12t16 29.5t5 56q0 21 -6 32.5t-19 17.5t-35 7.5t-53 1.5h-165v-159h181z" />
    <glyph glyph-name="c" unicode="c" horiz-adv-x="650" 
d="M614 31q-42 -20 -103.5 -32t-131.5 -12q-74 0 -133.5 12.5t-101.5 48.5t-65 101.5t-23 171.5t23 171.5t65 101.5t101.5 48.5t133.5 12.5q140 0 225 -40l-33 -103q-29 9 -79 22.5t-111 13.5q-41 0 -76 -6t-60.5 -29t-40 -68.5t-14.5 -123.5q0 -79 14.5 -124.5t40 -68
t60.5 -28.5t76 -6q30 0 60 4.5t56 10.5t48 13t36 12z" />
    <glyph glyph-name="d" unicode="d" horiz-adv-x="689" 
d="M79 0v642h230q73 0 133 -9.5t102 -42.5t65 -96t23 -169q0 -107 -20.5 -171.5t-60.5 -98.5t-98 -44.5t-134 -10.5h-240zM309 108q53 0 89.5 6.5t58.5 29t31.5 66t9.5 116.5q0 76 -14.5 118.5t-40 62.5t-60.5 24t-76 4h-96v-427h98z" />
    <glyph glyph-name="e" unicode="e" horiz-adv-x="704" 
d="M193 278q3 -59 14.5 -95t34.5 -55.5t58 -26.5t86 -7q30 0 61.5 5.5t60 13t52 15.5l37.5 13l33 -103q-21 -10 -51 -19t-64.5 -16t-71.5 -11.5t-72 -4.5q-75 0 -133 12t-98 47.5t-61 99t-21 167.5q0 108 22.5 175t63 104t96 50t122.5 13q72 0 127.5 -14t93.5 -50.5
t58 -99.5t20 -162v-51h-468zM525 386q-3 52 -14 84t-31 49.5t-49 23.5t-69 6q-35 0 -64.5 -3.5t-52 -19.5t-36 -49t-16.5 -91h332z" />
    <glyph glyph-name="f" unicode="f" horiz-adv-x="526" 
d="M200 278v-278h-121v642h447l-10 -107h-316v-149h275v-108h-275z" />
    <glyph glyph-name="g" unicode="g" horiz-adv-x="672" 
d="M500 279h-145l10 107h263v-341q-20 -12 -49.5 -22t-64 -17.5t-72 -11.5t-73.5 -4q-76 0 -134.5 12t-98 48t-60 102t-20.5 173q0 106 23 171t65 100t101.5 47t133.5 12q70 0 129 -11t101 -31l-33 -103q-14 5 -35 11.5t-46.5 12.5t-54.5 10t-59 4q-41 0 -76 -5.5
t-60.5 -27.5t-40 -66.5t-14.5 -122.5q0 -73 10 -118t32.5 -69.5t59.5 -33t92 -8.5q31 0 63.5 5.5t52.5 12.5v164z" />
    <glyph glyph-name="h" unicode="h" horiz-adv-x="681" 
d="M470 0v287h-260v-287h-131v642h131v-246h260v246h131v-642h-131z" />
    <glyph glyph-name="i" unicode="i" horiz-adv-x="290" 
d="M79 0v642h132v-642h-132z" />
    <glyph glyph-name="j" unicode="j" horiz-adv-x="322" 
d="M6 98q31 0 52.5 2t35 11.5t19.5 29.5t6 56v445h131v-441q0 -66 -12.5 -106.5t-41.5 -62.5t-77 -29.5t-119 -7.5z" />
    <glyph glyph-name="k" unicode="k" horiz-adv-x="680" 
d="M261 267h-57v-267h-131v642h131v-268h57l204 268h149l-122.5 -160.5l-123.5 -160.5l182 -216q7 -6 18 -9t23 -3.5t24 0t23 0.5l-11 -93q-31 -3 -59 -3.5t-54.5 8.5t-53.5 29.5t-56 58.5z" />
    <glyph glyph-name="l" unicode="l" horiz-adv-x="532" 
d="M79 0v642h131v-534h322l-10 -108h-443z" />
    <glyph glyph-name="m" unicode="m" horiz-adv-x="855" 
d="M647 0v392h-3l-148 -392h-138l-148 392h-3v-392h-128v642h148l158 -382l42 -171l42 171l158 382h148v-642h-128z" />
    <glyph glyph-name="n" unicode="n" horiz-adv-x="685" 
d="M466 0l-259 424v-424h-128v642h140l259 -422v422h127v-642h-139z" />
    <glyph glyph-name="o" unicode="o" 
d="M379 549q-38 0 -72 -3.5t-60 -25t-41 -67.5t-15 -131t15 -131t41 -67.5t60 -25t72 -3.5q37 0 71 3.5t60 25t41.5 67.5t15.5 131t-15.5 131t-42 67.5t-60.5 25t-70 3.5zM57 322q0 108 25.5 173.5t69 101t102 47t125.5 11.5t125.5 -11.5t102 -47t69 -101t25.5 -173.5
t-25.5 -173.5t-69 -101t-102 -47t-125.5 -11.5t-125.5 11.5t-102 47t-69 101t-25.5 173.5z" />
    <glyph glyph-name="p" unicode="p" horiz-adv-x="595" 
d="M79 0v642h259q71 0 119 -7.5t77 -29.5t41.5 -62.5t12.5 -106.5t-12.5 -106.5t-41.5 -62t-77 -29t-119 -7.5h-127v-231h-132zM453 439q0 34 -6 53.5t-19 29t-35 11.5t-53 2h-129v-197h129q31 0 53 2t35 11.5t19 28.5t6 53v6z" />
    <glyph glyph-name="q" unicode="q" horiz-adv-x="753" 
d="M712 -121q-52 -46 -121 -46q-31 0 -60 9.5t-57.5 21t-57 21t-57.5 9.5t-54.5 -9.5t-61.5 -39.5v106q26 28 65 40q-56 4 -104 20.5t-83 53.5t-55 99t-20 158q0 108 25.5 173.5t69 101t102 47t125.5 11.5t125.5 -11.5t102 -47t69 -101t25.5 -173.5q0 -96 -20 -158
t-55.5 -99t-84 -53.5t-104.5 -20.5q24 -6 47 -15.5t45 -17.5t42.5 -14t39.5 -6q27 0 57 14t55 35v-108zM368 95q37 0 71 3.5t60 25t41.5 67.5t15.5 131t-15.5 131t-42 67.5t-60.5 25t-70 3.5q-38 0 -72 -3.5t-60 -25t-41 -67.5t-15 -131t15 -131t41 -67.5t60 -25t72 -3.5z
" />
    <glyph glyph-name="r" unicode="r" horiz-adv-x="681" 
d="M79 0v642h259q71 0 119 -7.5t77 -29.5t41.5 -62.5t12.5 -106.5q0 -53 -7.5 -88.5t-25 -59t-46 -35.5t-69.5 -17l110 -131q6 -7 16.5 -10t23 -3.5t25 0.5t23.5 1l-11 -93q-31 -3 -58.5 -3t-53.5 9t-53 29.5t-58 57.5l-114 138h-79v-231h-132zM453 439q0 34 -6 53.5t-19 29
t-35 11.5t-53 2h-129v-197h129q31 0 53 2t35 11.5t19 28.5t6 53v6z" />
    <glyph glyph-name="s" unicode="s" horiz-adv-x="624" 
d="M522 512q-14 5 -37 11t-51 11.5t-59 9t-61 3.5q-60 0 -90.5 -15t-30.5 -54q0 -23 1.5 -35t8 -19.5t20 -12.5t36.5 -12q56 -14 112.5 -25.5t102.5 -32.5t75.5 -59t30.5 -105q0 -58 -19 -94.5t-53 -57.5t-81.5 -28.5t-104.5 -7.5q-35 0 -74 3.5t-76.5 10.5t-70.5 15.5
t-55 19.5l15 54.5t16 50.5q15 -6 39.5 -14t57.5 -15t73 -12t84 -5q28 0 50.5 1.5t38.5 8.5t24 22.5t8 43.5q0 21 -4 34t-13.5 20.5t-25 12t-37.5 9.5q-84 18 -143 32.5t-95.5 37.5t-53 60t-16.5 100q0 44 18.5 77t51 54.5t75 32.5t90.5 11q35 0 71.5 -2.5t70.5 -7.5
t63.5 -12t50.5 -17z" />
    <glyph glyph-name="t" unicode="t" horiz-adv-x="543" 
d="M204 0v535h-197l10 107h529l-10 -107h-200v-535h-132z" />
    <glyph glyph-name="u" unicode="u" horiz-adv-x="668" 
d="M483 642h131v-372q0 -75 -10 -128.5t-39 -87t-82 -49.5t-139 -16t-139.5 16t-83 49.5t-40 87t-10.5 128.5v372h131v-371q0 -47 4.5 -80t19.5 -54t43 -30.5t75 -9.5q46 0 74 9.5t42 30.5t18.5 54t4.5 80v371z" />
    <glyph glyph-name="v" unicode="v" horiz-adv-x="655" 
d="M248 0l-227 642h144l135 -441l18 -101h6l18 101l135 441h144l-227 -642h-146z" />
    <glyph glyph-name="w" unicode="w" horiz-adv-x="908" 
d="M560 0l-107 482l-98 -482h-165l-147 642h144l83 -532h6l92 532h169l103 -532h6l72 532h146l-139 -642h-165z" />
    <glyph glyph-name="x" unicode="x" horiz-adv-x="696" 
d="M350 289l-14 -44t-19 -50l-123 -195h-163l61 82l64.5 86.5l64 86.5l59.5 81l-52.5 74l-56 78.5l-57 79l-53.5 74.5h163l93 -165q11 -25 19 -50l14 -44l14 44t19 50l93 165h163l-54 -74.5l-56.5 -79l-56 -78.5l-52.5 -74l59.5 -81l64 -86.5l64.5 -86.5l61 -82h-163
l-123 195q-11 25 -19 50z" />
    <glyph glyph-name="y" unicode="y" horiz-adv-x="618" 
d="M239 0v274l-113 184l-113 184h146l58.5 -97.5l58.5 -97.5q8 -29 16 -64l14 -63l16 60.5l17 66.5l61.5 97.5t66.5 97.5h139l-235 -368v-274h-132z" />
    <glyph glyph-name="z" unicode="z" horiz-adv-x="585" 
d="M28 0v117l379 418h-359l10 107h485v-113l-384 -421h396l-10 -108h-517z" />
    <glyph glyph-name="braceleft" unicode="{" horiz-adv-x="282" 
d="M242 -197q-22 0 -38 1t-27 4q-26 8 -43.5 27.5t-26.5 60.5q-2 10 -3.5 29.5t-2.5 43l-2 49t-2 47.5t-2 39t-2 23q-8 34 -31.5 54.5t-59.5 23.5v54q31 3 50 15t29.5 34.5t14.5 56.5t4 81q0 60 3.5 98t13.5 61t26.5 34.5t42.5 17.5q8 2 22.5 3t33.5 1h16v-101h-5
q-18 0 -25 -9.5t-7 -44.5q0 -60 -1.5 -97t-3.5 -52q-3 -23 -8 -39.5t-16 -30.5t-31.5 -27t-55.5 -29q35 -12 57.5 -27.5t35.5 -38.5t18 -56.5t5 -82.5v-63.5t3 -37.5t9.5 -17.5t19.5 -4.5h5v-100h-16z" />
    <glyph glyph-name="bar" unicode="|" horiz-adv-x="227" 
d="M79 -197v858h55v-858h-55z" />
    <glyph glyph-name="braceright" unicode="}" horiz-adv-x="283" 
d="M25 -197v100h5q13 0 19.5 4.5t9.5 17.5t3 37.5v63.5q0 49 5 82.5t18 56.5t35.5 38.5t57.5 27.5q-35 16 -55.5 29t-31.5 27t-16 30.5t-8 39.5q-2 15 -3.5 52t-1.5 97q0 35 -7 44.5t-25 9.5h-5v101h16q19 0 33.5 -1t22.5 -3q26 -6 42.5 -17.5t26.5 -34.5t13.5 -61t3.5 -98
q0 -47 4 -81t14.5 -56.5t29.5 -34.5t50 -15v-54q-36 -3 -59.5 -23.5t-31.5 -54.5q-2 -6 -2.5 -23t-1.5 -39t-2 -47.5l-2 -49t-2.5 -43t-3.5 -29.5q-9 -41 -26.5 -60.5t-43.5 -27.5q-11 -3 -27 -4t-38 -1h-16z" />
    <glyph glyph-name="asciitilde" unicode="~" horiz-adv-x="589" 
d="M527 302q-52 -46 -121 -46q-14 0 -27 1t-27 5q-12 3 -35.5 12l-50 18.5t-51.5 17t-41 7.5q-29 0 -54.5 -9.5t-61.5 -39.5v66q49 49 123 49q26 0 60 -8q18 -5 43 -14l50 -18t47 -15.5t34 -6.5q27 0 57 14t55 35v-68z" />
    <glyph glyph-name="exclamdown" unicode="&#xa1;" horiz-adv-x="170" 
d="M101 289q10 -82 18 -168l16 -167v-138h-105v138l35 335h36zM142 466v-123h-118v123h118z" />
    <glyph glyph-name="cent" unicode="&#xa2;" horiz-adv-x="650" 
d="M614 31q-38 -18 -94 -29.5t-119 -13.5v-106h-55v106q-66 2 -120 17t-91.5 51.5t-58 100.5t-20.5 164t20.5 164t58 100.5t91.5 51.5t120 17v86h55v-85q124 -3 203 -40l-33 -103q-26 8 -71 20.5t-99 14.5v-453q28 1 54.5 6t50 11t43 12t32.5 11zM190 321q0 -71 11.5 -114.5
t32.5 -68t49.5 -33.5t62.5 -11v453q-34 -2 -62.5 -11.5t-49.5 -34t-32.5 -67.5t-11.5 -113z" />
    <glyph glyph-name="sterling" unicode="&#xa3;" horiz-adv-x="516" 
d="M264 252q0 -26 -11 -58t-34 -68q35 -3 69.5 -11.5t68 -13.5t65.5 -2.5t62 20.5q3 -8 5.5 -23l5 -30.5l5 -30t5.5 -21.5q-35 -20 -73 -21.5t-77.5 5t-79.5 16.5t-78.5 14.5t-75 -2.5t-69.5 -34l-25 59q46 26 76.5 72t30.5 112q0 15 -2.5 32t-7.5 36h-92v46h77l-7 26
q-7 24 -11 39.5t-6 27t-2.5 20t-0.5 19.5q0 40 15 73t42 57t64.5 37t83.5 13q81 0 133.5 -40t66.5 -114l-124 -8q-7 30 -28 48t-49 18q-31 0 -52 -21t-21 -51q0 -57 28 -144h149v-46h-141q8 -17 11.5 -29t3.5 -22z" />
    <glyph glyph-name="currency" unicode="&#xa4;" horiz-adv-x="571" 
d="M400 175q-55 -38 -115 -38q-58 0 -114 38l-66 -64l-38 40l64 62q-37 53 -37 109q0 26 9 54t28 54l-65 62l39 40l65 -62q55 35 115 35q62 0 115 -35l65 63q12 -11 20.5 -21t19.5 -21l-64 -61q19 -26 28 -54t9 -54q0 -56 -37 -109l31 -29.5l33 -31.5l-40 -42zM191 414
q-40 -40 -40 -92q0 -53 40 -92q40 -37 93 -37q58 0 96 37q40 39 40 92q0 52 -40 92q-38 37 -96 37q-53 0 -93 -37z" />
    <glyph glyph-name="yen" unicode="&#xa5;" horiz-adv-x="618" 
d="M239 0v149h-161v43h161v82q-2 2 -2 3h-159v48h129l-97 158.5l-97 158.5h146l58.5 -97.5l58.5 -97.5q8 -29 16 -64l14 -63l33 127l61.5 97.5t66.5 97.5h139l-203 -317h137v-48h-167l-2 -3v-82h169v-43h-169v-149h-132z" />
    <glyph glyph-name="brokenbar" unicode="&#xa6;" horiz-adv-x="188" 
d="M79 321v340h55v-340h-55zM79 -197v341h55v-341h-55z" />
    <glyph glyph-name="section" unicode="&#xa7;" horiz-adv-x="515" 
d="M338 -8q-12 16 -49.5 47t-94.5 67q-43 27 -73 47.5t-48.5 39.5t-26.5 40.5t-8 50.5q0 40 30.5 74t85.5 51q-38 35 -55 63t-17 56q0 26 11.5 50t33 42.5t52 29.5t68.5 11q81 0 128 -36t59 -102l-98 -7q-9 39 -28.5 54t-53.5 15q-35 0 -56.5 -17t-21.5 -37q0 -13 5 -28
t19.5 -33t42 -41t72.5 -51q49 -31 80 -53t49 -41t25 -38t7 -44q0 -21 -3.5 -37.5t-16 -31.5t-36 -29.5t-63.5 -30.5q47 -35 67 -68t20 -68q0 -27 -13.5 -51.5t-37 -42.5t-54.5 -29t-66 -11q-179 0 -205 146l96 8q11 -42 35 -58.5t66 -16.5q45 0 69.5 18t24.5 42
q0 14 -5.5 26t-15.5 24zM340 92q29 20 42.5 45t13.5 49q0 30 -26 62q-9 11 -35 31.5t-56.5 42l-59.5 42l-44 31.5q-32 -26 -46.5 -49t-14.5 -52q0 -19 25.5 -46.5t60.5 -56t71 -54.5t58 -44z" />
    <glyph glyph-name="dieresis" unicode="&#xa8;" horiz-adv-x="409" 
d="M59 581v123h110v-123h-110zM237 581v123h110v-123h-110z" />
    <glyph glyph-name="copyright" unicode="&#xa9;" 
d="M379 -11q-67 0 -125.5 11.5t-102 47t-69 101t-25.5 173.5t25.5 173.5t69 101t102 47t125.5 11.5t125.5 -11.5t102 -47t69 -101t25.5 -173.5t-25.5 -173.5t-69 -101t-102 -47t-125.5 -11.5zM541 147q-29 -13 -70 -23t-83 -10q-46 0 -81 7t-59 29t-36.5 62t-12.5 105
q0 64 14 103.5t39.5 61t61.5 28.5t80 7q42 0 79.5 -8t66.5 -22l-27 -46q-18 7 -50.5 15.5t-66.5 8.5q-29 0 -54 -3.5t-43 -18t-28.5 -44t-10.5 -81.5q0 -49 7 -78.5t23 -46t42 -22t65 -5.5q29 0 55 7.5t43 13.5l17 6zM379 25q35 0 69.5 1.5t66.5 10t59.5 26t47.5 50.5
t31.5 84t11.5 125t-11.5 125t-32 84t-48 50.5t-59.5 26t-66.5 10t-68.5 1.5q-36 0 -70.5 -1.5t-66.5 -10t-59 -26t-47 -50.5t-31.5 -84t-11.5 -125t11.5 -125t31.5 -84t47 -50.5t59 -26t66.5 -10t70.5 -1.5z" />
    <glyph glyph-name="guillemotleft" unicode="&#xab;" horiz-adv-x="465" 
d="M169 32l-72.5 100.5l-72.5 98.5l145 198h85l-117 -198l116 -199h-84zM353 32l-142 199l142 198h89l-120 -198l120 -199h-89z" />
    <glyph glyph-name="logicalnot" unicode="&#xac;" horiz-adv-x="522" 
d="M380 194v201h-380v56h441v-257h-61z" />
    <glyph glyph-name="registered" unicode="&#xae;" horiz-adv-x="636" 
d="M486 320q-11 -7 -21 -11t-18 -4q-19 0 -35 14t-37 43l-43 57h-83v-108h-50v315h130q35 0 59 -3.5t38.5 -15t20.5 -31.5t6 -53q0 -48 -14.5 -71t-49.5 -30q8 -9 14 -17.5t14 -18.5q18 -25 31 -31.5t28 -0.5zM330 461q19 0 33 1.5t23 7.5t13 18.5t4 34.5t-4 34.5t-13 18.5
t-23 7t-33 1h-81v-123h81zM318 202q-54 0 -101.5 9.5t-83 38t-56 82t-20.5 140.5t20.5 140.5t56 82t83 38t101.5 9.5t101.5 -9.5t83 -38t56 -82t20.5 -140.5t-20.5 -140.5t-56 -82t-83 -38t-101.5 -9.5zM318 242q40 0 79.5 3.5t71 25.5t51 68.5t19.5 132.5q0 57 -9 96.5
t-24.5 65t-37 39.5t-46 20.5t-51.5 7.5t-53 1q-41 0 -81 -3.5t-71 -25.5t-50 -68.5t-19 -132.5t19 -132.5t50 -68.5t71 -25.5t81 -3.5z" />
    <glyph glyph-name="macron" unicode="&#xaf;" horiz-adv-x="433" 
d="M79 745v38h275v-38h-275z" />
    <glyph glyph-name="degree" unicode="&#xb0;" horiz-adv-x="340" 
d="M84 461q-36 36 -36 85t36 81q35 34 87 34q51 0 85 -34q37 -33 37 -81q0 -49 -37 -83q-35 -35 -85 -35q-24 0 -47 9.5t-40 23.5zM262 546q0 18 -7.5 33.5t-20 27t-29 18.5t-34.5 7t-34.5 -7t-29 -18.5t-20 -27t-7.5 -33.5t7.5 -34t20 -28.5t29 -19.5t34.5 -7t34.5 7
t29 19.5t20 28.5t7.5 34z" />
    <glyph glyph-name="plusminus" unicode="&#xb1;" horiz-adv-x="451" 
d="M276 284v-165h-101v165h-170v94h170v164h101v-164h170v-94h-170zM5 0v76h441v-76h-441z" />
    <glyph glyph-name="acute" unicode="&#xb4;" horiz-adv-x="174" 
d="M31 547l53 107h85q-26 -29 -45.5 -53.5l-42.5 -53.5h-50z" />
    <glyph glyph-name="paragraph" unicode="&#xb6;" horiz-adv-x="575" 
d="M400 -186v778h-128v-778h-57v479q-45 1 -81 14.5t-61 37t-38.5 54.5t-13.5 69q0 83 55 132.5t161 49.5h293v-58h-69v-778h-61z" />
    <glyph glyph-name="periodcentered" unicode="&#xb7;" horiz-adv-x="245" 
d="M79 292v73h77v-73h-77z" />
    <glyph glyph-name="cedilla" unicode="&#xb8;" horiz-adv-x="239" 
d="M32 -156h4q8 -1 17 -1h14q46 0 69 14q17 15 17 32q0 8 -2 14.5t-9 12t-21 9t-38 4.5l18 61h41l-15 -48q44 -5 65 -21.5t21 -37.5q0 -29 -32 -52.5t-95 -23.5q-34 0 -59 3z" />
    <glyph glyph-name="ordmasculine" unicode="&#xba;" horiz-adv-x="393" 
d="M198 339q-66 0 -106.5 42t-40.5 117q0 78 40 120.5t106 42.5q65 0 105 -42.5t40 -118.5q0 -38 -11 -67.5t-30 -50.5t-45.5 -32t-57.5 -11zM197 378q43 0 69.5 29.5t26.5 94.5q0 61 -26.5 90.5t-69.5 29.5q-44 0 -70.5 -29t-26.5 -93q0 -63 27 -92.5t70 -29.5z" />
    <glyph glyph-name="guillemotright" unicode="&#xbb;" horiz-adv-x="465" 
d="M209 32l119 199l-59 99l-60 99h87l72.5 -98.5l72.5 -99.5l-145 -199h-87zM23 32l120 199l-120 198h88l71.5 -98.5l70.5 -99.5l-142 -199h-88z" />
    <glyph glyph-name="questiondown" unicode="&#xbf;" horiz-adv-x="511" 
d="M412 316v-14q0 -51 -16.5 -85t-44 -56t-64.5 -35.5t-77 -22.5q-23 -7 -36.5 -12t-20 -12.5t-8 -20t-1.5 -34.5q0 -38 30.5 -53.5t90.5 -15.5q30 0 61 3.5t59 9t51 11.5t37 11l33 -103q-21 -10 -50.5 -17t-63.5 -12t-70.5 -7.5t-71.5 -2.5q-48 0 -90.5 11t-75 32.5
t-51 54.5t-18.5 77q0 48 10 81t31.5 54.5t56 35t82.5 24.5q22 7 37.5 12.5t25 14t13.5 23t4 38.5v10h137zM412 502v-123h-137v123h137z" />
    <glyph glyph-name="Agrave" unicode="&#xc0;" horiz-adv-x="657" 
d="M401 642l227 -642h-144l-56 181h-201l-55 -181h-144l227 642h146zM256 274h144l-51 167l-18 101h-6l-18 -101zM353 707l-94 107h86l53 -107h-45z" />
    <glyph glyph-name="Aacute" unicode="&#xc1;" horiz-adv-x="657" 
d="M401 642l227 -642h-144l-56 181h-201l-55 -181h-144l227 642h146zM256 274h144l-51 167l-18 101h-6l-18 -101zM292 689l53 107h85q-26 -29 -45.5 -53.5l-42.5 -53.5h-50z" />
    <glyph glyph-name="Acircumflex" unicode="&#xc2;" horiz-adv-x="657" 
d="M401 642l227 -642h-144l-56 181h-201l-55 -181h-144l227 642h146zM256 274h144l-51 167l-18 101h-6l-18 -101zM389 689l-59 84l-59 -84h-72l44 54l44 53h80l91 -107h-69z" />
    <glyph glyph-name="Atilde" unicode="&#xc3;" horiz-adv-x="657" 
d="M401 642l227 -642h-144l-56 181h-201l-55 -181h-144l227 642h146zM256 274h144l-51 167l-18 101h-6l-18 -101zM478 803q-4 -40 -26.5 -62t-56.5 -22q-14 0 -32.5 6.5t-42.5 18.5q-33 18 -51 18q-12 0 -19.5 -3.5t-15.5 -11.5q-5 -5 -8 -12t-4 -18h-43q1 20 7 33.5
t17 25.5q26 26 64 26q14 0 33 -6.5t43 -17.5q30 -15 49 -15t29.5 8t15.5 32h41z" />
    <glyph glyph-name="Adieresis" unicode="&#xc4;" horiz-adv-x="657" 
d="M401 642l227 -642h-144l-56 181h-201l-55 -181h-144l227 642h146zM256 274h144l-51 167l-18 101h-6l-18 -101zM184 723v123h110v-123h-110zM362 723v123h110v-123h-110z" />
    <glyph glyph-name="Aring" unicode="&#xc5;" horiz-adv-x="657" 
d="M401 642l227 -642h-144l-56 181h-201l-55 -181h-144l227 642h146zM256 274h144l-51 167l-18 101h-6l-18 -101zM328 725q13 0 22.5 5t9.5 32q0 26 -10 30.5t-22 4.5q-13 0 -22.5 -4.5t-9.5 -30.5q0 -27 9.5 -32t22.5 -5zM328 695q-14 0 -25.5 2.5t-20 9.5t-13.5 20t-5 35
q0 21 5 34t13.5 20t20 9.5t25.5 2.5q13 0 25 -2.5t20.5 -9.5t13.5 -20t5 -34q0 -22 -5 -35t-13.5 -20t-20.5 -9.5t-25 -2.5z" />
    <glyph glyph-name="AE" unicode="&#xc6;" horiz-adv-x="819" 
d="M392 0v181h-160l-70 -181h-134l257 642h527l-10 -107h-278v-154h203v-97h-203v-176h288l-10 -108h-410zM392 529l-1 3h-6l-38 -91l-74 -169h119v257z" />
    <glyph glyph-name="Ccedilla" unicode="&#xc7;" horiz-adv-x="650" 
d="M614 31q-42 -20 -103.5 -32t-131.5 -12q-74 0 -133.5 12.5t-101.5 48.5t-65 101.5t-23 171.5t23 171.5t65 101.5t101.5 48.5t133.5 12.5q140 0 225 -40l-33 -103q-29 9 -79 22.5t-111 13.5q-41 0 -76 -6t-60.5 -29t-40 -68.5t-14.5 -123.5q0 -79 14.5 -124.5t40 -68
t60.5 -28.5t76 -6q30 0 60 4.5t56 10.5t48 13t36 12zM237 -156h4q8 -1 17 -1h14q46 0 69 14q17 15 17 32q0 8 -2 14.5t-9 12t-21 9t-38 4.5l18 61h41l-15 -48q44 -5 65 -21.5t21 -37.5q0 -29 -32 -52.5t-95 -23.5q-34 0 -59 3z" />
    <glyph glyph-name="Egrave" unicode="&#xc8;" horiz-adv-x="566" 
d="M79 0v642h480l-10 -107h-338v-149h263v-107h-263v-171h348l-10 -108h-470zM307 707l-94 107h86l53 -107h-45z" />
    <glyph glyph-name="Eacute" unicode="&#xc9;" horiz-adv-x="566" 
d="M79 0v642h480l-10 -107h-338v-149h263v-107h-263v-171h348l-10 -108h-470zM270 689l53 107h85q-26 -29 -45.5 -53.5l-42.5 -53.5h-50z" />
    <glyph glyph-name="Ecircumflex" unicode="&#xca;" horiz-adv-x="566" 
d="M79 0v642h480l-10 -107h-338v-149h263v-107h-263v-171h348l-10 -108h-470zM343 707l-59 84l-59 -84h-72l44 54l44 53h80l91 -107h-69z" />
    <glyph glyph-name="Edieresis" unicode="&#xcb;" horiz-adv-x="566" 
d="M79 0v642h480l-10 -107h-338v-149h263v-107h-263v-171h348l-10 -108h-470zM190 723v123h110v-123h-110zM368 723v123h110v-123h-110z" />
    <glyph glyph-name="Igrave" unicode="&#xcc;" horiz-adv-x="241" 
d="M50 0v642h132v-642h-132zM146 707l-94 107h86l53 -107h-45z" />
    <glyph glyph-name="Iacute" unicode="&#xcd;" horiz-adv-x="290" 
d="M79 0v642h132v-642h-132zM112 689l53 107h85q-26 -29 -45.5 -53.5l-42.5 -53.5h-50z" />
    <glyph glyph-name="Icircumflex" unicode="&#xce;" horiz-adv-x="290" 
d="M79 0v642h132v-642h-132zM212 689l-59 84l-59 -84h-72l44 54l44 53h80l91 -107h-69z" />
    <glyph glyph-name="Idieresis" unicode="&#xcf;" horiz-adv-x="241" 
d="M50 0v642h132v-642h-132zM-22 741v123h110v-123h-110zM156 741v123h110v-123h-110z" />
    <glyph glyph-name="Eth" unicode="&#xd0;" horiz-adv-x="689" 
d="M79 0v268h-77v103h77v271h230q73 0 133 -9.5t102 -42.5t65 -96t23 -169q0 -107 -20.5 -171.5t-60.5 -98.5t-98 -44.5t-134 -10.5h-240zM309 108q53 0 89.5 6.5t58.5 29t31.5 66t9.5 116.5q0 76 -14.5 118.5t-40 62.5t-60.5 24t-76 4h-96v-164h95v-103h-95v-160h98z" />
    <glyph glyph-name="Ntilde" unicode="&#xd1;" horiz-adv-x="685" 
d="M466 0l-259 424v-424h-128v642h140l259 -422v422h127v-642h-139zM492 803q-4 -40 -26.5 -62t-56.5 -22q-14 0 -32.5 6.5t-42.5 18.5q-33 18 -51 18q-12 0 -19.5 -3.5t-15.5 -11.5q-5 -5 -8 -12t-4 -18h-43q1 20 7 33.5t17 25.5q26 26 64 26q14 0 33 -6.5t43 -17.5
q30 -15 49 -15t29.5 8t15.5 32h41z" />
    <glyph glyph-name="Ograve" unicode="&#xd2;" 
d="M379 549q-38 0 -72 -3.5t-60 -25t-41 -67.5t-15 -131t15 -131t41 -67.5t60 -25t72 -3.5q37 0 71 3.5t60 25t41.5 67.5t15.5 131t-15.5 131t-42 67.5t-60.5 25t-70 3.5zM57 322q0 108 25.5 173.5t69 101t102 47t125.5 11.5t125.5 -11.5t102 -47t69 -101t25.5 -173.5
t-25.5 -173.5t-69 -101t-102 -47t-125.5 -11.5t-125.5 11.5t-102 47t-69 101t-25.5 173.5zM403 707l-94 107h86l53 -107h-45z" />
    <glyph glyph-name="Oacute" unicode="&#xd3;" 
d="M379 549q-38 0 -72 -3.5t-60 -25t-41 -67.5t-15 -131t15 -131t41 -67.5t60 -25t72 -3.5q37 0 71 3.5t60 25t41.5 67.5t15.5 131t-15.5 131t-42 67.5t-60.5 25t-70 3.5zM57 322q0 108 25.5 173.5t69 101t102 47t125.5 11.5t125.5 -11.5t102 -47t69 -101t25.5 -173.5
t-25.5 -173.5t-69 -101t-102 -47t-125.5 -11.5t-125.5 11.5t-102 47t-69 101t-25.5 173.5zM310 689l53 107h85q-26 -29 -45.5 -53.5l-42.5 -53.5h-50z" />
    <glyph glyph-name="Ocircumflex" unicode="&#xd4;" 
d="M379 549q-38 0 -72 -3.5t-60 -25t-41 -67.5t-15 -131t15 -131t41 -67.5t60 -25t72 -3.5q37 0 71 3.5t60 25t41.5 67.5t15.5 131t-15.5 131t-42 67.5t-60.5 25t-70 3.5zM57 322q0 108 25.5 173.5t69 101t102 47t125.5 11.5t125.5 -11.5t102 -47t69 -101t25.5 -173.5
t-25.5 -173.5t-69 -101t-102 -47t-125.5 -11.5t-125.5 11.5t-102 47t-69 101t-25.5 173.5zM439 689l-59 84l-59 -84h-72l44 54l44 53h80l91 -107h-69z" />
    <glyph glyph-name="Otilde" unicode="&#xd5;" 
d="M379 549q-38 0 -72 -3.5t-60 -25t-41 -67.5t-15 -131t15 -131t41 -67.5t60 -25t72 -3.5q37 0 71 3.5t60 25t41.5 67.5t15.5 131t-15.5 131t-42 67.5t-60.5 25t-70 3.5zM57 322q0 108 25.5 173.5t69 101t102 47t125.5 11.5t125.5 -11.5t102 -47t69 -101t25.5 -173.5
t-25.5 -173.5t-69 -101t-102 -47t-125.5 -11.5t-125.5 11.5t-102 47t-69 101t-25.5 173.5zM528 803q-4 -40 -26.5 -62t-56.5 -22q-14 0 -32.5 6.5t-42.5 18.5q-33 18 -51 18q-12 0 -19.5 -3.5t-15.5 -11.5q-5 -5 -8 -12t-4 -18h-43q1 20 7 33.5t17 25.5q26 26 64 26
q14 0 33 -6.5t43 -17.5q30 -15 49 -15t29.5 8t15.5 32h41z" />
    <glyph glyph-name="Odieresis" unicode="&#xd6;" 
d="M379 549q-38 0 -72 -3.5t-60 -25t-41 -67.5t-15 -131t15 -131t41 -67.5t60 -25t72 -3.5q37 0 71 3.5t60 25t41.5 67.5t15.5 131t-15.5 131t-42 67.5t-60.5 25t-70 3.5zM57 322q0 108 25.5 173.5t69 101t102 47t125.5 11.5t125.5 -11.5t102 -47t69 -101t25.5 -173.5
t-25.5 -173.5t-69 -101t-102 -47t-125.5 -11.5t-125.5 11.5t-102 47t-69 101t-25.5 173.5zM235 723v123h110v-123h-110zM413 723v123h110v-123h-110z" />
    <glyph glyph-name="multiply" unicode="&#xd7;" horiz-adv-x="443" 
d="M218 278l-134 -133l-39 39l133 134l-128 129l43 43l128 -129l136 135l39 -39l-135 -135l131 -131l-43 -43z" />
    <glyph glyph-name="Oslash" unicode="&#xd8;" 
d="M655 540q22 -38 34 -91t12 -127q0 -108 -25.5 -173.5t-69 -101t-102 -47t-125.5 -11.5q-69 0 -129.5 12.5t-104.5 51.5l-55 -53l-64 37l75 71q-21 37 -32.5 89.5t-11.5 124.5q0 108 25.5 173.5t69 101t102 47t125.5 11.5q69 0 128 -12t104 -50l51 49l62 -36zM567 322
q0 38 -3.5 68t-9.5 53l-321 -306q13 -16 29.5 -24.5t35 -12.5t39 -4.5t42.5 -0.5q37 0 71 3.5t60 25t41.5 67.5t15.5 131zM379 549q-38 0 -72 -3.5t-60 -25t-41 -67.5t-15 -131q0 -71 11 -118l320 304q-27 30 -64.5 35.5t-78.5 5.5z" />
    <glyph glyph-name="Ugrave" unicode="&#xd9;" horiz-adv-x="686" 
d="M483 642h131v-372q0 -75 -10 -128.5t-39 -87t-82 -49.5t-139 -16t-139.5 16t-83 49.5t-40 87t-10.5 128.5v372h131v-371q0 -47 4.5 -80t19.5 -54t43 -30.5t75 -9.5q46 0 74 9.5t42 30.5t18.5 54t4.5 80v371zM367 707l-94 107h86l53 -107h-45z" />
    <glyph glyph-name="Uacute" unicode="&#xda;" horiz-adv-x="686" 
d="M483 642h131v-372q0 -75 -10 -128.5t-39 -87t-82 -49.5t-139 -16t-139.5 16t-83 49.5t-40 87t-10.5 128.5v372h131v-371q0 -47 4.5 -80t19.5 -54t43 -30.5t75 -9.5q46 0 74 9.5t42 30.5t18.5 54t4.5 80v371zM274 689l53 107h85q-26 -29 -45.5 -53.5l-42.5 -53.5h-50z" />
    <glyph glyph-name="Ucircumflex" unicode="&#xdb;" horiz-adv-x="686" 
d="M483 642h131v-372q0 -75 -10 -128.5t-39 -87t-82 -49.5t-139 -16t-139.5 16t-83 49.5t-40 87t-10.5 128.5v372h131v-371q0 -47 4.5 -80t19.5 -54t43 -30.5t75 -9.5q46 0 74 9.5t42 30.5t18.5 54t4.5 80v371zM403 707l-59 84l-59 -84h-72l44 54l44 53h80l91 -107h-69z" />
    <glyph glyph-name="Udieresis" unicode="&#xdc;" horiz-adv-x="686" 
d="M483 642h131v-372q0 -75 -10 -128.5t-39 -87t-82 -49.5t-139 -16t-139.5 16t-83 49.5t-40 87t-10.5 128.5v372h131v-371q0 -47 4.5 -80t19.5 -54t43 -30.5t75 -9.5q46 0 74 9.5t42 30.5t18.5 54t4.5 80v371zM199 723v123h110v-123h-110zM377 723v123h110v-123h-110z" />
    <glyph glyph-name="Yacute" unicode="&#xdd;" horiz-adv-x="618" 
d="M239 0v274l-113 184l-113 184h146l58.5 -97.5l58.5 -97.5q8 -29 16 -64l14 -63l16 60.5l17 66.5l61.5 97.5t66.5 97.5h139l-235 -368v-274h-132zM240 689l53 107h85q-26 -29 -45.5 -53.5l-42.5 -53.5h-50z" />
    <glyph glyph-name="Thorn" unicode="&#xde;" horiz-adv-x="527" 
d="M72 -57v756h132v-58q9 1 18 1h19q60 0 108.5 -10.5t83 -44t53 -97t18.5 -169.5t-18.5 -169.5t-53 -97t-83 -44t-108.5 -10.5q-9 0 -18.5 -0.5t-18.5 0.5v-57h-132zM204 107q8 -1 17 -1h18q27 0 51 4.5t42 25.5t28 64.5t10 120.5q0 76 -10 119t-28 64t-42 26t-51 5h-18.5
t-16.5 -1v-427z" />
    <glyph glyph-name="germandbls" unicode="&#xdf;" horiz-adv-x="675" 
d="M266 0v107h94q31 0 53 1t36 6t20 17t6 35q0 41 -5.5 63t-18 32t-32 11.5t-47.5 1.5v107q27 0 46 2.5t30 11.5t16 28t5 53q0 21 -6 32.5t-19 17.5t-35 7.5t-53 1.5q-24 0 -49.5 -3.5t-47 -24.5t-35 -67t-13.5 -131v-309h-132v309q0 100 21.5 164t59 101t89.5 51.5
t112 16.5q69 1 115.5 -5t74 -24.5t39.5 -51t12 -82.5q0 -38 -5 -63t-15.5 -42.5t-26 -29.5t-35.5 -22q20 -10 36.5 -21.5t28 -29t17.5 -43t6 -62.5q0 -51 -12.5 -83.5t-41.5 -50.5t-77 -25t-119 -7h-92z" />
    <glyph glyph-name="agrave" unicode="&#xe0;" horiz-adv-x="703" 
d="M648 -1q-64 7 -94.5 29t-41.5 71q-31 -53 -82.5 -81t-123.5 -28q-57 0 -104.5 9t-81.5 31.5t-53 61t-19 96.5q0 66 19 109t53 68.5t81.5 35.5t104.5 10h158q-3 48 -11.5 75.5t-25.5 41t-44.5 17t-68.5 3.5q-30 0 -59 -4t-54.5 -10t-46.5 -12.5t-35 -11.5l-33 103
q42 20 101 31t129 11q81 0 135.5 -12t87 -47t46.5 -100t14 -171v-16v-112q0 -49 14 -69t46 -25zM465 303h-159q-29 0 -52.5 -3.5t-41 -15.5t-27 -34.5t-9.5 -61.5q0 -30 10 -48t27 -27t41 -12t53 -3q51 0 82 13t48 39t22.5 63.5t5.5 87.5v2zM376 707l-94 107h86l53 -107h-45
z" />
    <glyph glyph-name="aacute" unicode="&#xe1;" horiz-adv-x="657" 
d="M401 642l227 -642h-144l-56 181h-201l-55 -181h-144l227 642h146zM256 274h144l-51 167l-18 101h-6l-18 -101zM292 689l53 107h85q-26 -29 -45.5 -53.5l-42.5 -53.5h-50z" />
    <glyph glyph-name="acircumflex" unicode="&#xe2;" horiz-adv-x="657" 
d="M401 642l227 -642h-144l-56 181h-201l-55 -181h-144l227 642h146zM256 274h144l-51 167l-18 101h-6l-18 -101zM389 689l-59 84l-59 -84h-72l44 54l44 53h80l91 -107h-69z" />
    <glyph glyph-name="atilde" unicode="&#xe3;" horiz-adv-x="703" 
d="M648 -1q-64 7 -94.5 29t-41.5 71q-31 -53 -82.5 -81t-123.5 -28q-57 0 -104.5 9t-81.5 31.5t-53 61t-19 96.5q0 66 19 109t53 68.5t81.5 35.5t104.5 10h158q-3 48 -11.5 75.5t-25.5 41t-44.5 17t-68.5 3.5q-30 0 -59 -4t-54.5 -10t-46.5 -12.5t-35 -11.5l-33 103
q42 20 101 31t129 11q81 0 135.5 -12t87 -47t46.5 -100t14 -171v-16v-112q0 -49 14 -69t46 -25zM465 303h-159q-29 0 -52.5 -3.5t-41 -15.5t-27 -34.5t-9.5 -61.5q0 -30 10 -48t27 -27t41 -12t53 -3q51 0 82 13t48 39t22.5 63.5t5.5 87.5v2zM501 803q-4 -40 -26.5 -62
t-56.5 -22q-14 0 -32.5 6.5t-42.5 18.5q-33 18 -51 18q-12 0 -19.5 -3.5t-15.5 -11.5q-5 -5 -8 -12t-4 -18h-43q1 20 7 33.5t17 25.5q26 26 64 26q14 0 33 -6.5t43 -17.5q30 -15 49 -15t29.5 8t15.5 32h41z" />
    <glyph glyph-name="adieresis" unicode="&#xe4;" horiz-adv-x="657" 
d="M401 642l227 -642h-144l-56 181h-201l-55 -181h-144l227 642h146zM256 274h144l-51 167l-18 101h-6l-18 -101zM184 723v123h110v-123h-110zM362 723v123h110v-123h-110z" />
    <glyph glyph-name="aring" unicode="&#xe5;" horiz-adv-x="703" 
d="M648 -1q-64 7 -94.5 29t-41.5 71q-31 -53 -82.5 -81t-123.5 -28q-57 0 -104.5 9t-81.5 31.5t-53 61t-19 96.5q0 66 19 109t53 68.5t81.5 35.5t104.5 10h158q-3 48 -11.5 75.5t-25.5 41t-44.5 17t-68.5 3.5q-30 0 -59 -4t-54.5 -10t-46.5 -12.5t-35 -11.5l-33 103
q42 20 101 31t129 11q81 0 135.5 -12t87 -47t46.5 -100t14 -171v-16v-112q0 -49 14 -69t46 -25zM465 303h-159q-29 0 -52.5 -3.5t-41 -15.5t-27 -34.5t-9.5 -61.5q0 -30 10 -48t27 -27t41 -12t53 -3q51 0 82 13t48 39t22.5 63.5t5.5 87.5v2zM351 725q13 0 22.5 5t9.5 32
q0 26 -10 30.5t-22 4.5q-13 0 -22.5 -4.5t-9.5 -30.5q0 -27 9.5 -32t22.5 -5zM351 695q-14 0 -25.5 2.5t-20 9.5t-13.5 20t-5 35q0 21 5 34t13.5 20t20 9.5t25.5 2.5q13 0 25 -2.5t20.5 -9.5t13.5 -20t5 -34q0 -22 -5 -35t-13.5 -20t-20.5 -9.5t-25 -2.5z" />
    <glyph glyph-name="ae" unicode="&#xe6;" horiz-adv-x="1193" 
d="M1097 38q-21 -10 -51 -19t-64.5 -16t-71.5 -11.5t-72 -4.5q-53 0 -97 5.5t-80 20.5t-63 41.5t-44 67.5q-5 -8 -12 -23q-35 -53 -93.5 -81t-142.5 -28q-57 0 -104.5 9t-81.5 31.5t-53 61t-19 96.5q0 64 19 106t53 67t81.5 35t104.5 10h188q-3 50 -13 78.5t-31 42.5
t-54 17.5t-82 3.5q-30 0 -59 -4t-54.5 -10t-46.5 -12.5t-35 -11.5l-33 103q42 20 101 31t129 11q53 0 94 -4.5t72.5 -17t53 -34.5t35.5 -57q19 34 46 56t60 34.5t71 17.5t81 5q72 0 127.5 -14t93.5 -50.5t58 -99.5t20 -162v-36h-499q1 -63 13.5 -102t39 -60.5t68.5 -29
t103 -7.5q30 0 61.5 5.5t60 13t52 15.5l37.5 13zM495 298h-189q-29 0 -52.5 -3.5t-41 -15t-27 -33t-9.5 -58.5q0 -30 10 -48t27 -27t41 -12t53 -3q58 0 94.5 13t57 38.5t28 63t8.5 86.5v-1zM992 391q-3 50 -14 81t-31 48t-49 23t-69 6q-41 0 -75.5 -3.5t-61 -19t-42.5 -47.5
t-20 -88h362z" />
    <glyph glyph-name="ccedilla" unicode="&#xe7;" horiz-adv-x="650" 
d="M614 31q-42 -20 -103.5 -32t-131.5 -12q-74 0 -133.5 12.5t-101.5 48.5t-65 101.5t-23 171.5t23 171.5t65 101.5t101.5 48.5t133.5 12.5q140 0 225 -40l-33 -103q-29 9 -79 22.5t-111 13.5q-41 0 -76 -6t-60.5 -29t-40 -68.5t-14.5 -123.5q0 -79 14.5 -124.5t40 -68
t60.5 -28.5t76 -6q30 0 60 4.5t56 10.5t48 13t36 12zM237 -156h4q8 -1 17 -1h14q46 0 69 14q17 15 17 32q0 8 -2 14.5t-9 12t-21 9t-38 4.5l18 61h41l-15 -48q44 -5 65 -21.5t21 -37.5q0 -29 -32 -52.5t-95 -23.5q-34 0 -59 3z" />
    <glyph glyph-name="egrave" unicode="&#xe8;" horiz-adv-x="704" 
d="M193 278q3 -59 14.5 -95t34.5 -55.5t58 -26.5t86 -7q30 0 61.5 5.5t60 13t52 15.5l37.5 13l33 -103q-21 -10 -51 -19t-64.5 -16t-71.5 -11.5t-72 -4.5q-75 0 -133 12t-98 47.5t-61 99t-21 167.5q0 108 22.5 175t63 104t96 50t122.5 13q72 0 127.5 -14t93.5 -50.5
t58 -99.5t20 -162v-51h-468zM525 386q-3 52 -14 84t-31 49.5t-49 23.5t-69 6q-35 0 -64.5 -3.5t-52 -19.5t-36 -49t-16.5 -91h332zM376 707l-94 107h86l53 -107h-45z" />
    <glyph glyph-name="eacute" unicode="&#xe9;" horiz-adv-x="566" 
d="M79 0v642h480l-10 -107h-338v-149h263v-107h-263v-171h348l-10 -108h-470zM270 689l53 107h85q-26 -29 -45.5 -53.5l-42.5 -53.5h-50z" />
    <glyph glyph-name="ecircumflex" unicode="&#xea;" horiz-adv-x="704" 
d="M193 278q3 -59 14.5 -95t34.5 -55.5t58 -26.5t86 -7q30 0 61.5 5.5t60 13t52 15.5l37.5 13l33 -103q-21 -10 -51 -19t-64.5 -16t-71.5 -11.5t-72 -4.5q-75 0 -133 12t-98 47.5t-61 99t-21 167.5q0 108 22.5 175t63 104t96 50t122.5 13q72 0 127.5 -14t93.5 -50.5
t58 -99.5t20 -162v-51h-468zM525 386q-3 52 -14 84t-31 49.5t-49 23.5t-69 6q-35 0 -64.5 -3.5t-52 -19.5t-36 -49t-16.5 -91h332zM412 707l-59 84l-59 -84h-72l44 54l44 53h80l91 -107h-69z" />
    <glyph glyph-name="edieresis" unicode="&#xeb;" horiz-adv-x="704" 
d="M193 278q3 -59 14.5 -95t34.5 -55.5t58 -26.5t86 -7q30 0 61.5 5.5t60 13t52 15.5l37.5 13l33 -103q-21 -10 -51 -19t-64.5 -16t-71.5 -11.5t-72 -4.5q-75 0 -133 12t-98 47.5t-61 99t-21 167.5q0 108 22.5 175t63 104t96 50t122.5 13q72 0 127.5 -14t93.5 -50.5
t58 -99.5t20 -162v-51h-468zM525 386q-3 52 -14 84t-31 49.5t-49 23.5t-69 6q-35 0 -64.5 -3.5t-52 -19.5t-36 -49t-16.5 -91h332zM208 723v123h110v-123h-110zM386 723v123h110v-123h-110z" />
    <glyph glyph-name="igrave" unicode="&#xec;" horiz-adv-x="241" 
d="M50 0v642h132v-642h-132zM146 707l-94 107h86l53 -107h-45z" />
    <glyph glyph-name="iacute" unicode="&#xed;" horiz-adv-x="290" 
d="M79 0v642h132v-642h-132zM112 689l53 107h85q-26 -29 -45.5 -53.5l-42.5 -53.5h-50z" />
    <glyph glyph-name="icircumflex" unicode="&#xee;" horiz-adv-x="290" 
d="M79 0v642h132v-642h-132zM212 689l-59 84l-59 -84h-72l44 54l44 53h80l91 -107h-69z" />
    <glyph glyph-name="idieresis" unicode="&#xef;" horiz-adv-x="241" 
d="M50 0v642h132v-642h-132zM-22 741v123h110v-123h-110zM156 741v123h110v-123h-110z" />
    <glyph glyph-name="eth" unicode="&#xf0;" horiz-adv-x="689" 
d="M79 0v268h-77v103h77v271h230q73 0 133 -9.5t102 -42.5t65 -96t23 -169q0 -107 -20.5 -171.5t-60.5 -98.5t-98 -44.5t-134 -10.5h-240zM309 108q53 0 89.5 6.5t58.5 29t31.5 66t9.5 116.5q0 76 -14.5 118.5t-40 62.5t-60.5 24t-76 4h-96v-164h95v-103h-95v-160h98z" />
    <glyph glyph-name="ntilde" unicode="&#xf1;" horiz-adv-x="685" 
d="M466 0l-259 424v-424h-128v642h140l259 -422v422h127v-642h-139zM492 803q-4 -40 -26.5 -62t-56.5 -22q-14 0 -32.5 6.5t-42.5 18.5q-33 18 -51 18q-12 0 -19.5 -3.5t-15.5 -11.5q-5 -5 -8 -12t-4 -18h-43q1 20 7 33.5t17 25.5q26 26 64 26q14 0 33 -6.5t43 -17.5
q30 -15 49 -15t29.5 8t15.5 32h41z" />
    <glyph glyph-name="ograve" unicode="&#xf2;" 
d="M379 549q-38 0 -72 -3.5t-60 -25t-41 -67.5t-15 -131t15 -131t41 -67.5t60 -25t72 -3.5q37 0 71 3.5t60 25t41.5 67.5t15.5 131t-15.5 131t-42 67.5t-60.5 25t-70 3.5zM57 322q0 108 25.5 173.5t69 101t102 47t125.5 11.5t125.5 -11.5t102 -47t69 -101t25.5 -173.5
t-25.5 -173.5t-69 -101t-102 -47t-125.5 -11.5t-125.5 11.5t-102 47t-69 101t-25.5 173.5zM403 707l-94 107h86l53 -107h-45z" />
    <glyph glyph-name="oacute" unicode="&#xf3;" 
d="M379 549q-38 0 -72 -3.5t-60 -25t-41 -67.5t-15 -131t15 -131t41 -67.5t60 -25t72 -3.5q37 0 71 3.5t60 25t41.5 67.5t15.5 131t-15.5 131t-42 67.5t-60.5 25t-70 3.5zM57 322q0 108 25.5 173.5t69 101t102 47t125.5 11.5t125.5 -11.5t102 -47t69 -101t25.5 -173.5
t-25.5 -173.5t-69 -101t-102 -47t-125.5 -11.5t-125.5 11.5t-102 47t-69 101t-25.5 173.5zM310 689l53 107h85q-26 -29 -45.5 -53.5l-42.5 -53.5h-50z" />
    <glyph glyph-name="ocircumflex" unicode="&#xf4;" 
d="M379 549q-38 0 -72 -3.5t-60 -25t-41 -67.5t-15 -131t15 -131t41 -67.5t60 -25t72 -3.5q37 0 71 3.5t60 25t41.5 67.5t15.5 131t-15.5 131t-42 67.5t-60.5 25t-70 3.5zM57 322q0 108 25.5 173.5t69 101t102 47t125.5 11.5t125.5 -11.5t102 -47t69 -101t25.5 -173.5
t-25.5 -173.5t-69 -101t-102 -47t-125.5 -11.5t-125.5 11.5t-102 47t-69 101t-25.5 173.5zM439 689l-59 84l-59 -84h-72l44 54l44 53h80l91 -107h-69z" />
    <glyph glyph-name="otilde" unicode="&#xf5;" 
d="M379 549q-38 0 -72 -3.5t-60 -25t-41 -67.5t-15 -131t15 -131t41 -67.5t60 -25t72 -3.5q37 0 71 3.5t60 25t41.5 67.5t15.5 131t-15.5 131t-42 67.5t-60.5 25t-70 3.5zM57 322q0 108 25.5 173.5t69 101t102 47t125.5 11.5t125.5 -11.5t102 -47t69 -101t25.5 -173.5
t-25.5 -173.5t-69 -101t-102 -47t-125.5 -11.5t-125.5 11.5t-102 47t-69 101t-25.5 173.5zM528 803q-4 -40 -26.5 -62t-56.5 -22q-14 0 -32.5 6.5t-42.5 18.5q-33 18 -51 18q-12 0 -19.5 -3.5t-15.5 -11.5q-5 -5 -8 -12t-4 -18h-43q1 20 7 33.5t17 25.5q26 26 64 26
q14 0 33 -6.5t43 -17.5q30 -15 49 -15t29.5 8t15.5 32h41z" />
    <glyph glyph-name="odieresis" unicode="&#xf6;" 
d="M379 549q-38 0 -72 -3.5t-60 -25t-41 -67.5t-15 -131t15 -131t41 -67.5t60 -25t72 -3.5q37 0 71 3.5t60 25t41.5 67.5t15.5 131t-15.5 131t-42 67.5t-60.5 25t-70 3.5zM57 322q0 108 25.5 173.5t69 101t102 47t125.5 11.5t125.5 -11.5t102 -47t69 -101t25.5 -173.5
t-25.5 -173.5t-69 -101t-102 -47t-125.5 -11.5t-125.5 11.5t-102 47t-69 101t-25.5 173.5zM235 723v123h110v-123h-110zM413 723v123h110v-123h-110z" />
    <glyph glyph-name="divide" unicode="&#xf7;" horiz-adv-x="447" 
d="M185 422v73h77v-73h-77zM3 293v56h441v-56h-441zM185 146v73h77v-73h-77z" />
    <glyph glyph-name="oslash" unicode="&#xf8;" 
d="M655 540q22 -38 34 -91t12 -127q0 -108 -25.5 -173.5t-69 -101t-102 -47t-125.5 -11.5q-69 0 -129.5 12.5t-104.5 51.5l-55 -53l-64 37l75 71q-21 37 -32.5 89.5t-11.5 124.5q0 108 25.5 173.5t69 101t102 47t125.5 11.5q69 0 128 -12t104 -50l51 49l62 -36zM567 322
q0 38 -3.5 68t-9.5 53l-321 -306q13 -16 29.5 -24.5t35 -12.5t39 -4.5t42.5 -0.5q37 0 71 3.5t60 25t41.5 67.5t15.5 131zM379 549q-38 0 -72 -3.5t-60 -25t-41 -67.5t-15 -131q0 -71 11 -118l320 304q-27 30 -64.5 35.5t-78.5 5.5z" />
    <glyph glyph-name="ugrave" unicode="&#xf9;" horiz-adv-x="668" 
d="M483 642h131v-372q0 -75 -10 -128.5t-39 -87t-82 -49.5t-139 -16t-139.5 16t-83 49.5t-40 87t-10.5 128.5v372h131v-371q0 -47 4.5 -80t19.5 -54t43 -30.5t75 -9.5q46 0 74 9.5t42 30.5t18.5 54t4.5 80v371zM358 707l-94 107h86l53 -107h-45z" />
    <glyph glyph-name="uacute" unicode="&#xfa;" horiz-adv-x="668" 
d="M483 642h131v-372q0 -75 -10 -128.5t-39 -87t-82 -49.5t-139 -16t-139.5 16t-83 49.5t-40 87t-10.5 128.5v372h131v-371q0 -47 4.5 -80t19.5 -54t43 -30.5t75 -9.5q46 0 74 9.5t42 30.5t18.5 54t4.5 80v371zM265 689l53 107h85q-26 -29 -45.5 -53.5l-42.5 -53.5h-50z" />
    <glyph glyph-name="ucircumflex" unicode="&#xfb;" horiz-adv-x="668" 
d="M483 642h131v-372q0 -75 -10 -128.5t-39 -87t-82 -49.5t-139 -16t-139.5 16t-83 49.5t-40 87t-10.5 128.5v372h131v-371q0 -47 4.5 -80t19.5 -54t43 -30.5t75 -9.5q46 0 74 9.5t42 30.5t18.5 54t4.5 80v371zM394 707l-59 84l-59 -84h-72l44 54l44 53h80l91 -107h-69z" />
    <glyph glyph-name="udieresis" unicode="&#xfc;" horiz-adv-x="668" 
d="M483 642h131v-372q0 -75 -10 -128.5t-39 -87t-82 -49.5t-139 -16t-139.5 16t-83 49.5t-40 87t-10.5 128.5v372h131v-371q0 -47 4.5 -80t19.5 -54t43 -30.5t75 -9.5q46 0 74 9.5t42 30.5t18.5 54t4.5 80v371zM190 723v123h110v-123h-110zM368 723v123h110v-123h-110z" />
    <glyph glyph-name="yacute" unicode="&#xfd;" horiz-adv-x="618" 
d="M239 0v274l-113 184l-113 184h146l58.5 -97.5l58.5 -97.5q8 -29 16 -64l14 -63l16 60.5l17 66.5l61.5 97.5t66.5 97.5h139l-235 -368v-274h-132zM240 689l53 107h85q-26 -29 -45.5 -53.5l-42.5 -53.5h-50z" />
    <glyph glyph-name="thorn" unicode="&#xfe;" horiz-adv-x="527" 
d="M72 -57v756h132v-58q9 1 18 1h19q60 0 108.5 -10.5t83 -44t53 -97t18.5 -169.5t-18.5 -169.5t-53 -97t-83 -44t-108.5 -10.5q-9 0 -18.5 -0.5t-18.5 0.5v-57h-132zM204 107q8 -1 17 -1h18q27 0 51 4.5t42 25.5t28 64.5t10 120.5q0 76 -10 119t-28 64t-42 26t-51 5h-18.5
t-16.5 -1v-427z" />
    <glyph glyph-name="ydieresis" unicode="&#xff;" horiz-adv-x="618" 
d="M239 0v274l-113 184l-113 184h146l58.5 -97.5l58.5 -97.5q8 -29 16 -64l14 -63l16 60.5l17 66.5l61.5 97.5t66.5 97.5h139l-235 -368v-274h-132zM165 741v123h110v-123h-110zM343 741v123h110v-123h-110z" />
    <glyph glyph-name="Amacron" unicode="&#x100;" horiz-adv-x="657" 
d="M401 642l227 -642h-144l-56 181h-201l-55 -181h-144l227 642h146zM256 274h144l-51 167l-18 101h-6l-18 -101zM191 745v38h275v-38h-275z" />
    <glyph glyph-name="amacron" unicode="&#x101;" horiz-adv-x="703" 
d="M648 -1q-64 7 -94.5 29t-41.5 71q-31 -53 -82.5 -81t-123.5 -28q-57 0 -104.5 9t-81.5 31.5t-53 61t-19 96.5q0 66 19 109t53 68.5t81.5 35.5t104.5 10h158q-3 48 -11.5 75.5t-25.5 41t-44.5 17t-68.5 3.5q-30 0 -59 -4t-54.5 -10t-46.5 -12.5t-35 -11.5l-33 103
q42 20 101 31t129 11q81 0 135.5 -12t87 -47t46.5 -100t14 -171v-16v-112q0 -49 14 -69t46 -25zM465 303h-159q-29 0 -52.5 -3.5t-41 -15.5t-27 -34.5t-9.5 -61.5q0 -30 10 -48t27 -27t41 -12t53 -3q51 0 82 13t48 39t22.5 63.5t5.5 87.5v2zM214 745v38h275v-38h-275z" />
    <glyph glyph-name="Abreve" unicode="&#x102;" horiz-adv-x="657" 
d="M401 642l227 -642h-144l-56 181h-201l-55 -181h-144l227 642h146zM256 274h144l-51 167l-18 101h-6l-18 -101zM466 795q-10 -53 -45.5 -82.5t-92.5 -29.5q-59 0 -94 27.5t-44 84.5h43q17 -69 92 -69q44 0 67 17t32 52h42z" />
    <glyph glyph-name="abreve" unicode="&#x103;" horiz-adv-x="657" 
d="M401 642l227 -642h-144l-56 181h-201l-55 -181h-144l227 642h146zM256 274h144l-51 167l-18 101h-6l-18 -101zM466 795q-10 -53 -45.5 -82.5t-92.5 -29.5q-59 0 -94 27.5t-44 84.5h43q17 -69 92 -69q44 0 67 17t32 52h42z" />
    <glyph glyph-name="Aogonek" unicode="&#x104;" horiz-adv-x="657" 
d="M401 642l227 -642q-23 -12 -34 -37.5t-12 -68.5h44v-75h-72v64q0 29 4 50.5t10 34.5q11 19 27 32h-111l-56 181h-201l-55 -181h-144l227 642h146zM256 274h144l-51 167l-18 101h-6l-18 -101z" />
    <glyph glyph-name="aogonek" unicode="&#x105;" horiz-adv-x="703" 
d="M648 -1q-46 -23 -47 -105h44v-75h-22q-50 0 -50 50v14q0 60 14 85q11 21 31 35q-48 9 -72.5 31t-33.5 65q-31 -53 -82.5 -81t-123.5 -28q-57 0 -104.5 9t-81.5 31.5t-53 61t-19 96.5q0 66 19 109t53 68.5t81.5 35.5t104.5 10h158q-3 48 -11.5 75.5t-25.5 41t-44.5 17
t-68.5 3.5q-30 0 -59 -4t-54.5 -10t-46.5 -12.5t-35 -11.5l-33 103q42 20 101 31t129 11q81 0 135.5 -12t87 -47t46.5 -100t14 -171v-128q0 -49 14 -69t46 -25zM306 303q-29 0 -52.5 -3.5t-41 -15.5t-27 -34.5t-9.5 -61.5q0 -30 10 -48t27 -27t41 -12t53 -3q51 0 82 13
t48 39t22.5 63.5t5.5 87.5z" />
    <glyph glyph-name="Cacute" unicode="&#x106;" horiz-adv-x="650" 
d="M614 31q-42 -20 -103.5 -32t-131.5 -12q-74 0 -133.5 12.5t-101.5 48.5t-65 101.5t-23 171.5t23 171.5t65 101.5t101.5 48.5t133.5 12.5q140 0 225 -40l-33 -103q-29 9 -79 22.5t-111 13.5q-41 0 -76 -6t-60.5 -29t-40 -68.5t-14.5 -123.5q0 -79 14.5 -124.5t40 -68
t60.5 -28.5t76 -6q30 0 60 4.5t56 10.5t48 13t36 12zM316 707l53 107h85q-26 -29 -45.5 -53.5l-42.5 -53.5h-50z" />
    <glyph glyph-name="cacute" unicode="&#x107;" horiz-adv-x="650" 
d="M614 31q-42 -20 -103.5 -32t-131.5 -12q-74 0 -133.5 12.5t-101.5 48.5t-65 101.5t-23 171.5t23 171.5t65 101.5t101.5 48.5t133.5 12.5q140 0 225 -40l-33 -103q-29 9 -79 22.5t-111 13.5q-41 0 -76 -6t-60.5 -29t-40 -68.5t-14.5 -123.5q0 -79 14.5 -124.5t40 -68
t60.5 -28.5t76 -6q30 0 60 4.5t56 10.5t48 13t36 12zM316 707l53 107h85q-26 -29 -45.5 -53.5l-42.5 -53.5h-50z" />
    <glyph glyph-name="Ccircumflex" unicode="&#x108;" horiz-adv-x="650" 
d="M614 31q-42 -20 -103.5 -32t-131.5 -12q-74 0 -133.5 12.5t-101.5 48.5t-65 101.5t-23 171.5t23 171.5t65 101.5t101.5 48.5t133.5 12.5q140 0 225 -40l-33 -103q-29 9 -79 22.5t-111 13.5q-41 0 -76 -6t-60.5 -29t-40 -68.5t-14.5 -123.5q0 -79 14.5 -124.5t40 -68
t60.5 -28.5t76 -6q30 0 60 4.5t56 10.5t48 13t36 12zM434 707l-59 84l-59 -84h-72l44 54l44 53h80l91 -107h-69z" />
    <glyph glyph-name="ccircumflex" unicode="&#x109;" horiz-adv-x="650" 
d="M614 31q-42 -20 -103.5 -32t-131.5 -12q-74 0 -133.5 12.5t-101.5 48.5t-65 101.5t-23 171.5t23 171.5t65 101.5t101.5 48.5t133.5 12.5q140 0 225 -40l-33 -103q-29 9 -79 22.5t-111 13.5q-41 0 -76 -6t-60.5 -29t-40 -68.5t-14.5 -123.5q0 -79 14.5 -124.5t40 -68
t60.5 -28.5t76 -6q30 0 60 4.5t56 10.5t48 13t36 12zM428 707l-59 84l-59 -84h-72l44 54l44 53h80l91 -107h-69z" />
    <glyph glyph-name="Cdotaccent" unicode="&#x10a;" horiz-adv-x="650" 
d="M614 31q-42 -20 -103.5 -32t-131.5 -12q-74 0 -133.5 12.5t-101.5 48.5t-65 101.5t-23 171.5t23 171.5t65 101.5t101.5 48.5t133.5 12.5q140 0 225 -40l-33 -103q-29 9 -79 22.5t-111 13.5q-41 0 -76 -6t-60.5 -29t-40 -68.5t-14.5 -123.5q0 -79 14.5 -124.5t40 -68
t60.5 -28.5t76 -6q30 0 60 4.5t56 10.5t48 13t36 12zM384 737h-118v123h118v-123z" />
    <glyph glyph-name="cdotaccent" unicode="&#x10b;" horiz-adv-x="650" 
d="M614 31q-42 -20 -103.5 -32t-131.5 -12q-74 0 -133.5 12.5t-101.5 48.5t-65 101.5t-23 171.5t23 171.5t65 101.5t101.5 48.5t133.5 12.5q140 0 225 -40l-33 -103q-29 9 -79 22.5t-111 13.5q-41 0 -76 -6t-60.5 -29t-40 -68.5t-14.5 -123.5q0 -79 14.5 -124.5t40 -68
t60.5 -28.5t76 -6q30 0 60 4.5t56 10.5t48 13t36 12zM384 737h-118v123h118v-123z" />
    <glyph glyph-name="Ccaron" unicode="&#x10c;" horiz-adv-x="650" 
d="M614 31q-42 -20 -103.5 -32t-131.5 -12q-74 0 -133.5 12.5t-101.5 48.5t-65 101.5t-23 171.5t23 171.5t65 101.5t101.5 48.5t133.5 12.5q140 0 225 -40l-33 -103q-29 9 -79 22.5t-111 13.5q-41 0 -76 -6t-60.5 -29t-40 -68.5t-14.5 -123.5q0 -79 14.5 -124.5t40 -68
t60.5 -28.5t76 -6q30 0 60 4.5t56 10.5t48 13t36 12zM423 693h-96l-92 102h77l63 -75l63 75h77z" />
    <glyph glyph-name="ccaron" unicode="&#x10d;" horiz-adv-x="650" 
d="M614 31q-42 -20 -103.5 -32t-131.5 -12q-74 0 -133.5 12.5t-101.5 48.5t-65 101.5t-23 171.5t23 171.5t65 101.5t101.5 48.5t133.5 12.5q140 0 225 -40l-33 -103q-29 9 -79 22.5t-111 13.5q-41 0 -76 -6t-60.5 -29t-40 -68.5t-14.5 -123.5q0 -79 14.5 -124.5t40 -68
t60.5 -28.5t76 -6q30 0 60 4.5t56 10.5t48 13t36 12zM423 693h-96l-92 102h77l63 -75l63 75h77z" />
    <glyph glyph-name="Dcaron" unicode="&#x10e;" horiz-adv-x="689" 
d="M79 0v642h230q73 0 133 -9.5t102 -42.5t65 -96t23 -169q0 -107 -20.5 -171.5t-60.5 -98.5t-98 -44.5t-134 -10.5h-240zM309 108q53 0 89.5 6.5t58.5 29t31.5 66t9.5 116.5q0 76 -14.5 118.5t-40 62.5t-60.5 24t-76 4h-96v-427h98zM392 693h-96l-92 102h77l63 -75l63 75
h77z" />
    <glyph glyph-name="dcaron" unicode="&#x10f;" horiz-adv-x="689" 
d="M79 0v642h230q73 0 133 -9.5t102 -42.5t65 -96t23 -169q0 -107 -20.5 -171.5t-60.5 -98.5t-98 -44.5t-134 -10.5h-240zM309 108q53 0 89.5 6.5t58.5 29t31.5 66t9.5 116.5q0 76 -14.5 118.5t-40 62.5t-60.5 24t-76 4h-96v-427h98zM392 693h-96l-92 102h77l63 -75l63 75
h77z" />
    <glyph glyph-name="Dcroat" unicode="&#x110;" horiz-adv-x="689" 
d="M79 0v268h-77v103h77v271h230q73 0 133 -9.5t102 -42.5t65 -96t23 -169q0 -107 -20.5 -171.5t-60.5 -98.5t-98 -44.5t-134 -10.5h-240zM309 108q53 0 89.5 6.5t58.5 29t31.5 66t9.5 116.5q0 76 -14.5 118.5t-40 62.5t-60.5 24t-76 4h-96v-164h95v-103h-95v-160h98z" />
    <glyph glyph-name="dcroat" unicode="&#x111;" horiz-adv-x="689" 
d="M79 0v268h-77v103h77v271h230q73 0 133 -9.5t102 -42.5t65 -96t23 -169q0 -107 -20.5 -171.5t-60.5 -98.5t-98 -44.5t-134 -10.5h-240zM309 108q53 0 89.5 6.5t58.5 29t31.5 66t9.5 116.5q0 76 -14.5 118.5t-40 62.5t-60.5 24t-76 4h-96v-164h95v-103h-95v-160h98z" />
    <glyph glyph-name="Emacron" unicode="&#x112;" horiz-adv-x="566" 
d="M79 0v642h480l-10 -107h-338v-149h263v-107h-263v-171h348l-10 -108h-470zM145 745v38h275v-38h-275z" />
    <glyph glyph-name="emacron" unicode="&#x113;" horiz-adv-x="704" 
d="M193 278q3 -59 14.5 -95t34.5 -55.5t58 -26.5t86 -7q30 0 61.5 5.5t60 13t52 15.5l37.5 13l33 -103q-21 -10 -51 -19t-64.5 -16t-71.5 -11.5t-72 -4.5q-75 0 -133 12t-98 47.5t-61 99t-21 167.5q0 108 22.5 175t63 104t96 50t122.5 13q72 0 127.5 -14t93.5 -50.5
t58 -99.5t20 -162v-51h-468zM525 386q-3 52 -14 84t-31 49.5t-49 23.5t-69 6q-35 0 -64.5 -3.5t-52 -19.5t-36 -49t-16.5 -91h332zM214 745v38h275v-38h-275z" />
    <glyph glyph-name="Ebreve" unicode="&#x114;" horiz-adv-x="566" 
d="M79 0v642h480l-10 -107h-338v-149h263v-107h-263v-171h348l-10 -108h-470zM421 819q-10 -53 -45.5 -82.5t-92.5 -29.5q-59 0 -94 27.5t-44 84.5h43q17 -69 92 -69q44 0 67 17t32 52h42z" />
    <glyph glyph-name="ebreve" unicode="&#x115;" horiz-adv-x="704" 
d="M193 278q3 -59 14.5 -95t34.5 -55.5t58 -26.5t86 -7q30 0 61.5 5.5t60 13t52 15.5l37.5 13l33 -103q-21 -10 -51 -19t-64.5 -16t-71.5 -11.5t-72 -4.5q-75 0 -133 12t-98 47.5t-61 99t-21 167.5q0 108 22.5 175t63 104t96 50t122.5 13q72 0 127.5 -14t93.5 -50.5
t58 -99.5t20 -162v-51h-468zM525 386q-3 52 -14 84t-31 49.5t-49 23.5t-69 6q-35 0 -64.5 -3.5t-52 -19.5t-36 -49t-16.5 -91h332zM490 819q-10 -53 -45.5 -82.5t-92.5 -29.5q-59 0 -94 27.5t-44 84.5h43q17 -69 92 -69q44 0 67 17t32 52h42z" />
    <glyph glyph-name="Edotaccent" unicode="&#x116;" horiz-adv-x="566" 
d="M79 0v642h480l-10 -107h-338v-149h263v-107h-263v-171h348l-10 -108h-470zM342 737h-118v123h118v-123z" />
    <glyph glyph-name="edotaccent" unicode="&#x117;" horiz-adv-x="704" 
d="M193 278q3 -59 14.5 -95t34.5 -55.5t58 -26.5t86 -7q30 0 61.5 5.5t60 13t52 15.5l37.5 13l33 -103q-21 -10 -51 -19t-64.5 -16t-71.5 -11.5t-72 -4.5q-75 0 -133 12t-98 47.5t-61 99t-21 167.5q0 108 22.5 175t63 104t96 50t122.5 13q72 0 127.5 -14t93.5 -50.5
t58 -99.5t20 -162v-51h-468zM525 386q-3 52 -14 84t-31 49.5t-49 23.5t-69 6q-35 0 -64.5 -3.5t-52 -19.5t-36 -49t-16.5 -91h332zM411 737h-118v123h118v-123z" />
    <glyph glyph-name="Eogonek" unicode="&#x118;" horiz-adv-x="566" 
d="M549 0q-26 -12 -37 -37.5t-12 -67.5h44v-75h-72v64q0 29 4 50.5t10 34.5q10 18 25 31h-432v642h480l-10 -107h-338v-149h263v-107h-263v-171h348l-10 -108v0z" />
    <glyph glyph-name="eogonek" unicode="&#x119;" horiz-adv-x="704" 
d="M630 38q-26 -17 -36 -41.5t-11 -63.5h44v-75h-72v64q0 29 4 50.5t10 34.5l7 11q-44 -14 -99 -22.5t-106 -8.5q-75 0 -133 12t-98 47.5t-61 99t-21 167.5q0 108 22.5 175t63 104t96 50t122.5 13q72 0 127.5 -14t93.5 -50.5t58 -99.5t20 -162v-51h-468q3 -59 14.5 -95
t34.5 -55.5t58 -26.5t86 -7q30 0 61.5 5.5t60 13t52 15.5l37.5 13zM525 386q-3 52 -14 84t-31 49.5t-49 23.5t-69 6q-35 0 -64.5 -3.5t-52 -19.5t-36 -49t-16.5 -91h332z" />
    <glyph glyph-name="Ecaron" unicode="&#x11a;" horiz-adv-x="566" 
d="M79 0v642h480l-10 -107h-338v-149h263v-107h-263v-171h348l-10 -108h-470zM378 693h-96l-92 102h77l63 -75l63 75h77z" />
    <glyph glyph-name="ecaron" unicode="&#x11b;" horiz-adv-x="704" 
d="M193 278q3 -59 14.5 -95t34.5 -55.5t58 -26.5t86 -7q30 0 61.5 5.5t60 13t52 15.5l37.5 13l33 -103q-21 -10 -51 -19t-64.5 -16t-71.5 -11.5t-72 -4.5q-75 0 -133 12t-98 47.5t-61 99t-21 167.5q0 108 22.5 175t63 104t96 50t122.5 13q72 0 127.5 -14t93.5 -50.5
t58 -99.5t20 -162v-51h-468zM525 386q-3 52 -14 84t-31 49.5t-49 23.5t-69 6q-35 0 -64.5 -3.5t-52 -19.5t-36 -49t-16.5 -91h332zM400 693h-96l-92 102h77l63 -75l63 75h77z" />
    <glyph glyph-name="Gcircumflex" unicode="&#x11c;" horiz-adv-x="672" 
d="M500 279h-145l10 107h263v-341q-20 -12 -49.5 -22t-64 -17.5t-72 -11.5t-73.5 -4q-76 0 -134.5 12t-98 48t-60 102t-20.5 173q0 106 23 171t65 100t101.5 47t133.5 12q70 0 129 -11t101 -31l-33 -103q-14 5 -35 11.5t-46.5 12.5t-54.5 10t-59 4q-41 0 -76 -5.5
t-60.5 -27.5t-40 -66.5t-14.5 -122.5q0 -73 10 -118t32.5 -69.5t59.5 -33t92 -8.5q31 0 63.5 5.5t52.5 12.5v164zM396 707l-59 84l-59 -84h-72l44 54l44 53h80l91 -107h-69z" />
    <glyph glyph-name="gcircumflex" unicode="&#x11d;" horiz-adv-x="672" 
d="M500 279h-145l10 107h263v-341q-20 -12 -49.5 -22t-64 -17.5t-72 -11.5t-73.5 -4q-76 0 -134.5 12t-98 48t-60 102t-20.5 173q0 106 23 171t65 100t101.5 47t133.5 12q70 0 129 -11t101 -31l-33 -103q-14 5 -35 11.5t-46.5 12.5t-54.5 10t-59 4q-41 0 -76 -5.5
t-60.5 -27.5t-40 -66.5t-14.5 -122.5q0 -73 10 -118t32.5 -69.5t59.5 -33t92 -8.5q31 0 63.5 5.5t52.5 12.5v164zM396 707l-59 84l-59 -84h-72l44 54l44 53h80l91 -107h-69z" />
    <glyph glyph-name="Gbreve" unicode="&#x11e;" horiz-adv-x="672" 
d="M500 279h-145l10 107h263v-341q-20 -12 -49.5 -22t-64 -17.5t-72 -11.5t-73.5 -4q-76 0 -134.5 12t-98 48t-60 102t-20.5 173q0 106 23 171t65 100t101.5 47t133.5 12q70 0 129 -11t101 -31l-33 -103q-14 5 -35 11.5t-46.5 12.5t-54.5 10t-59 4q-41 0 -76 -5.5
t-60.5 -27.5t-40 -66.5t-14.5 -122.5q0 -73 10 -118t32.5 -69.5t59.5 -33t92 -8.5q31 0 63.5 5.5t52.5 12.5v164zM474 819q-10 -53 -45.5 -82.5t-92.5 -29.5q-59 0 -94 27.5t-44 84.5h43q17 -69 92 -69q44 0 67 17t32 52h42z" />
    <glyph glyph-name="gbreve" unicode="&#x11f;" horiz-adv-x="672" 
d="M500 279h-145l10 107h263v-341q-20 -12 -49.5 -22t-64 -17.5t-72 -11.5t-73.5 -4q-76 0 -134.5 12t-98 48t-60 102t-20.5 173q0 106 23 171t65 100t101.5 47t133.5 12q70 0 129 -11t101 -31l-33 -103q-14 5 -35 11.5t-46.5 12.5t-54.5 10t-59 4q-41 0 -76 -5.5
t-60.5 -27.5t-40 -66.5t-14.5 -122.5q0 -73 10 -118t32.5 -69.5t59.5 -33t92 -8.5q31 0 63.5 5.5t52.5 12.5v164zM474 819q-10 -53 -45.5 -82.5t-92.5 -29.5q-59 0 -94 27.5t-44 84.5h43q17 -69 92 -69q44 0 67 17t32 52h42z" />
    <glyph glyph-name="Gdotaccent" unicode="&#x120;" horiz-adv-x="672" 
d="M500 279h-145l10 107h263v-341q-20 -12 -49.5 -22t-64 -17.5t-72 -11.5t-73.5 -4q-76 0 -134.5 12t-98 48t-60 102t-20.5 173q0 106 23 171t65 100t101.5 47t133.5 12q70 0 129 -11t101 -31l-33 -103q-14 5 -35 11.5t-46.5 12.5t-54.5 10t-59 4q-41 0 -76 -5.5
t-60.5 -27.5t-40 -66.5t-14.5 -122.5q0 -73 10 -118t32.5 -69.5t59.5 -33t92 -8.5q31 0 63.5 5.5t52.5 12.5v164zM395 737h-118v123h118v-123z" />
    <glyph glyph-name="gdotaccent" unicode="&#x121;" horiz-adv-x="672" 
d="M500 279h-145l10 107h263v-341q-20 -12 -49.5 -22t-64 -17.5t-72 -11.5t-73.5 -4q-76 0 -134.5 12t-98 48t-60 102t-20.5 173q0 106 23 171t65 100t101.5 47t133.5 12q70 0 129 -11t101 -31l-33 -103q-14 5 -35 11.5t-46.5 12.5t-54.5 10t-59 4q-41 0 -76 -5.5
t-60.5 -27.5t-40 -66.5t-14.5 -122.5q0 -73 10 -118t32.5 -69.5t59.5 -33t92 -8.5q31 0 63.5 5.5t52.5 12.5v164zM395 737h-118v123h118v-123z" />
    <glyph glyph-name="uni0122" unicode="&#x122;" horiz-adv-x="672" 
d="M500 279h-145l10 107h263v-341q-20 -12 -49.5 -22t-64 -17.5t-72 -11.5t-73.5 -4q-76 0 -134.5 12t-98 48t-60 102t-20.5 173q0 106 23 171t65 100t101.5 47t133.5 12q70 0 129 -11t101 -31l-33 -103q-14 5 -35 11.5t-46.5 12.5t-54.5 10t-59 4q-41 0 -76 -5.5
t-60.5 -27.5t-40 -66.5t-14.5 -122.5q0 -73 10 -118t32.5 -69.5t59.5 -33t92 -8.5q31 0 63.5 5.5t52.5 12.5v164zM315 -225q26 11 37.5 33t14.5 61h-50v123h117v-133q0 -45 -21 -74.5t-65 -46.5z" />
    <glyph glyph-name="uni0123" unicode="&#x123;" horiz-adv-x="672" 
d="M500 279h-145l10 107h263v-341q-20 -12 -49.5 -22t-64 -17.5t-72 -11.5t-73.5 -4q-76 0 -134.5 12t-98 48t-60 102t-20.5 173q0 106 23 171t65 100t101.5 47t133.5 12q70 0 129 -11t101 -31l-33 -103q-14 5 -35 11.5t-46.5 12.5t-54.5 10t-59 4q-41 0 -76 -5.5
t-60.5 -27.5t-40 -66.5t-14.5 -122.5q0 -73 10 -118t32.5 -69.5t59.5 -33t92 -8.5q31 0 63.5 5.5t52.5 12.5v164zM315 -225q26 11 37.5 33t14.5 61h-50v123h117v-133q0 -45 -21 -74.5t-65 -46.5z" />
    <glyph glyph-name="Hcircumflex" unicode="&#x124;" horiz-adv-x="681" 
d="M470 0v287h-260v-287h-131v642h131v-246h260v246h131v-642h-131zM401 707l-59 84l-59 -84h-72l44 54l44 53h80l91 -107h-69z" />
    <glyph glyph-name="hcircumflex" unicode="&#x125;" horiz-adv-x="681" 
d="M470 0v287h-260v-287h-131v642h131v-246h260v246h131v-642h-131zM401 707l-59 84l-59 -84h-72l44 54l44 53h80l91 -107h-69z" />
    <glyph glyph-name="Hbar" unicode="&#x126;" horiz-adv-x="681" 
d="M470 0v287h-260v-287h-131v493h-79v38h79v111h131v-111h260v111h131v-111h81v-38h-81v-493h-131zM470 396v97h-260v-97h260z" />
    <glyph glyph-name="hbar" unicode="&#x127;" horiz-adv-x="681" 
d="M470 0v287h-260v-287h-131v493h-79v38h79v111h131v-111h260v111h131v-111h81v-38h-81v-493h-131zM470 396v97h-260v-97h260z" />
    <glyph glyph-name="Itilde" unicode="&#x128;" horiz-adv-x="241" 
d="M50 0v642h132v-642h-132zM271 803q-4 -40 -26.5 -62t-56.5 -22q-14 0 -32.5 6.5t-42.5 18.5q-33 18 -51 18q-12 0 -19.5 -3.5t-15.5 -11.5q-5 -5 -8 -12t-4 -18h-43q1 20 7 33.5t17 25.5q26 26 64 26q14 0 33 -6.5t43 -17.5q30 -15 49 -15t29.5 8t15.5 32h41z" />
    <glyph glyph-name="itilde" unicode="&#x129;" horiz-adv-x="241" 
d="M50 0v642h132v-642h-132zM271 803q-4 -40 -26.5 -62t-56.5 -22q-14 0 -32.5 6.5t-42.5 18.5q-33 18 -51 18q-12 0 -19.5 -3.5t-15.5 -11.5q-5 -5 -8 -12t-4 -18h-43q1 20 7 33.5t17 25.5q26 26 64 26q14 0 33 -6.5t43 -17.5q30 -15 49 -15t29.5 8t15.5 32h41z" />
    <glyph glyph-name="Imacron" unicode="&#x12a;" horiz-adv-x="241" 
d="M50 0v642h132v-642h-132zM-16 745v38h275v-38h-275z" />
    <glyph glyph-name="imacron" unicode="&#x12b;" horiz-adv-x="241" 
d="M50 0v642h132v-642h-132zM-16 745v38h275v-38h-275z" />
    <glyph glyph-name="Ibreve" unicode="&#x12c;" horiz-adv-x="241" 
d="M50 0v642h132v-642h-132zM260 819q-10 -53 -45.5 -82.5t-92.5 -29.5q-59 0 -94 27.5t-44 84.5h43q17 -69 92 -69q44 0 67 17t32 52h42z" />
    <glyph glyph-name="ibreve" unicode="&#x12d;" horiz-adv-x="241" 
d="M50 0v642h132v-642h-132zM260 795q-10 -53 -45.5 -82.5t-92.5 -29.5q-59 0 -94 27.5t-44 84.5h43q17 -69 92 -69q44 0 67 17t32 52h42z" />
    <glyph glyph-name="Iogonek" unicode="&#x12e;" horiz-adv-x="289" 
d="M276 -151q-13 -2 -28.5 -2.5t-30.5 -0.5q-62 0 -94.5 23.5t-32.5 52.5q0 21 21 37.5t65 21.5l-6 19h-92v642h132v-640l10 -34q-24 -1 -38 -4.5t-21 -9t-9 -12t-2 -14.5q0 -17 17 -32q23 -14 69 -14h14t17 1h4z" />
    <glyph glyph-name="iogonek" unicode="&#x12f;" horiz-adv-x="289" 
d="M276 -151q-13 -2 -28.5 -2.5t-30.5 -0.5q-62 0 -94.5 23.5t-32.5 52.5q0 21 21 37.5t65 21.5l-6 19h-92v642h132v-640l10 -34q-24 -1 -38 -4.5t-21 -9t-9 -12t-2 -14.5q0 -17 17 -32q23 -14 69 -14h14t17 1h4z" />
    <glyph glyph-name="Idotaccent" unicode="&#x130;" horiz-adv-x="241" 
d="M50 0v642h132v-642h-132zM179 737h-118v123h118v-123z" />
    <glyph glyph-name="dotlessi" unicode="&#x131;" horiz-adv-x="290" 
d="M79 0v642h132v-642h-132z" />
    <glyph glyph-name="IJ" unicode="&#x132;" horiz-adv-x="563" 
d="M50 0v642h132v-642h-132zM247 98q31 0 52.5 2t35 11.5t19.5 29.5t6 56v445h131v-441q0 -66 -12.5 -106.5t-41.5 -62.5t-77 -29.5t-119 -7.5z" />
    <glyph glyph-name="ij" unicode="&#x133;" horiz-adv-x="573" 
d="M50 0v642h132v-642h-132zM257 98q31 0 52.5 2t35 11.5t19.5 29.5t6 56v445h131v-441q0 -66 -12.5 -106.5t-41.5 -62.5t-77 -29.5t-119 -7.5z" />
    <glyph glyph-name="Jcircumflex" unicode="&#x134;" horiz-adv-x="322" 
d="M6 98q31 0 52.5 2t35 11.5t19.5 29.5t6 56v445h131v-441q0 -66 -12.5 -106.5t-41.5 -62.5t-77 -29.5t-119 -7.5zM274 707l-59 84l-59 -84h-72l44 54l44 53h80l91 -107h-69z" />
    <glyph glyph-name="jcircumflex" unicode="&#x135;" horiz-adv-x="322" 
d="M6 98q31 0 52.5 2t35 11.5t19.5 29.5t6 56v445h131v-441q0 -66 -12.5 -106.5t-41.5 -62.5t-77 -29.5t-119 -7.5zM277 707l-59 84l-59 -84h-72l44 54l44 53h80l91 -107h-69z" />
    <glyph glyph-name="uni0136" unicode="&#x136;" horiz-adv-x="675" 
d="M269 267h-59v-267h-131v642h131v-268h59l197 268h154l-122.5 -160.5l-123.5 -160.5l123.5 -161l122.5 -160h-154zM278 -246q26 11 37.5 33t14.5 61h-50v123h117v-133q0 -45 -21 -74.5t-65 -46.5z" />
    <glyph glyph-name="uni0137" unicode="&#x137;" horiz-adv-x="680" 
d="M261 267h-57v-267h-131v642h131v-268h57l204 268h149l-122.5 -160.5l-123.5 -160.5l182 -216q7 -6 18 -9t23 -3.5t24 0t23 0.5l-11 -93q-31 -3 -59 -3.5t-54.5 8.5t-53.5 29.5t-56 58.5zM278 -246q26 11 37.5 33t14.5 61h-50v123h117v-133q0 -45 -21 -74.5t-65 -46.5z
" />
    <glyph glyph-name="kgreenlandic" unicode="&#x138;" horiz-adv-x="680" 
d="M261 267h-57v-267h-131v642h131v-268h57l204 268h149l-122.5 -160.5l-123.5 -160.5l182 -216q7 -6 18 -9t23 -3.5t24 0t23 0.5l-11 -93q-31 -3 -59 -3.5t-54.5 8.5t-53.5 29.5t-56 58.5z" />
    <glyph glyph-name="Lacute" unicode="&#x139;" horiz-adv-x="532" 
d="M79 0v642h131v-534h322l-10 -108h-443zM80 689l53 107h85q-26 -29 -45.5 -53.5l-42.5 -53.5h-50z" />
    <glyph glyph-name="lacute" unicode="&#x13a;" horiz-adv-x="532" 
d="M79 0v642h131v-534h322l-10 -108h-443zM80 689l53 107h85q-26 -29 -45.5 -53.5l-42.5 -53.5h-50z" />
    <glyph glyph-name="uni013B" unicode="&#x13b;" horiz-adv-x="532" 
d="M79 0v642h131v-534h322l-10 -108h-443zM207 -246q26 11 37.5 33t14.5 61h-50v123h117v-133q0 -45 -21 -74.5t-65 -46.5z" />
    <glyph glyph-name="uni013C" unicode="&#x13c;" horiz-adv-x="532" 
d="M79 0v642h131v-534h322l-10 -108h-443zM278 -246q26 11 37.5 33t14.5 61h-50v123h117v-133q0 -45 -21 -74.5t-65 -46.5z" />
    <glyph glyph-name="Lcaron" unicode="&#x13d;" horiz-adv-x="532" 
d="M79 0v642h131v-534h322l-10 -108h-443zM366 440q26 11 37.5 33t14.5 61h-50v123h117v-133q0 -45 -21 -74.5t-65 -46.5z" />
    <glyph glyph-name="lcaron" unicode="&#x13e;" horiz-adv-x="532" 
d="M79 0v642h131v-534h322l-10 -108h-443zM366 440q26 11 37.5 33t14.5 61h-50v123h117v-133q0 -45 -21 -74.5t-65 -46.5z" />
    <glyph glyph-name="Ldot" unicode="&#x13f;" horiz-adv-x="532" 
d="M79 0v642h131v-534h322l-10 -108h-443zM327 292v73h77v-73h-77z" />
    <glyph glyph-name="ldot" unicode="&#x140;" horiz-adv-x="532" 
d="M79 0v642h131v-534h322l-10 -108h-443zM327 292v73h77v-73h-77z" />
    <glyph glyph-name="Lslash" unicode="&#x141;" horiz-adv-x="532" 
d="M79 0v198l-81 -56l-16 73l97 68v359h131v-268l127 89l15 -75l-142 -99v-181h322l-10 -108h-443z" />
    <glyph glyph-name="lslash" unicode="&#x142;" horiz-adv-x="532" 
d="M79 0v198l-81 -56l-16 73l97 68v359h131v-268l127 89l15 -75l-142 -99v-181h322l-10 -108h-443z" />
    <glyph glyph-name="Nacute" unicode="&#x143;" horiz-adv-x="685" 
d="M466 0l-259 424v-424h-128v642h140l259 -422v422h127v-642h-139zM273 689l53 107h85q-26 -29 -45.5 -53.5l-42.5 -53.5h-50z" />
    <glyph glyph-name="nacute" unicode="&#x144;" horiz-adv-x="685" 
d="M466 0l-259 424v-424h-128v642h140l259 -422v422h127v-642h-139zM273 689l53 107h85q-26 -29 -45.5 -53.5l-42.5 -53.5h-50z" />
    <glyph glyph-name="uni0145" unicode="&#x145;" horiz-adv-x="685" 
d="M466 0l-259 424v-424h-128v642h140l259 -422v422h127v-642h-139zM283 -246q26 11 37.5 33t14.5 61h-50v123h117v-133q0 -45 -21 -74.5t-65 -46.5z" />
    <glyph glyph-name="uni0146" unicode="&#x146;" horiz-adv-x="685" 
d="M466 0l-259 424v-424h-128v642h140l259 -422v422h127v-642h-139zM283 -246q26 11 37.5 33t14.5 61h-50v123h117v-133q0 -45 -21 -74.5t-65 -46.5z" />
    <glyph glyph-name="Ncaron" unicode="&#x147;" horiz-adv-x="685" 
d="M466 0l-259 424v-424h-128v642h140l259 -422v422h127v-642h-139zM390 693h-96l-92 102h77l63 -75l63 75h77z" />
    <glyph glyph-name="ncaron" unicode="&#x148;" horiz-adv-x="685" 
d="M466 0l-259 424v-424h-128v642h140l259 -422v422h127v-642h-139zM390 693h-96l-92 102h77l63 -75l63 75h77z" />
    <glyph glyph-name="napostrophe" unicode="&#x149;" horiz-adv-x="685" 
d="M466 0l-259 424v-424h-128v642h140l259 -422v422h127v-642h-139zM-19 678q26 11 37.5 33t14.5 61h-50v123h117v-133q0 -45 -21 -74.5t-65 -46.5z" />
    <glyph glyph-name="Eng" unicode="&#x14a;" horiz-adv-x="685" 
d="M605 0q0 -49 -15.5 -79.5t-46.5 -47t-78 -22t-110 -5.5l6 93q25 0 50 2.5t42 9.5t22 19t-9 30l-259 424v-424h-128v642h140l259 -422v422h127v-642v0z" />
    <glyph glyph-name="eng" unicode="&#x14b;" horiz-adv-x="685" 
d="M605 0q0 -49 -15.5 -79.5t-46.5 -47t-78 -22t-110 -5.5l6 93q25 0 50 2.5t42 9.5t22 19t-9 30l-259 424v-424h-128v642h140l259 -422v422h127v-642v0z" />
    <glyph glyph-name="Omacron" unicode="&#x14c;" 
d="M379 549q-38 0 -72 -3.5t-60 -25t-41 -67.5t-15 -131t15 -131t41 -67.5t60 -25t72 -3.5q37 0 71 3.5t60 25t41.5 67.5t15.5 131t-15.5 131t-42 67.5t-60.5 25t-70 3.5zM57 322q0 108 25.5 173.5t69 101t102 47t125.5 11.5t125.5 -11.5t102 -47t69 -101t25.5 -173.5
t-25.5 -173.5t-69 -101t-102 -47t-125.5 -11.5t-125.5 11.5t-102 47t-69 101t-25.5 173.5zM241 745v38h275v-38h-275z" />
    <glyph glyph-name="omacron" unicode="&#x14d;" 
d="M379 549q-38 0 -72 -3.5t-60 -25t-41 -67.5t-15 -131t15 -131t41 -67.5t60 -25t72 -3.5q37 0 71 3.5t60 25t41.5 67.5t15.5 131t-15.5 131t-42 67.5t-60.5 25t-70 3.5zM57 322q0 108 25.5 173.5t69 101t102 47t125.5 11.5t125.5 -11.5t102 -47t69 -101t25.5 -173.5
t-25.5 -173.5t-69 -101t-102 -47t-125.5 -11.5t-125.5 11.5t-102 47t-69 101t-25.5 173.5zM241 745v38h275v-38h-275z" />
    <glyph glyph-name="Obreve" unicode="&#x14e;" 
d="M379 549q-38 0 -72 -3.5t-60 -25t-41 -67.5t-15 -131t15 -131t41 -67.5t60 -25t72 -3.5q37 0 71 3.5t60 25t41.5 67.5t15.5 131t-15.5 131t-42 67.5t-60.5 25t-70 3.5zM57 322q0 108 25.5 173.5t69 101t102 47t125.5 11.5t125.5 -11.5t102 -47t69 -101t25.5 -173.5
t-25.5 -173.5t-69 -101t-102 -47t-125.5 -11.5t-125.5 11.5t-102 47t-69 101t-25.5 173.5zM517 819q-10 -53 -45.5 -82.5t-92.5 -29.5q-59 0 -94 27.5t-44 84.5h43q17 -69 92 -69q44 0 67 17t32 52h42z" />
    <glyph glyph-name="obreve" unicode="&#x14f;" 
d="M379 549q-38 0 -72 -3.5t-60 -25t-41 -67.5t-15 -131t15 -131t41 -67.5t60 -25t72 -3.5q37 0 71 3.5t60 25t41.5 67.5t15.5 131t-15.5 131t-42 67.5t-60.5 25t-70 3.5zM57 322q0 108 25.5 173.5t69 101t102 47t125.5 11.5t125.5 -11.5t102 -47t69 -101t25.5 -173.5
t-25.5 -173.5t-69 -101t-102 -47t-125.5 -11.5t-125.5 11.5t-102 47t-69 101t-25.5 173.5zM517 819q-10 -53 -45.5 -82.5t-92.5 -29.5q-59 0 -94 27.5t-44 84.5h43q17 -69 92 -69q44 0 67 17t32 52h42z" />
    <glyph glyph-name="Ohungarumlaut" unicode="&#x150;" 
d="M379 549q-38 0 -72 -3.5t-60 -25t-41 -67.5t-15 -131t15 -131t41 -67.5t60 -25t72 -3.5q37 0 71 3.5t60 25t41.5 67.5t15.5 131t-15.5 131t-42 67.5t-60.5 25t-70 3.5zM57 322q0 108 25.5 173.5t69 101t102 47t125.5 11.5t125.5 -11.5t102 -47t69 -101t25.5 -173.5
t-25.5 -173.5t-69 -101t-102 -47t-125.5 -11.5t-125.5 11.5t-102 47t-69 101t-25.5 173.5zM223 707l53 107h85q-26 -29 -45.5 -53.5l-42.5 -53.5h-50zM397 707l53 107h85q-26 -29 -45.5 -53.5l-42.5 -53.5h-50z" />
    <glyph glyph-name="ohungarumlaut" unicode="&#x151;" 
d="M379 549q-38 0 -72 -3.5t-60 -25t-41 -67.5t-15 -131t15 -131t41 -67.5t60 -25t72 -3.5q37 0 71 3.5t60 25t41.5 67.5t15.5 131t-15.5 131t-42 67.5t-60.5 25t-70 3.5zM57 322q0 108 25.5 173.5t69 101t102 47t125.5 11.5t125.5 -11.5t102 -47t69 -101t25.5 -173.5
t-25.5 -173.5t-69 -101t-102 -47t-125.5 -11.5t-125.5 11.5t-102 47t-69 101t-25.5 173.5zM223 707l53 107h85q-26 -29 -45.5 -53.5l-42.5 -53.5h-50zM397 707l53 107h85q-26 -29 -45.5 -53.5l-42.5 -53.5h-50z" />
    <glyph glyph-name="OE" unicode="&#x152;" horiz-adv-x="1167" 
d="M600 0v70q-20 -25 -44.5 -40.5t-52.5 -24.5t-59.5 -12.5t-64.5 -3.5q-67 0 -125.5 11.5t-102 47t-69 101t-25.5 173.5t25.5 173.5t69 101t102 47t125.5 11.5t124 -16t97 -65v68h510l-10 -107h-368v-154h293v-97h-293v-176h378l-10 -108h-500zM379 95q43 0 82.5 3.5
t69.5 25t48 67.5t18 131t-18.5 131t-48.5 67.5t-69.5 25t-81.5 3.5q-38 0 -72 -3.5t-60 -25t-41 -67.5t-15 -131t15 -131t41 -67.5t60 -25t72 -3.5z" />
    <glyph glyph-name="oe" unicode="&#x153;" horiz-adv-x="1286" 
d="M1198 38q-21 -10 -51 -19t-64.5 -16t-71.5 -11.5t-72 -4.5q-51 0 -94.5 5t-78.5 19t-62 38.5t-45 62.5q-21 -38 -50.5 -62t-65.5 -37.5t-77.5 -18.5t-86.5 -5q-67 0 -125.5 11.5t-102 47t-69 101t-25.5 173.5t25.5 173.5t69 101t102 47t125.5 11.5q46 0 88.5 -5
t79.5 -19.5t66.5 -40t49.5 -65.5q19 39 46 64.5t61 40t74.5 20t85.5 5.5q72 0 127.5 -14t93.5 -50.5t58 -99.5t20 -162v-46h-509v-10q2 -57 15.5 -92t41 -54.5t71 -26t106.5 -6.5q30 0 61.5 5.5t60 13t52 15.5l37.5 13zM596 348q-3 75 -22 116t-49 59.5t-68 22t-78 3.5
q-38 0 -72 -3.5t-60 -25t-41 -67.5t-15 -131t15 -131t41 -67.5t60 -25t72 -3.5q40 0 78 3t67.5 21t49 57t22.5 111v61zM1093 381q-3 54 -14 87t-31 51t-49 24t-69 6q-42 0 -78.5 -4t-64.5 -20.5t-45 -50t-21 -93.5h372z" />
    <glyph glyph-name="Racute" unicode="&#x154;" horiz-adv-x="669" 
d="M467 0l-170 231h-86v-231h-132v642h260q71 0 119 -7.5t77 -29.5t41.5 -62.5t12.5 -106.5q0 -53 -7.5 -89t-25 -59t-46 -35.5t-70.5 -17.5l178 -235h-151zM341 338q31 0 52.5 2t35 12t19.5 29.5t6 54.5q0 36 -6 56t-19.5 29.5t-35 11.5t-52.5 2h-130v-197h130zM265 689
l53 107h85q-26 -29 -45.5 -53.5l-42.5 -53.5h-50z" />
    <glyph glyph-name="racute" unicode="&#x155;" horiz-adv-x="669" 
d="M467 0l-170 231h-86v-231h-132v642h260q71 0 119 -7.5t77 -29.5t41.5 -62.5t12.5 -106.5q0 -53 -7.5 -89t-25 -59t-46 -35.5t-70.5 -17.5l178 -235h-151zM341 338q31 0 52.5 2t35 12t19.5 29.5t6 54.5q0 36 -6 56t-19.5 29.5t-35 11.5t-52.5 2h-130v-197h130zM265 689
l53 107h85q-26 -29 -45.5 -53.5l-42.5 -53.5h-50z" />
    <glyph glyph-name="uni0156" unicode="&#x156;" horiz-adv-x="669" 
d="M467 0l-170 231h-86v-231h-132v642h260q71 0 119 -7.5t77 -29.5t41.5 -62.5t12.5 -106.5q0 -53 -7.5 -89t-25 -59t-46 -35.5t-70.5 -17.5l178 -235h-151zM341 338q31 0 52.5 2t35 12t19.5 29.5t6 54.5q0 36 -6 56t-19.5 29.5t-35 11.5t-52.5 2h-130v-197h130zM278 -225
q26 11 37.5 33t14.5 61h-50v123h117v-133q0 -45 -21 -74.5t-65 -46.5z" />
    <glyph glyph-name="uni0157" unicode="&#x157;" horiz-adv-x="681" 
d="M79 0v642h259q71 0 119 -7.5t77 -29.5t41.5 -62.5t12.5 -106.5q0 -53 -7.5 -88.5t-25 -59t-46 -35.5t-69.5 -17l110 -131q6 -7 16.5 -10t23 -3.5t25 0.5t23.5 1l-11 -93q-31 -3 -58.5 -3t-53.5 9t-53 29.5t-58 57.5l-114 138h-79v-231h-132zM453 439q0 34 -6 53.5t-19 29
t-35 11.5t-53 2h-129v-197h129q31 0 53 2t35 11.5t19 28.5t6 53v6zM278 -225q26 11 37.5 33t14.5 61h-50v123h117v-133q0 -45 -21 -74.5t-65 -46.5z" />
    <glyph glyph-name="Rcaron" unicode="&#x158;" horiz-adv-x="669" 
d="M467 0l-170 231h-86v-231h-132v642h260q71 0 119 -7.5t77 -29.5t41.5 -62.5t12.5 -106.5q0 -53 -7.5 -89t-25 -59t-46 -35.5t-70.5 -17.5l178 -235h-151zM341 338q31 0 52.5 2t35 12t19.5 29.5t6 54.5q0 36 -6 56t-19.5 29.5t-35 11.5t-52.5 2h-130v-197h130zM357 693
h-96l-92 102h77l63 -75l63 75h77z" />
    <glyph glyph-name="rcaron" unicode="&#x159;" horiz-adv-x="681" 
d="M79 0v642h259q71 0 119 -7.5t77 -29.5t41.5 -62.5t12.5 -106.5q0 -53 -7.5 -88.5t-25 -59t-46 -35.5t-69.5 -17l110 -131q6 -7 16.5 -10t23 -3.5t25 0.5t23.5 1l-11 -93q-31 -3 -58.5 -3t-53.5 9t-53 29.5t-58 57.5l-114 138h-79v-231h-132zM453 439q0 34 -6 53.5t-19 29
t-35 11.5t-53 2h-129v-197h129q31 0 53 2t35 11.5t19 28.5t6 53v6zM388 693h-96l-92 102h77l63 -75l63 75h77z" />
    <glyph glyph-name="Sacute" unicode="&#x15a;" horiz-adv-x="624" 
d="M522 512q-14 5 -37 11t-51 11.5t-59 9t-61 3.5q-60 0 -90.5 -15t-30.5 -54q0 -23 1.5 -35t8 -19.5t20 -12.5t36.5 -12q56 -14 112.5 -25.5t102.5 -32.5t75.5 -59t30.5 -105q0 -58 -19 -94.5t-53 -57.5t-81.5 -28.5t-104.5 -7.5q-35 0 -74 3.5t-76.5 10.5t-70.5 15.5
t-55 19.5l15 54.5t16 50.5q15 -6 39.5 -14t57.5 -15t73 -12t84 -5q28 0 50.5 1.5t38.5 8.5t24 22.5t8 43.5q0 21 -4 34t-13.5 20.5t-25 12t-37.5 9.5q-84 18 -143 32.5t-95.5 37.5t-53 60t-16.5 100q0 44 18.5 77t51 54.5t75 32.5t90.5 11q35 0 71.5 -2.5t70.5 -7.5
t63.5 -12t50.5 -17zM271 689l53 107h85q-26 -29 -45.5 -53.5l-42.5 -53.5h-50z" />
    <glyph glyph-name="sacute" unicode="&#x15b;" horiz-adv-x="624" 
d="M522 512q-14 5 -37 11t-51 11.5t-59 9t-61 3.5q-60 0 -90.5 -15t-30.5 -54q0 -23 1.5 -35t8 -19.5t20 -12.5t36.5 -12q56 -14 112.5 -25.5t102.5 -32.5t75.5 -59t30.5 -105q0 -58 -19 -94.5t-53 -57.5t-81.5 -28.5t-104.5 -7.5q-35 0 -74 3.5t-76.5 10.5t-70.5 15.5
t-55 19.5l15 54.5t16 50.5q15 -6 39.5 -14t57.5 -15t73 -12t84 -5q28 0 50.5 1.5t38.5 8.5t24 22.5t8 43.5q0 21 -4 34t-13.5 20.5t-25 12t-37.5 9.5q-84 18 -143 32.5t-95.5 37.5t-53 60t-16.5 100q0 44 18.5 77t51 54.5t75 32.5t90.5 11q35 0 71.5 -2.5t70.5 -7.5
t63.5 -12t50.5 -17zM271 689l53 107h85q-26 -29 -45.5 -53.5l-42.5 -53.5h-50z" />
    <glyph glyph-name="Scircumflex" unicode="&#x15c;" horiz-adv-x="624" 
d="M522 512q-14 5 -37 11t-51 11.5t-59 9t-61 3.5q-60 0 -90.5 -15t-30.5 -54q0 -23 1.5 -35t8 -19.5t20 -12.5t36.5 -12q56 -14 112.5 -25.5t102.5 -32.5t75.5 -59t30.5 -105q0 -58 -19 -94.5t-53 -57.5t-81.5 -28.5t-104.5 -7.5q-35 0 -74 3.5t-76.5 10.5t-70.5 15.5
t-55 19.5l15 54.5t16 50.5q15 -6 39.5 -14t57.5 -15t73 -12t84 -5q28 0 50.5 1.5t38.5 8.5t24 22.5t8 43.5q0 21 -4 34t-13.5 20.5t-25 12t-37.5 9.5q-84 18 -143 32.5t-95.5 37.5t-53 60t-16.5 100q0 44 18.5 77t51 54.5t75 32.5t90.5 11q35 0 71.5 -2.5t70.5 -7.5
t63.5 -12t50.5 -17zM372 707l-59 84l-59 -84h-72l44 54l44 53h80l91 -107h-69z" />
    <glyph glyph-name="scircumflex" unicode="&#x15d;" horiz-adv-x="624" 
d="M522 512q-14 5 -37 11t-51 11.5t-59 9t-61 3.5q-60 0 -90.5 -15t-30.5 -54q0 -23 1.5 -35t8 -19.5t20 -12.5t36.5 -12q56 -14 112.5 -25.5t102.5 -32.5t75.5 -59t30.5 -105q0 -58 -19 -94.5t-53 -57.5t-81.5 -28.5t-104.5 -7.5q-35 0 -74 3.5t-76.5 10.5t-70.5 15.5
t-55 19.5l15 54.5t16 50.5q15 -6 39.5 -14t57.5 -15t73 -12t84 -5q28 0 50.5 1.5t38.5 8.5t24 22.5t8 43.5q0 21 -4 34t-13.5 20.5t-25 12t-37.5 9.5q-84 18 -143 32.5t-95.5 37.5t-53 60t-16.5 100q0 44 18.5 77t51 54.5t75 32.5t90.5 11q35 0 71.5 -2.5t70.5 -7.5
t63.5 -12t50.5 -17zM372 707l-59 84l-59 -84h-72l44 54l44 53h80l91 -107h-69z" />
    <glyph glyph-name="Scedilla" unicode="&#x15e;" horiz-adv-x="624" 
d="M46 38l15 54.5t16 50.5q15 -6 39.5 -14t57.5 -15t73 -12t84 -5q28 0 50.5 1.5t38.5 8.5t24 22.5t8 43.5q0 21 -4 34t-13.5 20.5t-25 12t-37.5 9.5q-84 18 -143 32.5t-95.5 37.5t-53 60t-16.5 100q0 44 18.5 77t51 54.5t75 32.5t90.5 11q35 0 71.5 -2.5t70.5 -7.5
t63.5 -12t50.5 -17l-33 -103q-14 5 -37 11t-51 11.5t-59 9t-61 3.5q-60 0 -90.5 -15t-30.5 -54q0 -23 1.5 -35t8 -19.5t20 -12.5t36.5 -12q56 -14 112.5 -25.5t102.5 -32.5t75.5 -59t30.5 -105q0 -57 -18 -93t-50.5 -57t-78 -29t-100.5 -9l-14 -47q44 -5 65 -21.5t21 -37.5
q0 -29 -32 -52.5t-95 -23.5q-34 0 -59 3l5 34h4q8 -1 17 -1h14q46 0 69 14q17 15 17 32q0 8 -2 14.5t-9 12t-21 9t-38 4.5l18 61q-33 1 -68.5 5t-68.5 10.5t-61.5 15t-48.5 17.5z" />
    <glyph glyph-name="scedilla" unicode="&#x15f;" horiz-adv-x="624" 
d="M46 38l15 54.5t16 50.5q15 -6 39.5 -14t57.5 -15t73 -12t84 -5q28 0 50.5 1.5t38.5 8.5t24 22.5t8 43.5q0 21 -4 34t-13.5 20.5t-25 12t-37.5 9.5q-84 18 -143 32.5t-95.5 37.5t-53 60t-16.5 100q0 44 18.5 77t51 54.5t75 32.5t90.5 11q35 0 71.5 -2.5t70.5 -7.5
t63.5 -12t50.5 -17l-33 -103q-14 5 -37 11t-51 11.5t-59 9t-61 3.5q-60 0 -90.5 -15t-30.5 -54q0 -23 1.5 -35t8 -19.5t20 -12.5t36.5 -12q56 -14 112.5 -25.5t102.5 -32.5t75.5 -59t30.5 -105q0 -57 -18 -93t-50.5 -57t-78 -29t-100.5 -9l-14 -47q44 -5 65 -21.5t21 -37.5
q0 -29 -32 -52.5t-95 -23.5q-34 0 -59 3l5 34h4q8 -1 17 -1h14q46 0 69 14q17 15 17 32q0 8 -2 14.5t-9 12t-21 9t-38 4.5l18 61q-33 1 -68.5 5t-68.5 10.5t-61.5 15t-48.5 17.5z" />
    <glyph glyph-name="Scaron" unicode="&#x160;" horiz-adv-x="624" 
d="M522 512q-14 5 -37 11t-51 11.5t-59 9t-61 3.5q-60 0 -90.5 -15t-30.5 -54q0 -23 1.5 -35t8 -19.5t20 -12.5t36.5 -12q56 -14 112.5 -25.5t102.5 -32.5t75.5 -59t30.5 -105q0 -58 -19 -94.5t-53 -57.5t-81.5 -28.5t-104.5 -7.5q-35 0 -74 3.5t-76.5 10.5t-70.5 15.5
t-55 19.5l15 54.5t16 50.5q15 -6 39.5 -14t57.5 -15t73 -12t84 -5q28 0 50.5 1.5t38.5 8.5t24 22.5t8 43.5q0 21 -4 34t-13.5 20.5t-25 12t-37.5 9.5q-84 18 -143 32.5t-95.5 37.5t-53 60t-16.5 100q0 44 18.5 77t51 54.5t75 32.5t90.5 11q35 0 71.5 -2.5t70.5 -7.5
t63.5 -12t50.5 -17zM360 693h-96l-92 102h77l63 -75l63 75h77z" />
    <glyph glyph-name="scaron" unicode="&#x161;" horiz-adv-x="624" 
d="M522 512q-14 5 -37 11t-51 11.5t-59 9t-61 3.5q-60 0 -90.5 -15t-30.5 -54q0 -23 1.5 -35t8 -19.5t20 -12.5t36.5 -12q56 -14 112.5 -25.5t102.5 -32.5t75.5 -59t30.5 -105q0 -58 -19 -94.5t-53 -57.5t-81.5 -28.5t-104.5 -7.5q-35 0 -74 3.5t-76.5 10.5t-70.5 15.5
t-55 19.5l15 54.5t16 50.5q15 -6 39.5 -14t57.5 -15t73 -12t84 -5q28 0 50.5 1.5t38.5 8.5t24 22.5t8 43.5q0 21 -4 34t-13.5 20.5t-25 12t-37.5 9.5q-84 18 -143 32.5t-95.5 37.5t-53 60t-16.5 100q0 44 18.5 77t51 54.5t75 32.5t90.5 11q35 0 71.5 -2.5t70.5 -7.5
t63.5 -12t50.5 -17zM360 693h-96l-92 102h77l63 -75l63 75h77z" />
    <glyph glyph-name="Tcommaaccent" unicode="&#x162;" horiz-adv-x="543" 
d="M204 0v535h-197l10 107h529l-10 -107h-200v-535h-132zM212 -293q26 11 37.5 33t14.5 61h-50v123h117v-133q0 -45 -21 -74.5t-65 -46.5z" />
    <glyph glyph-name="tcommaaccent" unicode="&#x163;" horiz-adv-x="543" 
d="M204 0v535h-197l10 107h529l-10 -107h-200v-535h-132zM212 -293q26 11 37.5 33t14.5 61h-50v123h117v-133q0 -45 -21 -74.5t-65 -46.5z" />
    <glyph glyph-name="Tcaron" unicode="&#x164;" horiz-adv-x="543" 
d="M204 0v535h-197l10 107h529l-10 -107h-200v-535h-132zM319 693h-96l-92 102h77l63 -75l63 75h77z" />
    <glyph glyph-name="tcaron" unicode="&#x165;" horiz-adv-x="543" 
d="M204 0v535h-197l10 107h529l-10 -107h-200v-535h-132zM319 693h-96l-92 102h77l63 -75l63 75h77z" />
    <glyph glyph-name="Tbar" unicode="&#x166;" horiz-adv-x="543" 
d="M204 0v404h-100v68h100v63h-197l10 107h529l-10 -107h-200v-63h103v-68h-103v-404h-132z" />
    <glyph glyph-name="tbar" unicode="&#x167;" horiz-adv-x="543" 
d="M204 0v404h-100v68h100v63h-197l10 107h529l-10 -107h-200v-63h103v-68h-103v-404h-132z" />
    <glyph glyph-name="Utilde" unicode="&#x168;" horiz-adv-x="686" 
d="M483 642h131v-372q0 -75 -10 -128.5t-39 -87t-82 -49.5t-139 -16t-139.5 16t-83 49.5t-40 87t-10.5 128.5v372h131v-371q0 -47 4.5 -80t19.5 -54t43 -30.5t75 -9.5q46 0 74 9.5t42 30.5t18.5 54t4.5 80v371zM492 803q-4 -40 -26.5 -62t-56.5 -22q-14 0 -32.5 6.5
t-42.5 18.5q-33 18 -51 18q-12 0 -19.5 -3.5t-15.5 -11.5q-5 -5 -8 -12t-4 -18h-43q1 20 7 33.5t17 25.5q26 26 64 26q14 0 33 -6.5t43 -17.5q30 -15 49 -15t29.5 8t15.5 32h41z" />
    <glyph glyph-name="utilde" unicode="&#x169;" horiz-adv-x="668" 
d="M483 642h131v-372q0 -75 -10 -128.5t-39 -87t-82 -49.5t-139 -16t-139.5 16t-83 49.5t-40 87t-10.5 128.5v372h131v-371q0 -47 4.5 -80t19.5 -54t43 -30.5t75 -9.5q46 0 74 9.5t42 30.5t18.5 54t4.5 80v371zM483 803q-4 -40 -26.5 -62t-56.5 -22q-14 0 -32.5 6.5
t-42.5 18.5q-33 18 -51 18q-12 0 -19.5 -3.5t-15.5 -11.5q-5 -5 -8 -12t-4 -18h-43q1 20 7 33.5t17 25.5q26 26 64 26q14 0 33 -6.5t43 -17.5q30 -15 49 -15t29.5 8t15.5 32h41z" />
    <glyph glyph-name="Umacron" unicode="&#x16a;" horiz-adv-x="686" 
d="M483 642h131v-372q0 -75 -10 -128.5t-39 -87t-82 -49.5t-139 -16t-139.5 16t-83 49.5t-40 87t-10.5 128.5v372h131v-371q0 -47 4.5 -80t19.5 -54t43 -30.5t75 -9.5q46 0 74 9.5t42 30.5t18.5 54t4.5 80v371zM205 745v38h275v-38h-275z" />
    <glyph glyph-name="umacron" unicode="&#x16b;" horiz-adv-x="668" 
d="M483 642h131v-372q0 -75 -10 -128.5t-39 -87t-82 -49.5t-139 -16t-139.5 16t-83 49.5t-40 87t-10.5 128.5v372h131v-371q0 -47 4.5 -80t19.5 -54t43 -30.5t75 -9.5q46 0 74 9.5t42 30.5t18.5 54t4.5 80v371zM196 745v38h275v-38h-275z" />
    <glyph glyph-name="Ubreve" unicode="&#x16c;" horiz-adv-x="686" 
d="M483 642h131v-372q0 -75 -10 -128.5t-39 -87t-82 -49.5t-139 -16t-139.5 16t-83 49.5t-40 87t-10.5 128.5v372h131v-371q0 -47 4.5 -80t19.5 -54t43 -30.5t75 -9.5q46 0 74 9.5t42 30.5t18.5 54t4.5 80v371zM481 819q-10 -53 -45.5 -82.5t-92.5 -29.5q-59 0 -94 27.5
t-44 84.5h43q17 -69 92 -69q44 0 67 17t32 52h42z" />
    <glyph glyph-name="ubreve" unicode="&#x16d;" horiz-adv-x="668" 
d="M483 642h131v-372q0 -75 -10 -128.5t-39 -87t-82 -49.5t-139 -16t-139.5 16t-83 49.5t-40 87t-10.5 128.5v372h131v-371q0 -47 4.5 -80t19.5 -54t43 -30.5t75 -9.5q46 0 74 9.5t42 30.5t18.5 54t4.5 80v371zM472 819q-10 -53 -45.5 -82.5t-92.5 -29.5q-59 0 -94 27.5
t-44 84.5h43q17 -69 92 -69q44 0 67 17t32 52h42z" />
    <glyph glyph-name="Uring" unicode="&#x16e;" horiz-adv-x="686" 
d="M483 642h131v-372q0 -75 -10 -128.5t-39 -87t-82 -49.5t-139 -16t-139.5 16t-83 49.5t-40 87t-10.5 128.5v372h131v-371q0 -47 4.5 -80t19.5 -54t43 -30.5t75 -9.5q46 0 74 9.5t42 30.5t18.5 54t4.5 80v371zM343 707q13 0 22.5 5t9.5 32q0 26 -10 30.5t-22 4.5
q-13 0 -22.5 -4.5t-9.5 -30.5q0 -27 9.5 -32t22.5 -5zM343 677q-14 0 -25.5 2.5t-20 9.5t-13.5 20t-5 35q0 21 5 34t13.5 20t20 9.5t25.5 2.5q13 0 25 -2.5t20.5 -9.5t13.5 -20t5 -34q0 -22 -5 -35t-13.5 -20t-20.5 -9.5t-25 -2.5z" />
    <glyph glyph-name="uring" unicode="&#x16f;" horiz-adv-x="668" 
d="M483 642h131v-372q0 -75 -10 -128.5t-39 -87t-82 -49.5t-139 -16t-139.5 16t-83 49.5t-40 87t-10.5 128.5v372h131v-371q0 -47 4.5 -80t19.5 -54t43 -30.5t75 -9.5q46 0 74 9.5t42 30.5t18.5 54t4.5 80v371zM334 707q13 0 22.5 5t9.5 32q0 26 -10 30.5t-22 4.5
q-13 0 -22.5 -4.5t-9.5 -30.5q0 -27 9.5 -32t22.5 -5zM334 677q-14 0 -25.5 2.5t-20 9.5t-13.5 20t-5 35q0 21 5 34t13.5 20t20 9.5t25.5 2.5q13 0 25 -2.5t20.5 -9.5t13.5 -20t5 -34q0 -22 -5 -35t-13.5 -20t-20.5 -9.5t-25 -2.5z" />
    <glyph glyph-name="Uhungarumlaut" unicode="&#x170;" horiz-adv-x="686" 
d="M483 642h131v-372q0 -75 -10 -128.5t-39 -87t-82 -49.5t-139 -16t-139.5 16t-83 49.5t-40 87t-10.5 128.5v372h131v-371q0 -47 4.5 -80t19.5 -54t43 -30.5t75 -9.5q46 0 74 9.5t42 30.5t18.5 54t4.5 80v371zM187 689l53 107h85q-26 -29 -45.5 -53.5l-42.5 -53.5h-50z
M361 689l53 107h85q-26 -29 -45.5 -53.5l-42.5 -53.5h-50z" />
    <glyph glyph-name="uhungarumlaut" unicode="&#x171;" horiz-adv-x="668" 
d="M483 642h131v-372q0 -75 -10 -128.5t-39 -87t-82 -49.5t-139 -16t-139.5 16t-83 49.5t-40 87t-10.5 128.5v372h131v-371q0 -47 4.5 -80t19.5 -54t43 -30.5t75 -9.5q46 0 74 9.5t42 30.5t18.5 54t4.5 80v371zM178 689l53 107h85q-26 -29 -45.5 -53.5l-42.5 -53.5h-50z
M352 689l53 107h85q-26 -29 -45.5 -53.5l-42.5 -53.5h-50z" />
    <glyph glyph-name="Uogonek" unicode="&#x172;" horiz-adv-x="686" 
d="M433 -150q-26 -3 -59 -3q-63 0 -95 23.5t-32 52.5q0 21 21 37.5t65 21.5l-2 7q-82 1 -133 17.5t-79 50.5t-38 86.5t-10 126.5v372h131v-371q0 -47 4.5 -80t19.5 -54t43 -30.5t75 -9.5q46 0 74 9.5t42 30.5t18.5 54t4.5 80v371h131v-372q0 -72 -9 -124t-35.5 -86t-74 -51
t-124.5 -19l6 -21q-24 -1 -38 -4.5t-21 -9t-9 -12t-2 -14.5q0 -17 17 -32q23 -14 69 -14h14t17 1h4z" />
    <glyph glyph-name="uogonek" unicode="&#x173;" horiz-adv-x="668" 
d="M433 -150q-26 -3 -59 -3q-63 0 -95 23.5t-32 52.5q0 21 21 37.5t65 21.5l-2 7q-82 1 -133 17.5t-79 50.5t-38 86.5t-10 126.5v372h131v-371q0 -47 4.5 -80t19.5 -54t43 -30.5t75 -9.5q46 0 74 9.5t42 30.5t18.5 54t4.5 80v371h131v-372q0 -72 -9 -124t-35.5 -86t-74 -51
t-124.5 -19l6 -21q-24 -1 -38 -4.5t-21 -9t-9 -12t-2 -14.5q0 -17 17 -32q23 -14 69 -14h14t17 1h4z" />
    <glyph glyph-name="Wcircumflex" unicode="&#x174;" horiz-adv-x="908" 
d="M560 0l-107 482l-98 -482h-165l-147 642h144l83 -532h6l92 532h169l103 -532h6l72 532h146l-139 -642h-165zM514 707l-59 84l-59 -84h-72l44 54l44 53h80l91 -107h-69z" />
    <glyph glyph-name="wcircumflex" unicode="&#x175;" horiz-adv-x="908" 
d="M560 0l-107 482l-98 -482h-165l-147 642h144l83 -532h6l92 532h169l103 -532h6l72 532h146l-139 -642h-165zM514 707l-59 84l-59 -84h-72l44 54l44 53h80l91 -107h-69z" />
    <glyph glyph-name="Ycircumflex" unicode="&#x176;" horiz-adv-x="618" 
d="M239 0v274l-113 184l-113 184h146l58.5 -97.5l58.5 -97.5q8 -29 16 -64l14 -63l16 60.5l17 66.5l61.5 97.5t66.5 97.5h139l-235 -368v-274h-132zM369 707l-59 84l-59 -84h-72l44 54l44 53h80l91 -107h-69z" />
    <glyph glyph-name="ycircumflex" unicode="&#x177;" horiz-adv-x="618" 
d="M239 0v274l-113 184l-113 184h146l58.5 -97.5l58.5 -97.5q8 -29 16 -64l14 -63l16 60.5l17 66.5l61.5 97.5t66.5 97.5h139l-235 -368v-274h-132zM369 707l-59 84l-59 -84h-72l44 54l44 53h80l91 -107h-69z" />
    <glyph glyph-name="Ydieresis" unicode="&#x178;" horiz-adv-x="618" 
d="M239 0v274l-113 184l-113 184h146l58.5 -97.5l58.5 -97.5q8 -29 16 -64l14 -63l16 60.5l17 66.5l61.5 97.5t66.5 97.5h139l-235 -368v-274h-132zM165 741v123h110v-123h-110zM343 741v123h110v-123h-110z" />
    <glyph glyph-name="Zacute" unicode="&#x179;" horiz-adv-x="585" 
d="M28 0v117l379 418h-359l10 107h485v-113l-384 -421h396l-10 -108h-517zM223 689l53 107h85q-26 -29 -45.5 -53.5l-42.5 -53.5h-50z" />
    <glyph glyph-name="zacute" unicode="&#x17a;" horiz-adv-x="585" 
d="M28 0v117l379 418h-359l10 107h485v-113l-384 -421h396l-10 -108h-517zM223 689l53 107h85q-26 -29 -45.5 -53.5l-42.5 -53.5h-50z" />
    <glyph glyph-name="Zdotaccent" unicode="&#x17b;" horiz-adv-x="585" 
d="M28 0v117l379 418h-359l10 107h485v-113l-384 -421h396l-10 -108h-517zM331 719h-78v73h78v-73z" />
    <glyph glyph-name="zdotaccent" unicode="&#x17c;" horiz-adv-x="585" 
d="M28 0v117l379 418h-359l10 107h485v-113l-384 -421h396l-10 -108h-517zM331 719h-78v73h78v-73z" />
    <glyph glyph-name="Zcaron" unicode="&#x17d;" horiz-adv-x="585" 
d="M28 0v117l379 418h-359l10 107h485v-113l-384 -421h396l-10 -108h-517zM340 693h-96l-92 102h77l63 -75l63 75h77z" />
    <glyph glyph-name="zcaron" unicode="&#x17e;" horiz-adv-x="585" 
d="M28 0v117l379 418h-359l10 107h485v-113l-384 -421h396l-10 -108h-517zM340 693h-96l-92 102h77l63 -75l63 75h77z" />
    <glyph glyph-name="uni0186" unicode="&#x186;" horiz-adv-x="650" 
d="M56 134q14 -5 36 -12t48 -13t56 -10.5t60 -4.5q41 0 76 6t60.5 28.5t40 68t14.5 124.5q0 78 -14.5 123.5t-40 68.5t-60.5 29t-76 6q-61 0 -111 -13.5t-79 -22.5l-33 103q85 40 225 40q73 0 133 -12.5t102 -48.5t65 -101.5t23 -171.5t-23 -171.5t-65 -101.5t-102 -48.5
t-133 -12.5q-70 0 -131.5 12t-103.5 32z" />
    <glyph glyph-name="uni018E" unicode="&#x18e;" horiz-adv-x="566" 
d="M485 642v-642h-480l10 107h338v149h-263v107h263v171h-348l10 108h470z" />
    <glyph glyph-name="uni018F" unicode="&#x18f;" horiz-adv-x="704" 
d="M526 364q-3 58 -14.5 94.5t-34.5 56t-58 26.5t-86 7q-30 0 -61.5 -5.5t-60 -13t-52 -15.5l-37.5 -13l-33 103q21 10 51 19t64.5 16t71.5 11.5t72 4.5q75 0 133 -12t98 -47.5t61 -99.5t21 -167q0 -108 -22.5 -175t-63 -104t-96 -50t-122.5 -13q-72 0 -127.5 14t-93.5 50.5
t-58 99.5t-20 162v51h468zM194 256q3 -52 14 -84t31 -49.5t49 -23.5t69 -6q35 0 64.5 3.5t52 19.5t36 49t16.5 91h-332z" />
    <glyph glyph-name="uni0190" unicode="&#x190;" horiz-adv-x="603" 
d="M564 28q-21 -10 -50.5 -17t-63.5 -12t-70.5 -7.5t-71.5 -2.5q-71 0 -119 7.5t-77 27t-41.5 53t-12.5 84.5q0 37 7 63.5t19.5 44.5t30.5 30.5t41 22.5q-23 10 -40.5 23t-30 31t-19 44t-6.5 64q0 51 12 84t40.5 51.5t76.5 26t119 7.5q35 0 71.5 -2.5t70.5 -7.5t63.5 -12
t50.5 -17l-33 -103q-14 5 -39.5 11t-56.5 11.5t-65 9t-64 3.5q-63 0 -88 -12t-25 -53q0 -38 5 -60t17 -33t31.5 -14t47.5 -3h161v-97h-161q-28 0 -47.5 -2.5t-32 -13t-18 -33.5t-5.5 -64q0 -23 6 -36t20 -19.5t35.5 -8t53.5 -1.5q30 0 64 3.5t65 9t56.5 11.5t39.5 11z" />
    <glyph glyph-name="florin" unicode="&#x192;" horiz-adv-x="475" 
d="M202 402h-66l18 84h67l7 48q7 34 17.5 58.5t28 40t44 22.5t65.5 7q16 0 40 -3.5t51 -10.5l-13 -100q-22 6 -37.5 7t-27.5 1q-18 0 -27 -5.5t-15 -25.5l-8 -39h69q-5 -26 -9.5 -43t-9.5 -41h-68l-88 -488q-14 -63 -47 -87t-96 -24q-20 0 -44.5 2t-50.5 7l14 100
q20 -3 35 -5.5t28 -2.5q17 0 26.5 5t14.5 23z" />
    <glyph glyph-name="uni019F" unicode="&#x19f;" 
d="M379 -11q-67 0 -125.5 11.5t-102 47t-69 101t-25.5 173.5t25.5 173.5t69 101t102 47t125.5 11.5t125.5 -11.5t102 -47t69 -101t25.5 -173.5t-25.5 -173.5t-69 -101t-102 -47t-125.5 -11.5zM379 95q36 0 69 3.5t58.5 23t42 61t18.5 118.5h-376q2 -77 18 -118.5t41.5 -61
t58.5 -23t70 -3.5zM379 549q-37 0 -70 -3.5t-58.5 -22.5t-41.5 -60t-18 -117h376q-3 76 -19.5 117t-42.5 60t-58.5 22.5t-67.5 3.5z" />
    <glyph glyph-name="Ohorn" unicode="&#x1a0;" 
d="M669 518q17 0 32 17q14 23 14 69v14t-1 17v4l34 5q3 -26 3 -59q0 -57 -19.5 -88.5t-45.5 -37.5q15 -57 15 -137q0 -108 -25.5 -173.5t-69 -101t-102 -47t-125.5 -11.5t-125.5 11.5t-102 47t-69 101t-25.5 173.5t25.5 173.5t69 101t102 47t125.5 11.5q47 0 90 -5.5
t80.5 -20.5t67 -41.5t49.5 -69.5h3zM379 549q-38 0 -72 -3.5t-60 -25t-41 -67.5t-15 -131t15 -131t41 -67.5t60 -25t72 -3.5q37 0 71 3.5t60 25t41.5 67.5t15.5 131t-15.5 131t-42 67.5t-60.5 25t-70 3.5z" />
    <glyph glyph-name="ohorn" unicode="&#x1a1;" 
d="M669 518q17 0 32 17q14 23 14 69v14t-1 17v4l34 5q3 -26 3 -59q0 -57 -19.5 -88.5t-45.5 -37.5q15 -57 15 -137q0 -108 -25.5 -173.5t-69 -101t-102 -47t-125.5 -11.5t-125.5 11.5t-102 47t-69 101t-25.5 173.5t25.5 173.5t69 101t102 47t125.5 11.5q47 0 90 -5.5
t80.5 -20.5t67 -41.5t49.5 -69.5h3zM379 549q-38 0 -72 -3.5t-60 -25t-41 -67.5t-15 -131t15 -131t41 -67.5t60 -25t72 -3.5q37 0 71 3.5t60 25t41.5 67.5t15.5 131t-15.5 131t-42 67.5t-60.5 25t-70 3.5z" />
    <glyph glyph-name="uni01A7" unicode="&#x1a7;" horiz-adv-x="624" 
d="M71 615q21 10 50.5 17t63.5 12t70.5 7.5t71.5 2.5q48 0 90.5 -11t75 -32.5t51 -54.5t18.5 -77q0 -63 -16.5 -100t-53 -60t-95.5 -37.5t-143 -32.5q-23 -5 -38 -9.5t-24.5 -12t-13.5 -20.5t-4 -34q0 -28 8 -43.5t24 -22.5t38 -8.5t51 -1.5q44 0 84 5t73 12t57.5 15
t39.5 14q9 -26 16 -50.5l15 -54.5q-22 -11 -55 -19.5t-70.5 -15.5t-77 -10.5t-73.5 -3.5q-57 0 -104.5 7.5t-81.5 28.5t-53 57.5t-19 94.5q1 67 30.5 105t75.5 59t102.5 32.5t112.5 25.5q23 7 36.5 12t20 12.5t8 19.5t1.5 35q0 39 -30.5 54t-90.5 15q-30 0 -61 -3.5t-59 -9
t-51 -11.5t-37 -11z" />
    <glyph glyph-name="uni01A8" unicode="&#x1a8;" horiz-adv-x="624" 
d="M71 615q21 10 50.5 17t63.5 12t70.5 7.5t71.5 2.5q48 0 90.5 -11t75 -32.5t51 -54.5t18.5 -77q0 -63 -16.5 -100t-53 -60t-95.5 -37.5t-143 -32.5q-23 -5 -38 -9.5t-24.5 -12t-13.5 -20.5t-4 -34q0 -28 8 -43.5t24 -22.5t38 -8.5t51 -1.5q44 0 84 5t73 12t57.5 15
t39.5 14q9 -26 16 -50.5l15 -54.5q-22 -11 -55 -19.5t-70.5 -15.5t-77 -10.5t-73.5 -3.5q-57 0 -104.5 7.5t-81.5 28.5t-53 57.5t-19 94.5q1 67 30.5 105t75.5 59t102.5 32.5t112.5 25.5q23 7 36.5 12t20 12.5t8 19.5t1.5 35q0 39 -30.5 54t-90.5 15q-30 0 -61 -3.5t-59 -9
t-51 -11.5t-37 -11z" />
    <glyph glyph-name="Uhorn" unicode="&#x1af;" horiz-adv-x="686" 
d="M483 642h131v-124q16 1 30 17q14 23 14 69v14t-1 17v4l34 5q3 -26 3 -59q0 -63 -23.5 -95t-52.5 -32h-4v-188q0 -75 -10 -128.5t-39 -87t-82 -49.5t-139 -16t-139.5 16t-83 49.5t-40 87t-10.5 128.5v372h131v-371q0 -47 4.5 -80t19.5 -54t43 -30.5t75 -9.5q46 0 74 9.5
t42 30.5t18.5 54t4.5 80v371z" />
    <glyph glyph-name="uhorn" unicode="&#x1b0;" horiz-adv-x="668" 
d="M483 642h131v-124q16 1 30 17q14 23 14 69v14t-1 17v4l34 5q3 -26 3 -59q0 -63 -23.5 -95t-52.5 -32h-4v-188q0 -75 -10 -128.5t-39 -87t-82 -49.5t-139 -16t-139.5 16t-83 49.5t-40 87t-10.5 128.5v372h131v-371q0 -47 4.5 -80t19.5 -54t43 -30.5t75 -9.5q46 0 74 9.5
t42 30.5t18.5 54t4.5 80v371z" />
    <glyph glyph-name="uni01C7" unicode="&#x1c7;" horiz-adv-x="854" 
d="M79 0v642h131v-534h322l-10 -108h-443zM538 98q31 0 52.5 2t35 11.5t19.5 29.5t6 56v445h131v-441q0 -66 -12.5 -106.5t-41.5 -62.5t-77 -29.5t-119 -7.5z" />
    <glyph glyph-name="uni01C8" unicode="&#x1c8;" horiz-adv-x="854" 
d="M79 0v642h131v-534h322l-10 -108h-443zM538 98q31 0 52.5 2t35 11.5t19.5 29.5t6 56v445h131v-441q0 -66 -12.5 -106.5t-41.5 -62.5t-77 -29.5t-119 -7.5z" />
    <glyph glyph-name="uni01C9" unicode="&#x1c9;" horiz-adv-x="854" 
d="M79 0v642h131v-534h322l-10 -108h-443zM538 98q31 0 52.5 2t35 11.5t19.5 29.5t6 56v445h131v-441q0 -66 -12.5 -106.5t-41.5 -62.5t-77 -29.5t-119 -7.5z" />
    <glyph glyph-name="uni01CA" unicode="&#x1ca;" horiz-adv-x="1007" 
d="M466 0l-259 424v-424h-128v642h140l259 -422v422h127v-642h-139zM691 98q31 0 52.5 2t35 11.5t19.5 29.5t6 56v445h131v-441q0 -66 -12.5 -106.5t-41.5 -62.5t-77 -29.5t-119 -7.5z" />
    <glyph glyph-name="uni01CB" unicode="&#x1cb;" horiz-adv-x="1007" 
d="M466 0l-259 424v-424h-128v642h140l259 -422v422h127v-642h-139zM691 98q31 0 52.5 2t35 11.5t19.5 29.5t6 56v445h131v-441q0 -66 -12.5 -106.5t-41.5 -62.5t-77 -29.5t-119 -7.5z" />
    <glyph glyph-name="uni01CC" unicode="&#x1cc;" horiz-adv-x="1007" 
d="M466 0l-259 424v-424h-128v642h140l259 -422v422h127v-642h-139zM691 98q31 0 52.5 2t35 11.5t19.5 29.5t6 56v445h131v-441q0 -66 -12.5 -106.5t-41.5 -62.5t-77 -29.5t-119 -7.5z" />
    <glyph glyph-name="uni01CD" unicode="&#x1cd;" horiz-adv-x="657" 
d="M401 642l227 -642h-144l-56 181h-201l-55 -181h-144l227 642h146zM256 274h144l-51 167l-18 101h-6l-18 -101zM287 707l-44 53l-44 54h72l59 -84l59 84h69l-91 -107h-80z" />
    <glyph glyph-name="uni01CE" unicode="&#x1ce;" horiz-adv-x="703" 
d="M648 -1q-64 7 -94.5 29t-41.5 71q-31 -53 -82.5 -81t-123.5 -28q-57 0 -104.5 9t-81.5 31.5t-53 61t-19 96.5q0 66 19 109t53 68.5t81.5 35.5t104.5 10h158q-3 48 -11.5 75.5t-25.5 41t-44.5 17t-68.5 3.5q-30 0 -59 -4t-54.5 -10t-46.5 -12.5t-35 -11.5l-33 103
q42 20 101 31t129 11q81 0 135.5 -12t87 -47t46.5 -100t14 -171v-16v-112q0 -49 14 -69t46 -25zM465 303h-159q-29 0 -52.5 -3.5t-41 -15.5t-27 -34.5t-9.5 -61.5q0 -30 10 -48t27 -27t41 -12t53 -3q51 0 82 13t48 39t22.5 63.5t5.5 87.5v2zM310 707l-44 53l-44 54h72
l59 -84l59 84h69l-91 -107h-80z" />
    <glyph glyph-name="uni01CF" unicode="&#x1cf;" horiz-adv-x="241" 
d="M50 0v642h132v-642h-132zM80 707l-44 53l-44 54h72l59 -84l59 84h69l-91 -107h-80z" />
    <glyph glyph-name="uni01D0" unicode="&#x1d0;" horiz-adv-x="241" 
d="M50 0v642h132v-642h-132zM80 707l-44 53l-44 54h72l59 -84l59 84h69l-91 -107h-80z" />
    <glyph glyph-name="uni01D1" unicode="&#x1d1;" 
d="M379 549q-38 0 -72 -3.5t-60 -25t-41 -67.5t-15 -131t15 -131t41 -67.5t60 -25t72 -3.5q37 0 71 3.5t60 25t41.5 67.5t15.5 131t-15.5 131t-42 67.5t-60.5 25t-70 3.5zM57 322q0 108 25.5 173.5t69 101t102 47t125.5 11.5t125.5 -11.5t102 -47t69 -101t25.5 -173.5
t-25.5 -173.5t-69 -101t-102 -47t-125.5 -11.5t-125.5 11.5t-102 47t-69 101t-25.5 173.5zM337 707l-44 53l-44 54h72l59 -84l59 84h69l-91 -107h-80z" />
    <glyph glyph-name="uni01D2" unicode="&#x1d2;" 
d="M379 549q-38 0 -72 -3.5t-60 -25t-41 -67.5t-15 -131t15 -131t41 -67.5t60 -25t72 -3.5q37 0 71 3.5t60 25t41.5 67.5t15.5 131t-15.5 131t-42 67.5t-60.5 25t-70 3.5zM57 322q0 108 25.5 173.5t69 101t102 47t125.5 11.5t125.5 -11.5t102 -47t69 -101t25.5 -173.5
t-25.5 -173.5t-69 -101t-102 -47t-125.5 -11.5t-125.5 11.5t-102 47t-69 101t-25.5 173.5zM337 707l-44 53l-44 54h72l59 -84l59 84h69l-91 -107h-80z" />
    <glyph glyph-name="uni01D3" unicode="&#x1d3;" horiz-adv-x="686" 
d="M483 642h131v-372q0 -75 -10 -128.5t-39 -87t-82 -49.5t-139 -16t-139.5 16t-83 49.5t-40 87t-10.5 128.5v372h131v-371q0 -47 4.5 -80t19.5 -54t43 -30.5t75 -9.5q46 0 74 9.5t42 30.5t18.5 54t4.5 80v371zM301 707l-44 53l-44 54h72l59 -84l59 84h69l-91 -107h-80z" />
    <glyph glyph-name="uni01D4" unicode="&#x1d4;" horiz-adv-x="668" 
d="M483 642h131v-372q0 -75 -10 -128.5t-39 -87t-82 -49.5t-139 -16t-139.5 16t-83 49.5t-40 87t-10.5 128.5v372h131v-371q0 -47 4.5 -80t19.5 -54t43 -30.5t75 -9.5q46 0 74 9.5t42 30.5t18.5 54t4.5 80v371zM292 707l-44 53l-44 54h72l59 -84l59 84h69l-91 -107h-80z" />
    <glyph glyph-name="uni01D5" unicode="&#x1d5;" horiz-adv-x="686" 
d="M483 642h131v-372q0 -75 -10 -128.5t-39 -87t-82 -49.5t-139 -16t-139.5 16t-83 49.5t-40 87t-10.5 128.5v372h131v-371q0 -47 4.5 -80t19.5 -54t43 -30.5t75 -9.5q46 0 74 9.5t42 30.5t18.5 54t4.5 80v371zM199 723v123h110v-123h-110zM377 723v123h110v-123h-110z
M205 845v38h275v-38h-275z" />
    <glyph glyph-name="uni01D6" unicode="&#x1d6;" horiz-adv-x="668" 
d="M483 642h131v-372q0 -75 -10 -128.5t-39 -87t-82 -49.5t-139 -16t-139.5 16t-83 49.5t-40 87t-10.5 128.5v372h131v-371q0 -47 4.5 -80t19.5 -54t43 -30.5t75 -9.5q46 0 74 9.5t42 30.5t18.5 54t4.5 80v371zM190 723v123h110v-123h-110zM368 723v123h110v-123h-110z
M196 845v38h275v-38h-275z" />
    <glyph glyph-name="uni01D7" unicode="&#x1d7;" horiz-adv-x="686" 
d="M483 642h131v-372q0 -75 -10 -128.5t-39 -87t-82 -49.5t-139 -16t-139.5 16t-83 49.5t-40 87t-10.5 128.5v372h131v-371q0 -47 4.5 -80t19.5 -54t43 -30.5t75 -9.5q46 0 74 9.5t42 30.5t18.5 54t4.5 80v371zM199 723v123h110v-123h-110zM377 723v123h110v-123h-110z
M274 857l53 107h85q-26 -29 -45.5 -53.5l-42.5 -53.5h-50z" />
    <glyph glyph-name="uni01D8" unicode="&#x1d8;" horiz-adv-x="668" 
d="M483 642h131v-372q0 -75 -10 -128.5t-39 -87t-82 -49.5t-139 -16t-139.5 16t-83 49.5t-40 87t-10.5 128.5v372h131v-371q0 -47 4.5 -80t19.5 -54t43 -30.5t75 -9.5q46 0 74 9.5t42 30.5t18.5 54t4.5 80v371zM190 723v123h110v-123h-110zM368 723v123h110v-123h-110z
M265 857l53 107h85q-26 -29 -45.5 -53.5l-42.5 -53.5h-50z" />
    <glyph glyph-name="uni01D9" unicode="&#x1d9;" horiz-adv-x="686" 
d="M483 642h131v-372q0 -75 -10 -128.5t-39 -87t-82 -49.5t-139 -16t-139.5 16t-83 49.5t-40 87t-10.5 128.5v372h131v-371q0 -47 4.5 -80t19.5 -54t43 -30.5t75 -9.5q46 0 74 9.5t42 30.5t18.5 54t4.5 80v371zM199 723v123h110v-123h-110zM377 723v123h110v-123h-110z
M301 857l-44 53l-44 54h72l59 -84l59 84h69l-91 -107h-80z" />
    <glyph glyph-name="uni01DA" unicode="&#x1da;" horiz-adv-x="668" 
d="M483 642h131v-372q0 -75 -10 -128.5t-39 -87t-82 -49.5t-139 -16t-139.5 16t-83 49.5t-40 87t-10.5 128.5v372h131v-371q0 -47 4.5 -80t19.5 -54t43 -30.5t75 -9.5q46 0 74 9.5t42 30.5t18.5 54t4.5 80v371zM190 723v123h110v-123h-110zM368 723v123h110v-123h-110z
M292 857l-44 53l-44 54h72l59 -84l59 84h69l-91 -107h-80z" />
    <glyph glyph-name="uni01DB" unicode="&#x1db;" horiz-adv-x="686" 
d="M483 642h131v-372q0 -75 -10 -128.5t-39 -87t-82 -49.5t-139 -16t-139.5 16t-83 49.5t-40 87t-10.5 128.5v372h131v-371q0 -47 4.5 -80t19.5 -54t43 -30.5t75 -9.5q46 0 74 9.5t42 30.5t18.5 54t4.5 80v371zM199 723v123h110v-123h-110zM377 723v123h110v-123h-110z
M367 857l-94 107h86l53 -107h-45z" />
    <glyph glyph-name="uni01DC" unicode="&#x1dc;" horiz-adv-x="668" 
d="M483 642h131v-372q0 -75 -10 -128.5t-39 -87t-82 -49.5t-139 -16t-139.5 16t-83 49.5t-40 87t-10.5 128.5v372h131v-371q0 -47 4.5 -80t19.5 -54t43 -30.5t75 -9.5q46 0 74 9.5t42 30.5t18.5 54t4.5 80v371zM190 723v123h110v-123h-110zM368 723v123h110v-123h-110z
M358 857l-94 107h86l53 -107h-45z" />
    <glyph glyph-name="uni01DD" unicode="&#x1dd;" horiz-adv-x="704" 
d="M526 364q-3 58 -14.5 94.5t-34.5 56t-58 26.5t-86 7q-30 0 -61.5 -5.5t-60 -13t-52 -15.5l-37.5 -13l-33 103q21 10 51 19t64.5 16t71.5 11.5t72 4.5q75 0 133 -12t98 -47.5t61 -99.5t21 -167q0 -108 -22.5 -175t-63 -104t-96 -50t-122.5 -13q-72 0 -127.5 14t-93.5 50.5
t-58 99.5t-20 162v51h468zM194 256q3 -52 14 -84t31 -49.5t49 -23.5t69 -6q35 0 64.5 3.5t52 19.5t36 49t16.5 91h-332z" />
    <glyph glyph-name="uni01DE" unicode="&#x1de;" horiz-adv-x="657" 
d="M401 642l227 -642h-144l-56 181h-201l-55 -181h-144l227 642h146zM256 274h144l-51 167l-18 101h-6l-18 -101zM184 723v123h110v-123h-110zM362 723v123h110v-123h-110zM191 845v38h275v-38h-275z" />
    <glyph glyph-name="uni01DF" unicode="&#x1df;" horiz-adv-x="657" 
d="M401 642l227 -642h-144l-56 181h-201l-55 -181h-144l227 642h146zM256 274h144l-51 167l-18 101h-6l-18 -101zM184 723v123h110v-123h-110zM362 723v123h110v-123h-110zM191 845v38h275v-38h-275z" />
    <glyph glyph-name="uni01E0" unicode="&#x1e0;" horiz-adv-x="657" 
d="M401 642l227 -642h-144l-56 181h-201l-55 -181h-144l227 642h146zM256 274h144l-51 167l-18 101h-6l-18 -101zM387 737h-118v123h118v-123zM191 845v38h275v-38h-275z" />
    <glyph glyph-name="uni01E1" unicode="&#x1e1;" horiz-adv-x="703" 
d="M648 -1q-64 7 -94.5 29t-41.5 71q-31 -53 -82.5 -81t-123.5 -28q-57 0 -104.5 9t-81.5 31.5t-53 61t-19 96.5q0 66 19 109t53 68.5t81.5 35.5t104.5 10h158q-3 48 -11.5 75.5t-25.5 41t-44.5 17t-68.5 3.5q-30 0 -59 -4t-54.5 -10t-46.5 -12.5t-35 -11.5l-33 103
q42 20 101 31t129 11q81 0 135.5 -12t87 -47t46.5 -100t14 -171v-16v-112q0 -49 14 -69t46 -25zM465 303h-159q-29 0 -52.5 -3.5t-41 -15.5t-27 -34.5t-9.5 -61.5q0 -30 10 -48t27 -27t41 -12t53 -3q51 0 82 13t48 39t22.5 63.5t5.5 87.5v2zM410 737h-118v123h118v-123z
M214 845v38h275v-38h-275z" />
    <glyph glyph-name="uni01E2" unicode="&#x1e2;" horiz-adv-x="819" 
d="M392 0v181h-160l-70 -181h-134l257 642h527l-10 -107h-278v-154h203v-97h-203v-176h288l-10 -108h-410zM392 529l-1 3h-6l-38 -91l-74 -169h119v257zM272 745v38h275v-38h-275z" />
    <glyph glyph-name="uni01E3" unicode="&#x1e3;" horiz-adv-x="1193" 
d="M1097 38q-21 -10 -51 -19t-64.5 -16t-71.5 -11.5t-72 -4.5q-53 0 -97 5.5t-80 20.5t-63 41.5t-44 67.5q-5 -8 -12 -23q-35 -53 -93.5 -81t-142.5 -28q-57 0 -104.5 9t-81.5 31.5t-53 61t-19 96.5q0 64 19 106t53 67t81.5 35t104.5 10h188q-3 50 -13 78.5t-31 42.5
t-54 17.5t-82 3.5q-30 0 -59 -4t-54.5 -10t-46.5 -12.5t-35 -11.5l-33 103q42 20 101 31t129 11q53 0 94 -4.5t72.5 -17t53 -34.5t35.5 -57q19 34 46 56t60 34.5t71 17.5t81 5q72 0 127.5 -14t93.5 -50.5t58 -99.5t20 -162v-36h-499q1 -63 13.5 -102t39 -60.5t68.5 -29
t103 -7.5q30 0 61.5 5.5t60 13t52 15.5l37.5 13zM495 298h-189q-29 0 -52.5 -3.5t-41 -15t-27 -33t-9.5 -58.5q0 -30 10 -48t27 -27t41 -12t53 -3q58 0 94.5 13t57 38.5t28 63t8.5 86.5v-1zM992 391q-3 50 -14 81t-31 48t-49 23t-69 6q-41 0 -75.5 -3.5t-61 -19t-42.5 -47.5
t-20 -88h362zM459 745v38h275v-38h-275z" />
    <glyph glyph-name="uni01E4" unicode="&#x1e4;" horiz-adv-x="711" 
d="M500 186h-105v38h105v55h-145l10 107h263v-162h102v-38h-102v-141q-20 -12 -49.5 -22t-64 -17.5t-72 -11.5t-73.5 -4q-76 0 -134.5 12t-98 48t-60 102t-20.5 173q0 106 23 171t65 100t101.5 47t133.5 12q70 0 129 -11t101 -31l-33 -103q-14 5 -35 11.5t-46.5 12.5
t-54.5 10t-59 4q-41 0 -76 -5.5t-60.5 -27.5t-40 -66.5t-14.5 -122.5q0 -73 10 -118t32.5 -69.5t59.5 -33t92 -8.5q31 0 63.5 5.5t52.5 12.5v71z" />
    <glyph glyph-name="uni01E5" unicode="&#x1e5;" horiz-adv-x="718" 
d="M500 186h-105v38h105v55h-145l10 107h263v-162h102v-38h-102v-141q-20 -12 -49.5 -22t-64 -17.5t-72 -11.5t-73.5 -4q-76 0 -134.5 12t-98 48t-60 102t-20.5 173q0 106 23 171t65 100t101.5 47t133.5 12q70 0 129 -11t101 -31l-33 -103q-14 5 -35 11.5t-46.5 12.5
t-54.5 10t-59 4q-41 0 -76 -5.5t-60.5 -27.5t-40 -66.5t-14.5 -122.5q0 -73 10 -118t32.5 -69.5t59.5 -33t92 -8.5q31 0 63.5 5.5t52.5 12.5v71z" />
    <glyph glyph-name="Gcaron" unicode="&#x1e6;" horiz-adv-x="672" 
d="M500 279h-145l10 107h263v-341q-20 -12 -49.5 -22t-64 -17.5t-72 -11.5t-73.5 -4q-76 0 -134.5 12t-98 48t-60 102t-20.5 173q0 106 23 171t65 100t101.5 47t133.5 12q70 0 129 -11t101 -31l-33 -103q-14 5 -35 11.5t-46.5 12.5t-54.5 10t-59 4q-41 0 -76 -5.5
t-60.5 -27.5t-40 -66.5t-14.5 -122.5q0 -73 10 -118t32.5 -69.5t59.5 -33t92 -8.5q31 0 63.5 5.5t52.5 12.5v164zM294 707l-44 53l-44 54h72l59 -84l59 84h69l-91 -107h-80z" />
    <glyph glyph-name="gcaron" unicode="&#x1e7;" horiz-adv-x="672" 
d="M500 279h-145l10 107h263v-341q-20 -12 -49.5 -22t-64 -17.5t-72 -11.5t-73.5 -4q-76 0 -134.5 12t-98 48t-60 102t-20.5 173q0 106 23 171t65 100t101.5 47t133.5 12q70 0 129 -11t101 -31l-33 -103q-14 5 -35 11.5t-46.5 12.5t-54.5 10t-59 4q-41 0 -76 -5.5
t-60.5 -27.5t-40 -66.5t-14.5 -122.5q0 -73 10 -118t32.5 -69.5t59.5 -33t92 -8.5q31 0 63.5 5.5t52.5 12.5v164zM294 707l-44 53l-44 54h72l59 -84l59 84h69l-91 -107h-80z" />
    <glyph glyph-name="uni01E8" unicode="&#x1e8;" horiz-adv-x="675" 
d="M269 267h-59v-267h-131v642h131v-268h59l197 268h154l-122.5 -160.5l-123.5 -160.5l123.5 -161l122.5 -160h-154zM296 707l-44 53l-44 54h72l59 -84l59 84h69l-91 -107h-80z" />
    <glyph glyph-name="uni01E9" unicode="&#x1e9;" horiz-adv-x="680" 
d="M261 267h-57v-267h-131v642h131v-268h57l204 268h149l-122.5 -160.5l-123.5 -160.5l182 -216q7 -6 18 -9t23 -3.5t24 0t23 0.5l-11 -93q-31 -3 -59 -3.5t-54.5 8.5t-53.5 29.5t-56 58.5zM298 707l-44 53l-44 54h72l59 -84l59 84h69l-91 -107h-80z" />
    <glyph glyph-name="uni01EA" unicode="&#x1ea;" 
d="M460 -148q-26 -3 -59 -3q-63 0 -95 23.5t-32 52.5q0 21 21 37.5t65 21.5l-2 6q-63 1 -118 14t-95.5 49t-64 100.5t-23.5 168.5q0 108 25.5 173.5t69 101t102 47t125.5 11.5t125.5 -11.5t102 -47t69 -101t25.5 -173.5q0 -104 -23.5 -168.5t-64.5 -100.5t-96.5 -49.5
t-118.5 -14.5l6 -18q-24 -1 -38 -4.5t-21 -9t-9 -12t-2 -14.5q0 -17 17 -32q23 -14 69 -14h14t17 1h4zM379 549q-38 0 -72 -3.5t-60 -25t-41 -67.5t-15 -131t15 -131t41 -67.5t60 -25t72 -3.5q37 0 71 3.5t60 25t41.5 67.5t15.5 131t-15.5 131t-42 67.5t-60.5 25t-70 3.5z
" />
    <glyph glyph-name="uni01EB" unicode="&#x1eb;" 
d="M460 -148q-26 -3 -59 -3q-63 0 -95 23.5t-32 52.5q0 21 21 37.5t65 21.5l-2 6q-63 1 -118 14t-95.5 49t-64 100.5t-23.5 168.5q0 108 25.5 173.5t69 101t102 47t125.5 11.5t125.5 -11.5t102 -47t69 -101t25.5 -173.5q0 -104 -23.5 -168.5t-64.5 -100.5t-96.5 -49.5
t-118.5 -14.5l6 -18q-24 -1 -38 -4.5t-21 -9t-9 -12t-2 -14.5q0 -17 17 -32q23 -14 69 -14h14t17 1h4zM379 549q-38 0 -72 -3.5t-60 -25t-41 -67.5t-15 -131t15 -131t41 -67.5t60 -25t72 -3.5q37 0 71 3.5t60 25t41.5 67.5t15.5 131t-15.5 131t-42 67.5t-60.5 25t-70 3.5z
" />
    <glyph glyph-name="uni01EC" unicode="&#x1ec;" 
d="M460 -148q-26 -3 -59 -3q-63 0 -95 23.5t-32 52.5q0 21 21 37.5t65 21.5l-2 6q-63 1 -118 14t-95.5 49t-64 100.5t-23.5 168.5q0 108 25.5 173.5t69 101t102 47t125.5 11.5t125.5 -11.5t102 -47t69 -101t25.5 -173.5q0 -104 -23.5 -168.5t-64.5 -100.5t-96.5 -49.5
t-118.5 -14.5l6 -18q-24 -1 -38 -4.5t-21 -9t-9 -12t-2 -14.5q0 -17 17 -32q23 -14 69 -14h14t17 1h4zM379 549q-38 0 -72 -3.5t-60 -25t-41 -67.5t-15 -131t15 -131t41 -67.5t60 -25t72 -3.5q37 0 71 3.5t60 25t41.5 67.5t15.5 131t-15.5 131t-42 67.5t-60.5 25t-70 3.5z
M241 745v38h275v-38h-275z" />
    <glyph glyph-name="uni01ED" unicode="&#x1ed;" 
d="M460 -148q-26 -3 -59 -3q-63 0 -95 23.5t-32 52.5q0 21 21 37.5t65 21.5l-2 6q-63 1 -118 14t-95.5 49t-64 100.5t-23.5 168.5q0 108 25.5 173.5t69 101t102 47t125.5 11.5t125.5 -11.5t102 -47t69 -101t25.5 -173.5q0 -104 -23.5 -168.5t-64.5 -100.5t-96.5 -49.5
t-118.5 -14.5l6 -18q-24 -1 -38 -4.5t-21 -9t-9 -12t-2 -14.5q0 -17 17 -32q23 -14 69 -14h14t17 1h4zM379 549q-38 0 -72 -3.5t-60 -25t-41 -67.5t-15 -131t15 -131t41 -67.5t60 -25t72 -3.5q37 0 71 3.5t60 25t41.5 67.5t15.5 131t-15.5 131t-42 67.5t-60.5 25t-70 3.5z
M241 745v38h275v-38h-275z" />
    <glyph glyph-name="uni01F0" unicode="&#x1f0;" horiz-adv-x="322" 
d="M6 98q31 0 52.5 2t35 11.5t19.5 29.5t6 56v445h131v-441q0 -66 -12.5 -106.5t-41.5 -62.5t-77 -29.5t-119 -7.5zM173 707l-44 53l-44 54h72l59 -84l59 84h69l-91 -107h-80z" />
    <glyph glyph-name="uni01F4" unicode="&#x1f4;" horiz-adv-x="672" 
d="M500 279h-145l10 107h263v-341q-20 -12 -49.5 -22t-64 -17.5t-72 -11.5t-73.5 -4q-76 0 -134.5 12t-98 48t-60 102t-20.5 173q0 106 23 171t65 100t101.5 47t133.5 12q70 0 129 -11t101 -31l-33 -103q-14 5 -35 11.5t-46.5 12.5t-54.5 10t-59 4q-41 0 -76 -5.5
t-60.5 -27.5t-40 -66.5t-14.5 -122.5q0 -73 10 -118t32.5 -69.5t59.5 -33t92 -8.5q31 0 63.5 5.5t52.5 12.5v164zM267 707l53 107h85q-26 -29 -45.5 -53.5l-42.5 -53.5h-50z" />
    <glyph glyph-name="uni01F5" unicode="&#x1f5;" horiz-adv-x="672" 
d="M500 279h-145l10 107h263v-341q-20 -12 -49.5 -22t-64 -17.5t-72 -11.5t-73.5 -4q-76 0 -134.5 12t-98 48t-60 102t-20.5 173q0 106 23 171t65 100t101.5 47t133.5 12q70 0 129 -11t101 -31l-33 -103q-14 5 -35 11.5t-46.5 12.5t-54.5 10t-59 4q-41 0 -76 -5.5
t-60.5 -27.5t-40 -66.5t-14.5 -122.5q0 -73 10 -118t32.5 -69.5t59.5 -33t92 -8.5q31 0 63.5 5.5t52.5 12.5v164zM267 707l53 107h85q-26 -29 -45.5 -53.5l-42.5 -53.5h-50z" />
    <glyph glyph-name="uni01F8" unicode="&#x1f8;" horiz-adv-x="685" 
d="M466 0l-259 424v-424h-128v642h140l259 -422v422h127v-642h-139zM367 707l-94 107h86l53 -107h-45z" />
    <glyph glyph-name="uni01F9" unicode="&#x1f9;" horiz-adv-x="685" 
d="M466 0l-259 424v-424h-128v642h140l259 -422v422h127v-642h-139zM367 707l-94 107h86l53 -107h-45z" />
    <glyph glyph-name="Aringacute" unicode="&#x1fa;" horiz-adv-x="657" 
d="M401 642l227 -642h-144l-56 181h-201l-55 -181h-144l227 642h146zM256 274h144l-51 167l-18 101h-6l-18 -101zM328 725q13 0 22.5 5t9.5 32q0 26 -10 30.5t-22 4.5q-13 0 -22.5 -4.5t-9.5 -30.5q0 -27 9.5 -32t22.5 -5zM328 695q-14 0 -25.5 2.5t-20 9.5t-13.5 20t-5 35
q0 21 5 34t13.5 20t20 9.5t25.5 2.5q13 0 25 -2.5t20.5 -9.5t13.5 -20t5 -34q0 -22 -5 -35t-13.5 -20t-20.5 -9.5t-25 -2.5zM259 857l53 107h85q-26 -29 -45.5 -53.5l-42.5 -53.5h-50z" />
    <glyph glyph-name="aringacute" unicode="&#x1fb;" horiz-adv-x="703" 
d="M648 -1q-64 7 -94.5 29t-41.5 71q-31 -53 -82.5 -81t-123.5 -28q-57 0 -104.5 9t-81.5 31.5t-53 61t-19 96.5q0 66 19 109t53 68.5t81.5 35.5t104.5 10h158q-3 48 -11.5 75.5t-25.5 41t-44.5 17t-68.5 3.5q-30 0 -59 -4t-54.5 -10t-46.5 -12.5t-35 -11.5l-33 103
q42 20 101 31t129 11q81 0 135.5 -12t87 -47t46.5 -100t14 -171v-16v-112q0 -49 14 -69t46 -25zM465 303h-159q-29 0 -52.5 -3.5t-41 -15.5t-27 -34.5t-9.5 -61.5q0 -30 10 -48t27 -27t41 -12t53 -3q51 0 82 13t48 39t22.5 63.5t5.5 87.5v2zM351 725q13 0 22.5 5t9.5 32
q0 26 -10 30.5t-22 4.5q-13 0 -22.5 -4.5t-9.5 -30.5q0 -27 9.5 -32t22.5 -5zM351 695q-14 0 -25.5 2.5t-20 9.5t-13.5 20t-5 35q0 21 5 34t13.5 20t20 9.5t25.5 2.5q13 0 25 -2.5t20.5 -9.5t13.5 -20t5 -34q0 -22 -5 -35t-13.5 -20t-20.5 -9.5t-25 -2.5zM282 857l53 107h85
q-26 -29 -45.5 -53.5l-42.5 -53.5h-50z" />
    <glyph glyph-name="AEacute" unicode="&#x1fc;" horiz-adv-x="819" 
d="M392 0v181h-160l-70 -181h-134l257 642h527l-10 -107h-278v-154h203v-97h-203v-176h288l-10 -108h-410zM392 529l-1 3h-6l-38 -91l-74 -169h119v257zM340 707l53 107h85q-26 -29 -45.5 -53.5l-42.5 -53.5h-50z" />
    <glyph glyph-name="aeacute" unicode="&#x1fd;" horiz-adv-x="1193" 
d="M1097 38q-21 -10 -51 -19t-64.5 -16t-71.5 -11.5t-72 -4.5q-53 0 -97 5.5t-80 20.5t-63 41.5t-44 67.5q-5 -8 -12 -23q-35 -53 -93.5 -81t-142.5 -28q-57 0 -104.5 9t-81.5 31.5t-53 61t-19 96.5q0 64 19 106t53 67t81.5 35t104.5 10h188q-3 50 -13 78.5t-31 42.5
t-54 17.5t-82 3.5q-30 0 -59 -4t-54.5 -10t-46.5 -12.5t-35 -11.5l-33 103q42 20 101 31t129 11q53 0 94 -4.5t72.5 -17t53 -34.5t35.5 -57q19 34 46 56t60 34.5t71 17.5t81 5q72 0 127.5 -14t93.5 -50.5t58 -99.5t20 -162v-36h-499q1 -63 13.5 -102t39 -60.5t68.5 -29
t103 -7.5q30 0 61.5 5.5t60 13t52 15.5l37.5 13zM495 298h-189q-29 0 -52.5 -3.5t-41 -15t-27 -33t-9.5 -58.5q0 -30 10 -48t27 -27t41 -12t53 -3q58 0 94.5 13t57 38.5t28 63t8.5 86.5v-1zM992 391q-3 50 -14 81t-31 48t-49 23t-69 6q-41 0 -75.5 -3.5t-61 -19t-42.5 -47.5
t-20 -88h362zM527 707l53 107h85q-26 -29 -45.5 -53.5l-42.5 -53.5h-50z" />
    <glyph glyph-name="Oslashacute" unicode="&#x1fe;" 
d="M655 540q22 -38 34 -91t12 -127q0 -108 -25.5 -173.5t-69 -101t-102 -47t-125.5 -11.5q-69 0 -129.5 12.5t-104.5 51.5l-55 -53l-64 37l75 71q-21 37 -32.5 89.5t-11.5 124.5q0 108 25.5 173.5t69 101t102 47t125.5 11.5q69 0 128 -12t104 -50l51 49l62 -36zM567 322
q0 38 -3.5 68t-9.5 53l-321 -306q13 -16 29.5 -24.5t35 -12.5t39 -4.5t42.5 -0.5q37 0 71 3.5t60 25t41.5 67.5t15.5 131zM379 549q-38 0 -72 -3.5t-60 -25t-41 -67.5t-15 -131q0 -71 11 -118l320 304q-27 30 -64.5 35.5t-78.5 5.5zM310 707l53 107h85q-26 -29 -45.5 -53.5
l-42.5 -53.5h-50z" />
    <glyph glyph-name="oslashacute" unicode="&#x1ff;" 
d="M655 540q22 -38 34 -91t12 -127q0 -108 -25.5 -173.5t-69 -101t-102 -47t-125.5 -11.5q-69 0 -129.5 12.5t-104.5 51.5l-55 -53l-64 37l75 71q-21 37 -32.5 89.5t-11.5 124.5q0 108 25.5 173.5t69 101t102 47t125.5 11.5q69 0 128 -12t104 -50l51 49l62 -36zM567 322
q0 38 -3.5 68t-9.5 53l-321 -306q13 -16 29.5 -24.5t35 -12.5t39 -4.5t42.5 -0.5q37 0 71 3.5t60 25t41.5 67.5t15.5 131zM379 549q-38 0 -72 -3.5t-60 -25t-41 -67.5t-15 -131q0 -71 11 -118l320 304q-27 30 -64.5 35.5t-78.5 5.5zM310 707l53 107h85q-26 -29 -45.5 -53.5
l-42.5 -53.5h-50z" />
    <glyph glyph-name="uni0200" unicode="&#x200;" horiz-adv-x="657" 
d="M401 642l227 -642h-144l-56 181h-201l-55 -181h-144l227 642h146zM256 274h144l-51 167l-18 101h-6l-18 -101zM434 707l-42.5 53.5t-45.5 53.5h85l53 -107h-50zM260 707l-42.5 53.5t-45.5 53.5h85l53 -107h-50z" />
    <glyph glyph-name="uni0201" unicode="&#x201;" horiz-adv-x="703" 
d="M648 -1q-64 7 -94.5 29t-41.5 71q-31 -53 -82.5 -81t-123.5 -28q-57 0 -104.5 9t-81.5 31.5t-53 61t-19 96.5q0 66 19 109t53 68.5t81.5 35.5t104.5 10h158q-3 48 -11.5 75.5t-25.5 41t-44.5 17t-68.5 3.5q-30 0 -59 -4t-54.5 -10t-46.5 -12.5t-35 -11.5l-33 103
q42 20 101 31t129 11q81 0 135.5 -12t87 -47t46.5 -100t14 -171v-16v-112q0 -49 14 -69t46 -25zM465 303h-159q-29 0 -52.5 -3.5t-41 -15.5t-27 -34.5t-9.5 -61.5q0 -30 10 -48t27 -27t41 -12t53 -3q51 0 82 13t48 39t22.5 63.5t5.5 87.5v2zM457 707l-42.5 53.5t-45.5 53.5
h85l53 -107h-50zM283 707l-42.5 53.5t-45.5 53.5h85l53 -107h-50z" />
    <glyph glyph-name="uni0202" unicode="&#x202;" horiz-adv-x="657" 
d="M401 642l227 -642h-144l-56 181h-201l-55 -181h-144l227 642h146zM256 274h144l-51 167l-18 101h-6l-18 -101zM424 707q-9 35 -32 52t-67 17q-75 0 -92 -69h-43q9 57 44 84.5t94 27.5q57 0 92.5 -29.5t45.5 -82.5h-42z" />
    <glyph glyph-name="uni0203" unicode="&#x203;" horiz-adv-x="703" 
d="M648 -1q-64 7 -94.5 29t-41.5 71q-31 -53 -82.5 -81t-123.5 -28q-57 0 -104.5 9t-81.5 31.5t-53 61t-19 96.5q0 66 19 109t53 68.5t81.5 35.5t104.5 10h158q-3 48 -11.5 75.5t-25.5 41t-44.5 17t-68.5 3.5q-30 0 -59 -4t-54.5 -10t-46.5 -12.5t-35 -11.5l-33 103
q42 20 101 31t129 11q81 0 135.5 -12t87 -47t46.5 -100t14 -171v-16v-112q0 -49 14 -69t46 -25zM465 303h-159q-29 0 -52.5 -3.5t-41 -15.5t-27 -34.5t-9.5 -61.5q0 -30 10 -48t27 -27t41 -12t53 -3q51 0 82 13t48 39t22.5 63.5t5.5 87.5v2zM447 707q-9 35 -32 52t-67 17
q-75 0 -92 -69h-43q9 57 44 84.5t94 27.5q57 0 92.5 -29.5t45.5 -82.5h-42z" />
    <glyph glyph-name="uni0204" unicode="&#x204;" horiz-adv-x="566" 
d="M79 0v642h480l-10 -107h-338v-149h263v-107h-263v-171h348l-10 -108h-470zM389 707l-42.5 53.5t-45.5 53.5h85l53 -107h-50zM215 707l-42.5 53.5t-45.5 53.5h85l53 -107h-50z" />
    <glyph glyph-name="uni0205" unicode="&#x205;" horiz-adv-x="704" 
d="M193 278q3 -59 14.5 -95t34.5 -55.5t58 -26.5t86 -7q30 0 61.5 5.5t60 13t52 15.5l37.5 13l33 -103q-21 -10 -51 -19t-64.5 -16t-71.5 -11.5t-72 -4.5q-75 0 -133 12t-98 47.5t-61 99t-21 167.5q0 108 22.5 175t63 104t96 50t122.5 13q72 0 127.5 -14t93.5 -50.5
t58 -99.5t20 -162v-51h-468zM525 386q-3 52 -14 84t-31 49.5t-49 23.5t-69 6q-35 0 -64.5 -3.5t-52 -19.5t-36 -49t-16.5 -91h332zM458 707l-42.5 53.5t-45.5 53.5h85l53 -107h-50zM284 707l-42.5 53.5t-45.5 53.5h85l53 -107h-50z" />
    <glyph glyph-name="uni0206" unicode="&#x206;" horiz-adv-x="566" 
d="M79 0v642h480l-10 -107h-338v-149h263v-107h-263v-171h348l-10 -108h-470zM379 707q-9 35 -32 52t-67 17q-75 0 -92 -69h-43q9 57 44 84.5t94 27.5q57 0 92.5 -29.5t45.5 -82.5h-42z" />
    <glyph glyph-name="uni0207" unicode="&#x207;" horiz-adv-x="704" 
d="M193 278q3 -59 14.5 -95t34.5 -55.5t58 -26.5t86 -7q30 0 61.5 5.5t60 13t52 15.5l37.5 13l33 -103q-21 -10 -51 -19t-64.5 -16t-71.5 -11.5t-72 -4.5q-75 0 -133 12t-98 47.5t-61 99t-21 167.5q0 108 22.5 175t63 104t96 50t122.5 13q72 0 127.5 -14t93.5 -50.5
t58 -99.5t20 -162v-51h-468zM525 386q-3 52 -14 84t-31 49.5t-49 23.5t-69 6q-35 0 -64.5 -3.5t-52 -19.5t-36 -49t-16.5 -91h332zM448 707q-9 35 -32 52t-67 17q-75 0 -92 -69h-43q9 57 44 84.5t94 27.5q57 0 92.5 -29.5t45.5 -82.5h-42z" />
    <glyph glyph-name="uni0208" unicode="&#x208;" horiz-adv-x="241" 
d="M50 0v642h132v-642h-132zM228 707l-42.5 53.5t-45.5 53.5h85l53 -107h-50zM54 707l-42.5 53.5t-45.5 53.5h85l53 -107h-50z" />
    <glyph glyph-name="uni0209" unicode="&#x209;" horiz-adv-x="241" 
d="M50 0v642h132v-642h-132zM228 707l-42.5 53.5t-45.5 53.5h85l53 -107h-50zM54 707l-42.5 53.5t-45.5 53.5h85l53 -107h-50z" />
    <glyph glyph-name="uni020A" unicode="&#x20a;" horiz-adv-x="241" 
d="M50 0v642h132v-642h-132zM218 707q-9 35 -32 52t-67 17q-75 0 -92 -69h-43q9 57 44 84.5t94 27.5q57 0 92.5 -29.5t45.5 -82.5h-42z" />
    <glyph glyph-name="uni020B" unicode="&#x20b;" horiz-adv-x="241" 
d="M50 0v642h132v-642h-132zM218 707q-9 35 -32 52t-67 17q-75 0 -92 -69h-43q9 57 44 84.5t94 27.5q57 0 92.5 -29.5t45.5 -82.5h-42z" />
    <glyph glyph-name="uni020C" unicode="&#x20c;" 
d="M379 549q-38 0 -72 -3.5t-60 -25t-41 -67.5t-15 -131t15 -131t41 -67.5t60 -25t72 -3.5q37 0 71 3.5t60 25t41.5 67.5t15.5 131t-15.5 131t-42 67.5t-60.5 25t-70 3.5zM57 322q0 108 25.5 173.5t69 101t102 47t125.5 11.5t125.5 -11.5t102 -47t69 -101t25.5 -173.5
t-25.5 -173.5t-69 -101t-102 -47t-125.5 -11.5t-125.5 11.5t-102 47t-69 101t-25.5 173.5zM485 707l-42.5 53.5t-45.5 53.5h85l53 -107h-50zM311 707l-42.5 53.5t-45.5 53.5h85l53 -107h-50z" />
    <glyph glyph-name="uni020D" unicode="&#x20d;" 
d="M379 549q-38 0 -72 -3.5t-60 -25t-41 -67.5t-15 -131t15 -131t41 -67.5t60 -25t72 -3.5q37 0 71 3.5t60 25t41.5 67.5t15.5 131t-15.5 131t-42 67.5t-60.5 25t-70 3.5zM57 322q0 108 25.5 173.5t69 101t102 47t125.5 11.5t125.5 -11.5t102 -47t69 -101t25.5 -173.5
t-25.5 -173.5t-69 -101t-102 -47t-125.5 -11.5t-125.5 11.5t-102 47t-69 101t-25.5 173.5zM485 707l-42.5 53.5t-45.5 53.5h85l53 -107h-50zM311 707l-42.5 53.5t-45.5 53.5h85l53 -107h-50z" />
    <glyph glyph-name="uni020E" unicode="&#x20e;" 
d="M379 549q-38 0 -72 -3.5t-60 -25t-41 -67.5t-15 -131t15 -131t41 -67.5t60 -25t72 -3.5q37 0 71 3.5t60 25t41.5 67.5t15.5 131t-15.5 131t-42 67.5t-60.5 25t-70 3.5zM57 322q0 108 25.5 173.5t69 101t102 47t125.5 11.5t125.5 -11.5t102 -47t69 -101t25.5 -173.5
t-25.5 -173.5t-69 -101t-102 -47t-125.5 -11.5t-125.5 11.5t-102 47t-69 101t-25.5 173.5zM475 707q-9 35 -32 52t-67 17q-75 0 -92 -69h-43q9 57 44 84.5t94 27.5q57 0 92.5 -29.5t45.5 -82.5h-42z" />
    <glyph glyph-name="uni020F" unicode="&#x20f;" 
d="M379 549q-38 0 -72 -3.5t-60 -25t-41 -67.5t-15 -131t15 -131t41 -67.5t60 -25t72 -3.5q37 0 71 3.5t60 25t41.5 67.5t15.5 131t-15.5 131t-42 67.5t-60.5 25t-70 3.5zM57 322q0 108 25.5 173.5t69 101t102 47t125.5 11.5t125.5 -11.5t102 -47t69 -101t25.5 -173.5
t-25.5 -173.5t-69 -101t-102 -47t-125.5 -11.5t-125.5 11.5t-102 47t-69 101t-25.5 173.5zM475 707q-9 35 -32 52t-67 17q-75 0 -92 -69h-43q9 57 44 84.5t94 27.5q57 0 92.5 -29.5t45.5 -82.5h-42z" />
    <glyph glyph-name="uni0210" unicode="&#x210;" horiz-adv-x="669" 
d="M467 0l-170 231h-86v-231h-132v642h260q71 0 119 -7.5t77 -29.5t41.5 -62.5t12.5 -106.5q0 -53 -7.5 -89t-25 -59t-46 -35.5t-70.5 -17.5l178 -235h-151zM341 338q31 0 52.5 2t35 12t19.5 29.5t6 54.5q0 36 -6 56t-19.5 29.5t-35 11.5t-52.5 2h-130v-197h130zM440 707
l-42.5 53.5t-45.5 53.5h85l53 -107h-50zM266 707l-42.5 53.5t-45.5 53.5h85l53 -107h-50z" />
    <glyph glyph-name="uni0211" unicode="&#x211;" horiz-adv-x="681" 
d="M79 0v642h259q71 0 119 -7.5t77 -29.5t41.5 -62.5t12.5 -106.5q0 -53 -7.5 -88.5t-25 -59t-46 -35.5t-69.5 -17l110 -131q6 -7 16.5 -10t23 -3.5t25 0.5t23.5 1l-11 -93q-31 -3 -58.5 -3t-53.5 9t-53 29.5t-58 57.5l-114 138h-79v-231h-132zM453 439q0 34 -6 53.5t-19 29
t-35 11.5t-53 2h-129v-197h129q31 0 53 2t35 11.5t19 28.5t6 53v6zM446 707l-42.5 53.5t-45.5 53.5h85l53 -107h-50zM272 707l-42.5 53.5t-45.5 53.5h85l53 -107h-50z" />
    <glyph glyph-name="uni0212" unicode="&#x212;" horiz-adv-x="669" 
d="M467 0l-170 231h-86v-231h-132v642h260q71 0 119 -7.5t77 -29.5t41.5 -62.5t12.5 -106.5q0 -53 -7.5 -89t-25 -59t-46 -35.5t-70.5 -17.5l178 -235h-151zM341 338q31 0 52.5 2t35 12t19.5 29.5t6 54.5q0 36 -6 56t-19.5 29.5t-35 11.5t-52.5 2h-130v-197h130zM430 707
q-9 35 -32 52t-67 17q-75 0 -92 -69h-43q9 57 44 84.5t94 27.5q57 0 92.5 -29.5t45.5 -82.5h-42z" />
    <glyph glyph-name="uni0213" unicode="&#x213;" horiz-adv-x="681" 
d="M79 0v642h259q71 0 119 -7.5t77 -29.5t41.5 -62.5t12.5 -106.5q0 -53 -7.5 -88.5t-25 -59t-46 -35.5t-69.5 -17l110 -131q6 -7 16.5 -10t23 -3.5t25 0.5t23.5 1l-11 -93q-31 -3 -58.5 -3t-53.5 9t-53 29.5t-58 57.5l-114 138h-79v-231h-132zM453 439q0 34 -6 53.5t-19 29
t-35 11.5t-53 2h-129v-197h129q31 0 53 2t35 11.5t19 28.5t6 53v6zM436 707q-9 35 -32 52t-67 17q-75 0 -92 -69h-43q9 57 44 84.5t94 27.5q57 0 92.5 -29.5t45.5 -82.5h-42z" />
    <glyph glyph-name="uni0214" unicode="&#x214;" horiz-adv-x="686" 
d="M483 642h131v-372q0 -75 -10 -128.5t-39 -87t-82 -49.5t-139 -16t-139.5 16t-83 49.5t-40 87t-10.5 128.5v372h131v-371q0 -47 4.5 -80t19.5 -54t43 -30.5t75 -9.5q46 0 74 9.5t42 30.5t18.5 54t4.5 80v371zM449 707l-42.5 53.5t-45.5 53.5h85l53 -107h-50zM275 707
l-42.5 53.5t-45.5 53.5h85l53 -107h-50z" />
    <glyph glyph-name="uni0215" unicode="&#x215;" horiz-adv-x="668" 
d="M483 642h131v-372q0 -75 -10 -128.5t-39 -87t-82 -49.5t-139 -16t-139.5 16t-83 49.5t-40 87t-10.5 128.5v372h131v-371q0 -47 4.5 -80t19.5 -54t43 -30.5t75 -9.5q46 0 74 9.5t42 30.5t18.5 54t4.5 80v371zM440 707l-42.5 53.5t-45.5 53.5h85l53 -107h-50zM266 707
l-42.5 53.5t-45.5 53.5h85l53 -107h-50z" />
    <glyph glyph-name="uni0216" unicode="&#x216;" horiz-adv-x="686" 
d="M483 642h131v-372q0 -75 -10 -128.5t-39 -87t-82 -49.5t-139 -16t-139.5 16t-83 49.5t-40 87t-10.5 128.5v372h131v-371q0 -47 4.5 -80t19.5 -54t43 -30.5t75 -9.5q46 0 74 9.5t42 30.5t18.5 54t4.5 80v371zM439 707q-9 35 -32 52t-67 17q-75 0 -92 -69h-43q9 57 44 84.5
t94 27.5q57 0 92.5 -29.5t45.5 -82.5h-42z" />
    <glyph glyph-name="uni0217" unicode="&#x217;" horiz-adv-x="668" 
d="M483 642h131v-372q0 -75 -10 -128.5t-39 -87t-82 -49.5t-139 -16t-139.5 16t-83 49.5t-40 87t-10.5 128.5v372h131v-371q0 -47 4.5 -80t19.5 -54t43 -30.5t75 -9.5q46 0 74 9.5t42 30.5t18.5 54t4.5 80v371zM430 707q-9 35 -32 52t-67 17q-75 0 -92 -69h-43q9 57 44 84.5
t94 27.5q57 0 92.5 -29.5t45.5 -82.5h-42z" />
    <glyph glyph-name="Scommaaccent" unicode="&#x218;" horiz-adv-x="624" 
d="M522 512q-14 5 -37 11t-51 11.5t-59 9t-61 3.5q-60 0 -90.5 -15t-30.5 -54q0 -23 1.5 -35t8 -19.5t20 -12.5t36.5 -12q56 -14 112.5 -25.5t102.5 -32.5t75.5 -59t30.5 -105q0 -58 -19 -94.5t-53 -57.5t-81.5 -28.5t-104.5 -7.5q-35 0 -74 3.5t-76.5 10.5t-70.5 15.5
t-55 19.5l15 54.5t16 50.5q15 -6 39.5 -14t57.5 -15t73 -12t84 -5q28 0 50.5 1.5t38.5 8.5t24 22.5t8 43.5q0 21 -4 34t-13.5 20.5t-25 12t-37.5 9.5q-84 18 -143 32.5t-95.5 37.5t-53 60t-16.5 100q0 44 18.5 77t51 54.5t75 32.5t90.5 11q35 0 71.5 -2.5t70.5 -7.5
t63.5 -12t50.5 -17zM270 -293q26 11 37.5 33t14.5 61h-50v123h117v-133q0 -45 -21 -74.5t-65 -46.5z" />
    <glyph glyph-name="scommaaccent" unicode="&#x219;" horiz-adv-x="624" 
d="M522 512q-14 5 -37 11t-51 11.5t-59 9t-61 3.5q-60 0 -90.5 -15t-30.5 -54q0 -23 1.5 -35t8 -19.5t20 -12.5t36.5 -12q56 -14 112.5 -25.5t102.5 -32.5t75.5 -59t30.5 -105q0 -58 -19 -94.5t-53 -57.5t-81.5 -28.5t-104.5 -7.5q-35 0 -74 3.5t-76.5 10.5t-70.5 15.5
t-55 19.5l15 54.5t16 50.5q15 -6 39.5 -14t57.5 -15t73 -12t84 -5q28 0 50.5 1.5t38.5 8.5t24 22.5t8 43.5q0 21 -4 34t-13.5 20.5t-25 12t-37.5 9.5q-84 18 -143 32.5t-95.5 37.5t-53 60t-16.5 100q0 44 18.5 77t51 54.5t75 32.5t90.5 11q35 0 71.5 -2.5t70.5 -7.5
t63.5 -12t50.5 -17zM270 -293q26 11 37.5 33t14.5 61h-50v123h117v-133q0 -45 -21 -74.5t-65 -46.5z" />
    <glyph glyph-name="uni021A" unicode="&#x21a;" horiz-adv-x="543" 
d="M288 0l-5 -18q44 -5 65 -21.5t21 -37.5q0 -29 -32 -52.5t-95 -23.5q-34 0 -59 3l5 34h4q8 -1 17 -1h14q46 0 69 14q17 15 17 32q0 8 -2 14.5t-9 12t-21 9t-38 4.5l9 31h-44v535h-197l10 107h529l-10 -107h-200v-535h-48z" />
    <glyph glyph-name="uni021B" unicode="&#x21b;" horiz-adv-x="543" 
d="M288 0l-5 -18q44 -5 65 -21.5t21 -37.5q0 -29 -32 -52.5t-95 -23.5q-34 0 -59 3l5 34h4q8 -1 17 -1h14q46 0 69 14q17 15 17 32q0 8 -2 14.5t-9 12t-21 9t-38 4.5l9 31h-44v535h-197l10 107h529l-10 -107h-200v-535h-48z" />
    <glyph glyph-name="uni021E" unicode="&#x21e;" horiz-adv-x="681" 
d="M470 0v287h-260v-287h-131v642h131v-246h260v246h131v-642h-131zM299 707l-44 53l-44 54h72l59 -84l59 84h69l-91 -107h-80z" />
    <glyph glyph-name="uni021F" unicode="&#x21f;" horiz-adv-x="681" 
d="M470 0v287h-260v-287h-131v642h131v-246h260v246h131v-642h-131zM299 707l-44 53l-44 54h72l59 -84l59 84h69l-91 -107h-80z" />
    <glyph glyph-name="uni0226" unicode="&#x226;" horiz-adv-x="657" 
d="M401 642l227 -642h-144l-56 181h-201l-55 -181h-144l227 642h146zM256 274h144l-51 167l-18 101h-6l-18 -101zM387 737h-118v123h118v-123z" />
    <glyph glyph-name="uni0227" unicode="&#x227;" horiz-adv-x="703" 
d="M648 -1q-64 7 -94.5 29t-41.5 71q-31 -53 -82.5 -81t-123.5 -28q-57 0 -104.5 9t-81.5 31.5t-53 61t-19 96.5q0 66 19 109t53 68.5t81.5 35.5t104.5 10h158q-3 48 -11.5 75.5t-25.5 41t-44.5 17t-68.5 3.5q-30 0 -59 -4t-54.5 -10t-46.5 -12.5t-35 -11.5l-33 103
q42 20 101 31t129 11q81 0 135.5 -12t87 -47t46.5 -100t14 -171v-16v-112q0 -49 14 -69t46 -25zM465 303h-159q-29 0 -52.5 -3.5t-41 -15.5t-27 -34.5t-9.5 -61.5q0 -30 10 -48t27 -27t41 -12t53 -3q51 0 82 13t48 39t22.5 63.5t5.5 87.5v2zM410 737h-118v123h118v-123z" />
    <glyph glyph-name="uni0228" unicode="&#x228;" horiz-adv-x="566" 
d="M329 0l-6 -20q44 -5 65 -21.5t21 -37.5q0 -29 -32 -52.5t-95 -23.5q-34 0 -59 3l5 34h4q8 -1 17 -1h14q46 0 69 14q17 15 17 32q0 8 -2 14.5t-9 12t-21 9t-38 4.5l9 33h-209v642h480l-10 -107h-338v-149h263v-107h-263v-171h348l-10 -108h-220z" />
    <glyph glyph-name="uni0229" unicode="&#x229;" horiz-adv-x="704" 
d="M58 313q0 108 22.5 175t63 104t96 50t122.5 13q72 0 127.5 -14t93.5 -50.5t58 -99.5t20 -162v-51h-468q3 -59 14.5 -95t34.5 -55.5t58 -26.5t86 -7q30 0 61.5 5.5t60 13t52 15.5l37.5 13l33 -103q-20 -10 -49.5 -19t-63 -16t-70 -11.5t-70.5 -4.5l-1 -5q44 -5 65 -21.5
t21 -37.5q0 -29 -32 -52.5t-95 -23.5q-34 0 -59 3l5 34h4q8 -1 17 -1h14q46 0 69 14q17 15 17 32q0 8 -2 14.5t-9 12t-21 9t-38 4.5l5 19q-67 2 -119 16.5t-87.5 50.5t-54 98t-18.5 160zM525 386q-3 52 -14 84t-31 49.5t-49 23.5t-69 6q-35 0 -64.5 -3.5t-52 -19.5t-36 -49
t-16.5 -91h332z" />
    <glyph glyph-name="uni022A" unicode="&#x22a;" 
d="M379 549q-38 0 -72 -3.5t-60 -25t-41 -67.5t-15 -131t15 -131t41 -67.5t60 -25t72 -3.5q37 0 71 3.5t60 25t41.5 67.5t15.5 131t-15.5 131t-42 67.5t-60.5 25t-70 3.5zM57 322q0 108 25.5 173.5t69 101t102 47t125.5 11.5t125.5 -11.5t102 -47t69 -101t25.5 -173.5
t-25.5 -173.5t-69 -101t-102 -47t-125.5 -11.5t-125.5 11.5t-102 47t-69 101t-25.5 173.5zM235 723v123h110v-123h-110zM413 723v123h110v-123h-110zM241 845v38h275v-38h-275z" />
    <glyph glyph-name="uni022B" unicode="&#x22b;" 
d="M379 549q-38 0 -72 -3.5t-60 -25t-41 -67.5t-15 -131t15 -131t41 -67.5t60 -25t72 -3.5q37 0 71 3.5t60 25t41.5 67.5t15.5 131t-15.5 131t-42 67.5t-60.5 25t-70 3.5zM57 322q0 108 25.5 173.5t69 101t102 47t125.5 11.5t125.5 -11.5t102 -47t69 -101t25.5 -173.5
t-25.5 -173.5t-69 -101t-102 -47t-125.5 -11.5t-125.5 11.5t-102 47t-69 101t-25.5 173.5zM235 723v123h110v-123h-110zM413 723v123h110v-123h-110zM241 845v38h275v-38h-275z" />
    <glyph glyph-name="uni022C" unicode="&#x22c;" 
d="M379 549q-38 0 -72 -3.5t-60 -25t-41 -67.5t-15 -131t15 -131t41 -67.5t60 -25t72 -3.5q37 0 71 3.5t60 25t41.5 67.5t15.5 131t-15.5 131t-42 67.5t-60.5 25t-70 3.5zM57 322q0 108 25.5 173.5t69 101t102 47t125.5 11.5t125.5 -11.5t102 -47t69 -101t25.5 -173.5
t-25.5 -173.5t-69 -101t-102 -47t-125.5 -11.5t-125.5 11.5t-102 47t-69 101t-25.5 173.5zM528 803q-4 -40 -26.5 -62t-56.5 -22q-14 0 -32.5 6.5t-42.5 18.5q-33 18 -51 18q-12 0 -19.5 -3.5t-15.5 -11.5q-5 -5 -8 -12t-4 -18h-43q1 20 7 33.5t17 25.5q26 26 64 26
q14 0 33 -6.5t43 -17.5q30 -15 49 -15t29.5 8t15.5 32h41zM241 845v38h275v-38h-275z" />
    <glyph glyph-name="uni022D" unicode="&#x22d;" 
d="M379 549q-38 0 -72 -3.5t-60 -25t-41 -67.5t-15 -131t15 -131t41 -67.5t60 -25t72 -3.5q37 0 71 3.5t60 25t41.5 67.5t15.5 131t-15.5 131t-42 67.5t-60.5 25t-70 3.5zM57 322q0 108 25.5 173.5t69 101t102 47t125.5 11.5t125.5 -11.5t102 -47t69 -101t25.5 -173.5
t-25.5 -173.5t-69 -101t-102 -47t-125.5 -11.5t-125.5 11.5t-102 47t-69 101t-25.5 173.5zM528 803q-4 -40 -26.5 -62t-56.5 -22q-14 0 -32.5 6.5t-42.5 18.5q-33 18 -51 18q-12 0 -19.5 -3.5t-15.5 -11.5q-5 -5 -8 -12t-4 -18h-43q1 20 7 33.5t17 25.5q26 26 64 26
q14 0 33 -6.5t43 -17.5q30 -15 49 -15t29.5 8t15.5 32h41zM241 845v38h275v-38h-275z" />
    <glyph glyph-name="uni022E" unicode="&#x22e;" 
d="M379 549q-38 0 -72 -3.5t-60 -25t-41 -67.5t-15 -131t15 -131t41 -67.5t60 -25t72 -3.5q37 0 71 3.5t60 25t41.5 67.5t15.5 131t-15.5 131t-42 67.5t-60.5 25t-70 3.5zM57 322q0 108 25.5 173.5t69 101t102 47t125.5 11.5t125.5 -11.5t102 -47t69 -101t25.5 -173.5
t-25.5 -173.5t-69 -101t-102 -47t-125.5 -11.5t-125.5 11.5t-102 47t-69 101t-25.5 173.5zM438 737h-118v123h118v-123z" />
    <glyph glyph-name="uni022F" unicode="&#x22f;" 
d="M379 549q-38 0 -72 -3.5t-60 -25t-41 -67.5t-15 -131t15 -131t41 -67.5t60 -25t72 -3.5q37 0 71 3.5t60 25t41.5 67.5t15.5 131t-15.5 131t-42 67.5t-60.5 25t-70 3.5zM57 322q0 108 25.5 173.5t69 101t102 47t125.5 11.5t125.5 -11.5t102 -47t69 -101t25.5 -173.5
t-25.5 -173.5t-69 -101t-102 -47t-125.5 -11.5t-125.5 11.5t-102 47t-69 101t-25.5 173.5zM438 737h-118v123h118v-123z" />
    <glyph glyph-name="uni0230" unicode="&#x230;" 
d="M379 549q-38 0 -72 -3.5t-60 -25t-41 -67.5t-15 -131t15 -131t41 -67.5t60 -25t72 -3.5q37 0 71 3.5t60 25t41.5 67.5t15.5 131t-15.5 131t-42 67.5t-60.5 25t-70 3.5zM57 322q0 108 25.5 173.5t69 101t102 47t125.5 11.5t125.5 -11.5t102 -47t69 -101t25.5 -173.5
t-25.5 -173.5t-69 -101t-102 -47t-125.5 -11.5t-125.5 11.5t-102 47t-69 101t-25.5 173.5zM438 737h-118v123h118v-123zM241 845v38h275v-38h-275z" />
    <glyph glyph-name="uni0231" unicode="&#x231;" 
d="M379 549q-38 0 -72 -3.5t-60 -25t-41 -67.5t-15 -131t15 -131t41 -67.5t60 -25t72 -3.5q37 0 71 3.5t60 25t41.5 67.5t15.5 131t-15.5 131t-42 67.5t-60.5 25t-70 3.5zM57 322q0 108 25.5 173.5t69 101t102 47t125.5 11.5t125.5 -11.5t102 -47t69 -101t25.5 -173.5
t-25.5 -173.5t-69 -101t-102 -47t-125.5 -11.5t-125.5 11.5t-102 47t-69 101t-25.5 173.5zM438 737h-118v123h118v-123zM241 845v38h275v-38h-275z" />
    <glyph glyph-name="uni0232" unicode="&#x232;" horiz-adv-x="618" 
d="M239 0v274l-113 184l-113 184h146l58.5 -97.5l58.5 -97.5q8 -29 16 -64l14 -63l16 60.5l17 66.5l61.5 97.5t66.5 97.5h139l-235 -368v-274h-132zM171 745v38h275v-38h-275z" />
    <glyph glyph-name="uni0233" unicode="&#x233;" horiz-adv-x="618" 
d="M239 0v274l-113 184l-113 184h146l58.5 -97.5l58.5 -97.5q8 -29 16 -64l14 -63l16 60.5l17 66.5l61.5 97.5t66.5 97.5h139l-235 -368v-274h-132zM171 745v38h275v-38h-275z" />
    <glyph glyph-name="circumflex" unicode="&#x2c6;" horiz-adv-x="326" 
d="M224 547l-59 84l-59 -84h-72l44 54l44 53h80l91 -107h-69z" />
    <glyph glyph-name="caron" unicode="&#x2c7;" horiz-adv-x="380" 
d="M238 693h-96l-92 102h77l63 -75l63 75h77z" />
    <glyph glyph-name="breve" unicode="&#x2d8;" horiz-adv-x="376" 
d="M326 795q-10 -53 -45.5 -82.5t-92.5 -29.5q-59 0 -94 27.5t-44 84.5h43q17 -69 92 -69q44 0 67 17t32 52h42z" />
    <glyph glyph-name="dotaccent" unicode="&#x2d9;" horiz-adv-x="170" 
d="M122 577h-78v73h78v-73z" />
    <glyph glyph-name="ring" unicode="&#x2da;" horiz-adv-x="174" 
d="M90 565q13 0 22.5 5t9.5 32q0 26 -10 30.5t-22 4.5q-13 0 -22.5 -4.5t-9.5 -30.5q0 -27 9.5 -32t22.5 -5zM90 535q-14 0 -25.5 2.5t-20 9.5t-13.5 20t-5 35q0 21 5 34t13.5 20t20 9.5t25.5 2.5q13 0 25 -2.5t20.5 -9.5t13.5 -20t5 -34q0 -22 -5 -35t-13.5 -20t-20.5 -9.5
t-25 -2.5z" />
    <glyph glyph-name="tilde" unicode="&#x2dc;" horiz-adv-x="416" 
d="M360 643q-4 -40 -26.5 -62t-56.5 -22q-14 0 -32.5 6.5t-42.5 18.5q-33 18 -51 18q-12 0 -19.5 -3.5t-15.5 -11.5q-5 -5 -8 -12t-4 -18h-43q1 20 7 33.5t17 25.5q26 26 64 26q14 0 33 -6.5t43 -17.5q30 -15 49 -15t29.5 8t15.5 32h41z" />
    <glyph glyph-name="hungarumlaut" unicode="&#x2dd;" horiz-adv-x="348" 
d="M31 547l53 107h85q-26 -29 -45.5 -53.5l-42.5 -53.5h-50zM205 547l53 107h85q-26 -29 -45.5 -53.5l-42.5 -53.5h-50z" />
    <glyph glyph-name="gravecomb" unicode="&#x300;" horiz-adv-x="297" 
d="M173 707l-94 107h86l53 -107h-45z" />
    <glyph glyph-name="acutecomb" unicode="&#x301;" horiz-adv-x="296" 
d="M79 707l53 107h85q-26 -29 -45.5 -53.5l-42.5 -53.5h-50z" />
    <glyph glyph-name="uni0302" unicode="&#x302;" horiz-adv-x="417" 
d="M269 707l-59 84l-59 -84h-72l44 54l44 53h80l91 -107h-69z" />
    <glyph glyph-name="tildecomb" unicode="&#x303;" horiz-adv-x="457" 
d="M378 803q-4 -40 -26.5 -62t-56.5 -22q-14 0 -32.5 6.5t-42.5 18.5q-33 18 -51 18q-12 0 -19.5 -3.5t-15.5 -11.5q-5 -5 -8 -12t-4 -18h-43q1 20 7 33.5t17 25.5q26 26 64 26q14 0 33 -6.5t43 -17.5q30 -15 49 -15t29.5 8t15.5 32h41z" />
    <glyph glyph-name="uni0304" unicode="&#x304;" horiz-adv-x="433" 
d="M79 745v38h275v-38h-275z" />
    <glyph glyph-name="uni0306" unicode="&#x306;" horiz-adv-x="434" 
d="M355 819q-10 -53 -45.5 -82.5t-92.5 -29.5q-59 0 -94 27.5t-44 84.5h43q17 -69 92 -69q44 0 67 17t32 52h42z" />
    <glyph glyph-name="uni0307" unicode="&#x307;" horiz-adv-x="236" 
d="M177 737h-118v123h118v-123z" />
    <glyph glyph-name="uni0308" unicode="&#x308;" horiz-adv-x="406" 
d="M59 741v123h110v-123h-110zM237 741v123h110v-123h-110z" />
    <glyph glyph-name="hookabovecomb" unicode="&#x309;" horiz-adv-x="316" 
d="M108 725v33q0 29 18.5 41t44.5 17q10 2 12 3t2 4q0 10 -25 10q-12 0 -29.5 -4.5t-26.5 -6.5l-25 41q20 11 43.5 16.5t41.5 5.5q31 0 52 -16t21 -46q0 -29 -13.5 -41t-42.5 -18q-8 -2 -13.5 -3.5t-5.5 -4.5v-31h-54z" />
    <glyph glyph-name="uni030A" unicode="&#x30a;" horiz-adv-x="286" 
d="M143 725q13 0 22.5 5t9.5 32q0 26 -10 30.5t-22 4.5q-13 0 -22.5 -4.5t-9.5 -30.5q0 -27 9.5 -32t22.5 -5zM143 695q-14 0 -25.5 2.5t-20 9.5t-13.5 20t-5 35q0 21 5 34t13.5 20t20 9.5t25.5 2.5q13 0 25 -2.5t20.5 -9.5t13.5 -20t5 -34q0 -22 -5 -35t-13.5 -20
t-20.5 -9.5t-25 -2.5z" />
    <glyph glyph-name="uni030B" unicode="&#x30b;" horiz-adv-x="470" 
d="M79 707l53 107h85q-26 -29 -45.5 -53.5l-42.5 -53.5h-50zM253 707l53 107h85q-26 -29 -45.5 -53.5l-42.5 -53.5h-50z" />
    <glyph glyph-name="uni030C" unicode="&#x30c;" horiz-adv-x="417" 
d="M167 707l-44 53l-44 54h72l59 -84l59 84h69l-91 -107h-80z" />
    <glyph glyph-name="uni030F" unicode="&#x30f;" horiz-adv-x="470" 
d="M341 707l-42.5 53.5t-45.5 53.5h85l53 -107h-50zM167 707l-42.5 53.5t-45.5 53.5h85l53 -107h-50z" />
    <glyph glyph-name="uni0310" unicode="&#x310;" horiz-adv-x="434" 
d="M355 819q-10 -53 -45.5 -82.5t-92.5 -29.5q-59 0 -94 27.5t-44 84.5h43q17 -69 92 -69q44 0 67 17t32 52h42zM256 802h-78v73h78v-73z" />
    <glyph glyph-name="uni0311" unicode="&#x311;" horiz-adv-x="434" 
d="M313 707q-9 35 -32 52t-67 17q-75 0 -92 -69h-43q9 57 44 84.5t94 27.5q57 0 92.5 -29.5t45.5 -82.5h-42z" />
    <glyph glyph-name="uni0316" unicode="&#x316;" horiz-adv-x="297" 
d="M173 -153l-94 107h86l53 -107h-45z" />
    <glyph glyph-name="uni0317" unicode="&#x317;" horiz-adv-x="297" 
d="M79 -153l53 107h86l-94 -107h-45z" />
    <glyph glyph-name="dotbelowcomb" unicode="&#x323;" horiz-adv-x="170" 
d="M142 -203h-118v123h118v-123z" />
    <glyph glyph-name="uni0324" unicode="&#x324;" horiz-adv-x="409" 
d="M59 -203v123h110v-123h-110zM237 -203v123h110v-123h-110z" />
    <glyph glyph-name="uni0325" unicode="&#x325;" horiz-adv-x="174" 
d="M90 -153q13 0 22.5 5t9.5 32q0 26 -10 30.5t-22 4.5q-13 0 -22.5 -4.5t-9.5 -30.5q0 -27 9.5 -32t22.5 -5zM90 -183q-14 0 -25.5 2.5t-20 9.5t-13.5 20t-5 35q0 21 5 34t13.5 20t20 9.5t25.5 2.5q13 0 25 -2.5t20.5 -9.5t13.5 -20t5 -34q0 -22 -5 -35t-13.5 -20
t-20.5 -9.5t-25 -2.5z" />
    <glyph glyph-name="uni032C" unicode="&#x32c;" horiz-adv-x="417" 
d="M167 -153l-44 53l-44 54h72l59 -84l59 84h69l-91 -107h-80z" />
    <glyph glyph-name="uni032D" unicode="&#x32d;" horiz-adv-x="417" 
d="M269 -153l-59 84l-59 -84h-72l44 54l44 53h80l91 -107h-69z" />
    <glyph glyph-name="uni032E" unicode="&#x32e;" horiz-adv-x="434" 
d="M355 -41q-10 -53 -45.5 -82.5t-92.5 -29.5q-59 0 -94 27.5t-44 84.5h43q17 -69 92 -69q44 0 67 17t32 52h42z" />
    <glyph glyph-name="uni032F" unicode="&#x32f;" horiz-adv-x="434" 
d="M313 -153q-9 35 -32 52t-67 17q-75 0 -92 -69h-43q9 57 44 84.5t94 27.5q57 0 92.5 -29.5t45.5 -82.5h-42z" />
    <glyph glyph-name="uni0330" unicode="&#x330;" horiz-adv-x="457" 
d="M378 -67q-4 -40 -26.5 -62t-56.5 -22q-14 0 -32.5 6.5t-42.5 18.5q-33 18 -51 18q-12 0 -19.5 -3.5t-15.5 -11.5q-5 -5 -8 -12t-4 -18h-43q1 20 7 33.5t17 25.5q26 26 64 26q14 0 33 -6.5t43 -17.5q30 -15 49 -15t29.5 8t15.5 32h41z" />
    <glyph glyph-name="uni0331" unicode="&#x331;" horiz-adv-x="433" 
d="M79 -113v38h275v-38h-275z" />
    <glyph glyph-name="uni0400" unicode="&#x400;" horiz-adv-x="583" 
d="M79 0v642h480l-10 -107h-338v-149h263v-107h-263v-171h348l-10 -108h-470zM316 707l-94 107h86l53 -107h-45z" />
    <glyph glyph-name="afii10023" unicode="&#x401;" horiz-adv-x="566" 
d="M176 723v123h110v-123h-110zM354 723v123h110v-123h-110zM79 0v642h480l-10 -107h-338v-149h263v-107h-263v-171h348l-10 -108h-470z" />
    <glyph glyph-name="afii10051" unicode="&#x402;" horiz-adv-x="789" 
d="M753 200q0 -66 -12.5 -106.5t-41.5 -62t-77 -29t-119 -7.5l10 107q30 0 50 2t32 11.5t17.5 28.5t5.5 53v12q0 34 -6 53t-19 28.5t-35 11.5t-53 2h-159v-304h-132v535h-197l10 107h529l-10 -107h-200v-124h157q71 0 119 -7.5t77 -29t41.5 -62t12.5 -106.5v-6z" />
    <glyph glyph-name="afii10052" unicode="&#x403;" horiz-adv-x="486" 
d="M79 0v642h407l-10 -107h-276v-535h-121zM174 689l53 107h85q-26 -29 -45.5 -53.5l-42.5 -53.5h-50z" />
    <glyph glyph-name="afii10053" unicode="&#x404;" horiz-adv-x="650" 
d="M614 31q-42 -20 -103.5 -32t-131.5 -12q-74 0 -133.5 12.5t-101.5 48.5t-65 101.5t-23 171.5t23 171.5t65 101.5t101.5 48.5t133.5 12.5q140 0 225 -40l-33 -103q-29 9 -79 22.5t-111 13.5q-37 0 -69 -4.5t-56.5 -22t-41 -50.5t-22.5 -90h342v-97h-343q3 -66 19 -104
t41 -57t58.5 -24t71.5 -5q30 0 60 4.5t56 10.5t48 13t36 12z" />
    <glyph glyph-name="afii10054" unicode="&#x405;" horiz-adv-x="624" 
d="M522 512q-14 5 -37 11t-51 11.5t-59 9t-61 3.5q-60 0 -90.5 -15t-30.5 -54q0 -23 1.5 -35t8 -19.5t20 -12.5t36.5 -12q56 -14 112.5 -25.5t102.5 -32.5t75.5 -59t30.5 -105q0 -58 -19 -94.5t-53 -57.5t-81.5 -28.5t-104.5 -7.5q-35 0 -74 3.5t-76.5 10.5t-70.5 15.5
t-55 19.5l15 54.5t16 50.5q15 -6 39.5 -14t57.5 -15t73 -12t84 -5q28 0 50.5 1.5t38.5 8.5t24 22.5t8 43.5q0 21 -4 34t-13.5 20.5t-25 12t-37.5 9.5q-84 18 -143 32.5t-95.5 37.5t-53 60t-16.5 100q0 44 18.5 77t51 54.5t75 32.5t90.5 11q35 0 71.5 -2.5t70.5 -7.5
t63.5 -12t50.5 -17z" />
    <glyph glyph-name="afii10055" unicode="&#x406;" horiz-adv-x="290" 
d="M79 0v642h132v-642h-132z" />
    <glyph glyph-name="afii10056" unicode="&#x407;" horiz-adv-x="290" 
d="M-2 723v123h110v-123h-110zM176 723v123h110v-123h-110zM79 0v642h132v-642h-132z" />
    <glyph glyph-name="afii10057" unicode="&#x408;" horiz-adv-x="322" 
d="M6 98q31 0 52.5 2t35 11.5t19.5 29.5t6 56v445h131v-441q0 -66 -12.5 -106.5t-41.5 -62.5t-77 -29.5t-119 -7.5z" />
    <glyph glyph-name="afii10058" unicode="&#x409;" horiz-adv-x="1117" 
d="M545 0v533h-219l-10 -332q-3 -66 -18.5 -107t-47 -63.5t-81 -30t-121.5 -7.5l6 103q32 0 55.5 2.5t39.5 12t24.5 30t11.5 56.5l20 445h472v-231h157q71 0 119 -7.5t77 -29t41.5 -62t12.5 -106.5t-12.5 -106.5t-41.5 -62.5t-77 -29.5t-119 -7.5h-289zM949 209q0 34 -6 53
t-19 28.5t-35 11.5t-53 2h-159v-197h159q31 0 53 2t35 11.5t19 29t6 53.5v6z" />
    <glyph glyph-name="afii10059" unicode="&#x40a;" horiz-adv-x="1071" 
d="M500 0v292h-290v-292h-131v642h131v-251h290v251h132v-231h157q71 0 119 -7.5t77 -29t41.5 -62t12.5 -106.5t-12.5 -106.5t-41.5 -62.5t-77 -29.5t-119 -7.5h-289zM904 209q0 34 -6 53t-19 28.5t-35 11.5t-53 2h-159v-197h159q31 0 53 2t35 11.5t19 29t6 53.5v6z" />
    <glyph glyph-name="afii10060" unicode="&#x40b;" horiz-adv-x="794" 
d="M755 0h-135v209q0 34 -6 53t-19 28.5t-35 11.5t-53 2h-159v-304h-132v535h-197l10 107h529l-10 -107h-200v-124h157q71 0 119 -7.5t77 -29t41.5 -62t12.5 -106.5v-206z" />
    <glyph glyph-name="afii10061" unicode="&#x40c;" horiz-adv-x="675" 
d="M269 267h-59v-267h-131v642h131v-268h59l197 268h154l-122.5 -160.5l-123.5 -160.5l123.5 -161l122.5 -160h-154zM268 689l53 107h85q-26 -29 -45.5 -53.5l-42.5 -53.5h-50z" />
    <glyph glyph-name="uni040D" unicode="&#x40d;" horiz-adv-x="685" 
d="M79 0v642h127v-422l259 422h140v-642h-128v424l-259 -424h-139zM367 707l-94 107h86l53 -107h-45z" />
    <glyph glyph-name="afii10062" unicode="&#x40e;" horiz-adv-x="633" 
d="M528 735q-16 -9 -41.5 -16.5t-55 -12t-61 -7.5t-58.5 -3q-27 1 -57.5 3.5t-59 7.5t-52.5 12t-39 16l27 53q11 -5 32.5 -11t47 -11.5t53.5 -9t52 -3.5t52 3.5t53.5 9t47 11.5t32.5 11zM157 97q19 0 34 1.5t27 6t21.5 12.5t17.5 22l-242 503h134l168 -342l9 -48l8 48
l146 342h141l-200 -442l-33.5 -69.5t-29 -53.5t-30.5 -39t-39.5 -25.5t-57 -14t-80.5 -4.5z" />
    <glyph glyph-name="afii10145" unicode="&#x40f;" horiz-adv-x="620" 
d="M369 0v-173l-118 -10v183h-202v642h131v-533h260v533h131v-642h-202z" />
    <glyph glyph-name="afii10017" unicode="&#x410;" horiz-adv-x="657" 
d="M401 642l227 -642h-144l-56 181h-201l-55 -181h-144l227 642h146zM256 274h144l-51 167l-18 101h-6l-18 -101z" />
    <glyph glyph-name="afii10018" unicode="&#x411;" horiz-adv-x="625" 
d="M79 0v642h478l-10 -107h-336v-124h127q71 0 119 -7.5t77 -29t41.5 -62t12.5 -106.5t-12.5 -106.5t-41.5 -62.5t-77 -29.5t-119 -7.5h-259zM453 209q0 34 -6 53t-19 28.5t-35 11.5t-53 2h-129v-197h129q31 0 53 2t35 11.5t19 29t6 53.5v6z" />
    <glyph glyph-name="afii10019" unicode="&#x412;" horiz-adv-x="675" 
d="M79 0v642h275q71 0 119 -6.5t76.5 -24t40.5 -49.5t12 -83q0 -38 -5 -63t-15.5 -42.5t-26 -29.5t-35.5 -22q20 -10 36.5 -21.5t28 -29t17.5 -43t6 -62.5q0 -51 -12.5 -83.5t-41.5 -50.5t-77 -25t-119 -7h-279zM360 107q31 0 53 1t36 6t20 17t6 35q0 39 -5.5 60t-18 30.5
t-32 11t-47.5 1.5h-181v-162h169zM372 376q27 0 46 2.5t30 12t16 29.5t5 56q0 21 -6 32.5t-19 17.5t-35 7.5t-53 1.5h-165v-159h181z" />
    <glyph glyph-name="afii10020" unicode="&#x413;" horiz-adv-x="486" 
d="M79 0v642h407l-10 -107h-276v-535h-121z" />
    <glyph glyph-name="afii10021" unicode="&#x414;" horiz-adv-x="708" 
d="M537 -124v124h-387v-98l-107 -10v217h22q29 9 43.5 46t18.5 112l18 375h442v-533h58v-223zM456 533h-190l-8 -262q-3 -61 -13 -100t-30 -62h241v424z" />
    <glyph glyph-name="afii10022" unicode="&#x415;" horiz-adv-x="583" 
d="M79 0v642h480l-10 -107h-338v-149h263v-107h-263v-171h348l-10 -108h-470z" />
    <glyph glyph-name="afii10024" unicode="&#x416;" horiz-adv-x="960" 
d="M551 0h-131v272h-14l-207 -272h-149l246 321l-226 321h149l189 -273h12v273h131v-273h12l189 273h149l-226 -321l246 -321h-149l-208 272h-13v-272z" />
    <glyph glyph-name="afii10025" unicode="&#x417;" horiz-adv-x="603" 
d="M141 274v97h161q28 0 47.5 2.5t31.5 11.5t17 26.5t5 49.5q0 27 -6 43.5t-19 25.5t-35 12.5t-53 3.5q-30 0 -64 -3.5t-65 -9t-56.5 -11.5t-39.5 -11l-33 103q21 10 50.5 17t63.5 12t70.5 7.5t71.5 2.5q71 0 119 -7.5t76.5 -26t40.5 -51.5t12 -84q0 -38 -6.5 -64t-19 -44
t-30.5 -31t-40 -23q22 -10 40.5 -22.5t31 -30.5t19.5 -44.5t7 -63.5q0 -51 -12.5 -84.5t-41.5 -53t-77 -27t-119 -7.5q-35 0 -71.5 2.5t-70.5 7.5t-63.5 12t-50.5 17l33 103q14 -5 39.5 -11t56.5 -11.5t65 -9t64 -3.5q31 0 53 1.5t36 10t20 25.5t6 48q0 34 -5.5 52.5
t-18 27.5t-32 11t-47.5 2h-161z" />
    <glyph glyph-name="afii10026" unicode="&#x418;" horiz-adv-x="685" 
d="M79 0v642h127v-422l259 422h140v-642h-128v424l-259 -424h-139z" />
    <glyph glyph-name="afii10027" unicode="&#x419;" horiz-adv-x="655" 
d="M540 735q-16 -9 -41.5 -16.5t-55 -12t-61 -7.5t-58.5 -3q-27 1 -57.5 3.5t-59 7.5t-52.5 12t-39 16l27 53q11 -5 32.5 -11t47 -11.5t53.5 -9t52 -3.5t52 3.5t53.5 9t47 11.5t32.5 11zM64 0v642h127v-422l259 422h140v-642h-128v424l-259 -424h-139z" />
    <glyph glyph-name="afii10028" unicode="&#x41a;" horiz-adv-x="675" 
d="M269 267h-59v-267h-131v642h131v-268h59l197 268h154l-122.5 -160.5l-123.5 -160.5l123.5 -161l122.5 -160h-154z" />
    <glyph glyph-name="afii10029" unicode="&#x41b;" horiz-adv-x="709" 
d="M498 0v533h-190l-20 -332q-3 -66 -17.5 -107t-45 -63.5t-78.5 -30t-117 -7.5l6 103q30 0 51.5 2.5t36.5 12t23 30t10 56.5l30 445h442v-642h-131z" />
    <glyph glyph-name="afii10030" unicode="&#x41c;" horiz-adv-x="855" 
d="M647 0v392h-3l-148 -392h-138l-148 392h-3v-392h-128v642h148l158 -382l42 -171l42 171l158 382h148v-642h-128z" />
    <glyph glyph-name="afii10031" unicode="&#x41d;" horiz-adv-x="681" 
d="M470 0v287h-260v-287h-131v642h131v-246h260v246h131v-642h-131z" />
    <glyph glyph-name="afii10032" unicode="&#x41e;" 
d="M379 549q-38 0 -72 -3.5t-60 -25t-41 -67.5t-15 -131t15 -131t41 -67.5t60 -25t72 -3.5q37 0 71 3.5t60 25t41.5 67.5t15.5 131t-15.5 131t-42 67.5t-60.5 25t-70 3.5zM57 322q0 108 25.5 173.5t69 101t102 47t125.5 11.5t125.5 -11.5t102 -47t69 -101t25.5 -173.5
t-25.5 -173.5t-69 -101t-102 -47t-125.5 -11.5t-125.5 11.5t-102 47t-69 101t-25.5 173.5z" />
    <glyph glyph-name="afii10033" unicode="&#x41f;" horiz-adv-x="681" 
d="M470 0v533h-260v-533h-131v642h522v-642h-131z" />
    <glyph glyph-name="afii10034" unicode="&#x420;" horiz-adv-x="595" 
d="M79 0v642h259q71 0 119 -7.5t77 -29.5t41.5 -62.5t12.5 -106.5t-12.5 -106.5t-41.5 -62t-77 -29t-119 -7.5h-127v-231h-132zM453 439q0 34 -6 53.5t-19 29t-35 11.5t-53 2h-129v-197h129q31 0 53 2t35 11.5t19 28.5t6 53v6z" />
    <glyph glyph-name="afii10035" unicode="&#x421;" horiz-adv-x="650" 
d="M614 31q-42 -20 -103.5 -32t-131.5 -12q-74 0 -133.5 12.5t-101.5 48.5t-65 101.5t-23 171.5t23 171.5t65 101.5t101.5 48.5t133.5 12.5q140 0 225 -40l-33 -103q-29 9 -79 22.5t-111 13.5q-41 0 -76 -6t-60.5 -29t-40 -68.5t-14.5 -123.5q0 -79 14.5 -124.5t40 -68
t60.5 -28.5t76 -6q30 0 60 4.5t56 10.5t48 13t36 12z" />
    <glyph glyph-name="afii10036" unicode="&#x422;" horiz-adv-x="543" 
d="M204 0v535h-197l10 107h529l-10 -107h-200v-535h-132z" />
    <glyph glyph-name="afii10037" unicode="&#x423;" horiz-adv-x="646" 
d="M169 97q19 0 34 1.5t27 6t21.5 12.5t17.5 22l-242 503h134l168 -342l9 -48l8 48l146 342h141l-200 -442l-33.5 -69.5t-29 -53.5t-30.5 -39t-39.5 -25.5t-57 -14t-80.5 -4.5l6 103v0z" />
    <glyph glyph-name="afii10038" unicode="&#x424;" horiz-adv-x="846" 
d="M357 -57v57h-37q-67 0 -121 10.5t-92.5 44t-59 97t-20.5 169.5t20.5 169.5t59 97t92.5 44t121 10.5h18.5t18.5 -1v58h132v-58q9 1 18 1h19q67 0 121 -10.5t92 -44t59 -97t21 -169.5t-21 -169.5t-59 -97t-92 -44t-121 -10.5q-9 0 -18.5 -0.5t-18.5 0.5v-57h-132zM489 107
q8 -1 17 -1h18q34 0 63.5 4.5t51 25.5t34 64.5t12.5 120.5q0 76 -12.5 119t-34 64t-51 26t-63.5 5h-18.5t-16.5 -1v-427zM357 534q-9 1 -18 1h-17q-34 0 -63.5 -5t-51 -26t-34 -64t-12.5 -119q0 -77 12.5 -120.5t34 -64.5t51 -25.5t63.5 -4.5h16.5t18.5 1v427z" />
    <glyph glyph-name="afii10039" unicode="&#x425;" horiz-adv-x="696" 
d="M350 289l-14 -44t-19 -50l-123 -195h-163l61 82l64.5 86.5l64 86.5l59.5 81l-52.5 74l-56 78.5l-57 79l-53.5 74.5h163l93 -165q11 -25 19 -50l14 -44l14 44t19 50l93 165h163l-54 -74.5l-56.5 -79l-56 -78.5l-52.5 -74l59.5 -81l64 -86.5l64.5 -86.5l61 -82h-163
l-123 195q-11 25 -19 50z" />
    <glyph glyph-name="afii10040" unicode="&#x426;" horiz-adv-x="680" 
d="M509 -124v124h-472v642h131v-533h260v533h131v-533h58v-223z" />
    <glyph glyph-name="afii10041" unicode="&#x427;" horiz-adv-x="599" 
d="M386 0v252q-23 -17 -52 -23t-67 -6q-57 0 -104.5 9t-81.5 31.5t-53 61t-19 96.5v221h135v-224q0 -30 8.5 -47.5t25 -26t39 -11t51.5 -2.5q47 0 75 9t43 37v265h132v-642h-132z" />
    <glyph glyph-name="afii10042" unicode="&#x428;" horiz-adv-x="932" 
d="M79 0v642h131v-533h190v533h131v-533h190v533h131v-642h-773z" />
    <glyph glyph-name="afii10043" unicode="&#x429;" horiz-adv-x="933" 
d="M758 -124v124h-723v642h131v-533h190v533h131v-533h190v533h131v-533h58v-223z" />
    <glyph glyph-name="afii10044" unicode="&#x42a;" horiz-adv-x="694" 
d="M169 0v535h-135l10 107h257v-231h127q71 0 119 -7.5t77 -29t41.5 -62t12.5 -106.5t-12.5 -106.5t-41.5 -62.5t-77 -29.5t-119 -7.5h-259zM543 209q0 34 -6 53t-19 28.5t-35 11.5t-53 2h-129v-197h129q31 0 53 2t35 11.5t19 29t6 53.5v6z" />
    <glyph glyph-name="afii10045" unicode="&#x42b;" horiz-adv-x="879" 
d="M453 209q0 34 -6 53t-19 28.5t-35 11.5t-53 2h-129v-197h129q31 0 53 2t35 11.5t19 29t6 53.5v6zM79 0v642h132v-231h127q71 0 119 -7.5t77 -29t41.5 -62t12.5 -106.5t-12.5 -106.5t-41.5 -62.5t-77 -29.5t-119 -7.5h-259zM666 0v642h132v-642h-132z" />
    <glyph glyph-name="afii10046" unicode="&#x42c;" horiz-adv-x="596" 
d="M453 209q0 34 -6 53t-19 28.5t-35 11.5t-53 2h-129v-197h129q31 0 53 2t35 11.5t19 29t6 53.5v6zM79 0v642h132v-231h127q71 0 119 -7.5t77 -29t41.5 -62t12.5 -106.5t-12.5 -106.5t-41.5 -62.5t-77 -29.5t-119 -7.5h-259z" />
    <glyph glyph-name="afii10047" unicode="&#x42d;" horiz-adv-x="650" 
d="M69 134q14 -5 36 -12t48 -13t56 -10.5t60 -4.5q38 0 71 5t58.5 24t41 57t19.5 104h-343v97h341q-6 57 -22.5 90t-41 50.5t-56.5 22t-68 4.5q-61 0 -111 -13.5t-79 -22.5l-33 103q85 40 225 40q73 0 133 -12.5t102 -48.5t65 -101.5t23 -171.5t-23 -171.5t-65 -101.5
t-102 -48.5t-133 -12.5q-70 0 -131.5 12t-103.5 32z" />
    <glyph glyph-name="afii10048" unicode="&#x42e;" horiz-adv-x="1019" 
d="M209 391h105q8 85 36 136.5t70.5 80t97 38t116.5 9.5q67 0 125.5 -11.5t102 -47t69 -101t25.5 -173.5t-25.5 -173.5t-69 -101t-102 -47t-125.5 -11.5q-65 0 -121.5 10.5t-100 43t-70 92t-30.5 157.5h-103v-292h-131v642h131v-251zM634 95q37 0 71 3.5t60 25t41.5 67.5
t15.5 131t-15.5 131t-42 67.5t-60.5 25t-70 3.5q-38 0 -72 -3.5t-60 -25t-41 -67.5t-15 -131t15 -131t41 -67.5t60 -25t72 -3.5z" />
    <glyph glyph-name="afii10049" unicode="&#x42f;" horiz-adv-x="671" 
d="M52 0l178 235q-42 5 -70.5 17.5t-46 35.5t-25 59t-7.5 89q0 66 12.5 106.5t41.5 62.5t77 29.5t119 7.5h260v-642h-132v231h-86l-170 -231h-151zM459 338v197h-130q-31 0 -52.5 -2t-35 -11.5t-19.5 -29.5t-6 -56q0 -35 6 -54.5t19.5 -29.5t35 -12t52.5 -2h130z" />
    <glyph glyph-name="afii10065" unicode="&#x430;" horiz-adv-x="702" 
d="M648 -1q-64 7 -94.5 29t-41.5 71q-31 -53 -82.5 -81t-123.5 -28q-57 0 -104.5 9t-81.5 31.5t-53 61t-19 96.5q0 66 19 109t53 68.5t81.5 35.5t104.5 10h158q-3 48 -11.5 75.5t-25.5 41t-44.5 17t-68.5 3.5q-30 0 -59 -4t-54.5 -10t-46.5 -12.5t-35 -11.5l-33 103
q42 20 101 31t129 11q81 0 135.5 -12t87 -47t46.5 -100t14 -171v-16v-112q0 -49 14 -69t46 -25zM465 303h-159q-29 0 -52.5 -3.5t-41 -15.5t-27 -34.5t-9.5 -61.5q0 -30 10 -48t27 -27t41 -12t53 -3q51 0 82 13t48 39t22.5 63.5t5.5 87.5v2z" />
    <glyph glyph-name="afii10066" unicode="&#x431;" horiz-adv-x="623" 
d="M79 0v642h478l-10 -107h-336v-124h127q71 0 119 -7.5t77 -29t41.5 -62t12.5 -106.5t-12.5 -106.5t-41.5 -62.5t-77 -29.5t-119 -7.5h-259zM453 209q0 34 -6 53t-19 28.5t-35 11.5t-53 2h-129v-197h129q31 0 53 2t35 11.5t19 29t6 53.5v6z" />
    <glyph glyph-name="afii10067" unicode="&#x432;" horiz-adv-x="675" 
d="M79 0v642h275q71 0 119 -6.5t76.5 -24t40.5 -49.5t12 -83q0 -38 -5 -63t-15.5 -42.5t-26 -29.5t-35.5 -22q20 -10 36.5 -21.5t28 -29t17.5 -43t6 -62.5q0 -51 -12.5 -83.5t-41.5 -50.5t-77 -25t-119 -7h-279zM360 107q31 0 53 1t36 6t20 17t6 35q0 39 -5.5 60t-18 30.5
t-32 11t-47.5 1.5h-181v-162h169zM372 376q27 0 46 2.5t30 12t16 29.5t5 56q0 21 -6 32.5t-19 17.5t-35 7.5t-53 1.5h-165v-159h181z" />
    <glyph glyph-name="afii10068" unicode="&#x433;" horiz-adv-x="526" 
d="M79 0v642h407l-10 -107h-276v-535h-121z" />
    <glyph glyph-name="afii10069" unicode="&#x434;" horiz-adv-x="709" 
d="M537 -124v124h-387v-98l-107 -10v217h22q29 9 43.5 46t18.5 112l18 375h442v-533h58v-223zM456 533h-190l-8 -262q-3 -61 -13 -100t-30 -62h241v424z" />
    <glyph glyph-name="afii10070" unicode="&#x435;" horiz-adv-x="704" 
d="M193 278q3 -59 14.5 -95t34.5 -55.5t58 -26.5t86 -7q30 0 61.5 5.5t60 13t52 15.5l37.5 13l33 -103q-21 -10 -51 -19t-64.5 -16t-71.5 -11.5t-72 -4.5q-75 0 -133 12t-98 47.5t-61 99t-21 167.5q0 108 22.5 175t63 104t96 50t122.5 13q72 0 127.5 -14t93.5 -50.5
t58 -99.5t20 -162v-51h-468zM525 386q-3 52 -14 84t-31 49.5t-49 23.5t-69 6q-35 0 -64.5 -3.5t-52 -19.5t-36 -49t-16.5 -91h332z" />
    <glyph glyph-name="afii10072" unicode="&#x436;" horiz-adv-x="997" 
d="M563 642v-268h37l204 268h149l-122.5 -160.5l-123.5 -160.5l182 -216q7 -6 18 -9t23 -3.5t24 0t23 0.5l-11 -93q-31 -3 -59 -3.5t-54.5 8.5t-53.5 29.5t-56 58.5l-143 174h-37v-267h-131v267h-37l-143 -174q-29 -38 -56 -58.5t-53.5 -29.5t-54.5 -8.5t-59 3.5l-11 93
q10 0 22.5 -0.5t24.5 0t23 3.5t18 9l182 216l-123.5 160.5l-122.5 160.5h149l204 -268h37v268h131z" />
    <glyph glyph-name="afii10073" unicode="&#x437;" horiz-adv-x="604" 
d="M141 274v97h161q28 0 47.5 2.5t31.5 11.5t17 26.5t5 49.5q0 27 -6 43.5t-19 25.5t-35 12.5t-53 3.5q-30 0 -64 -3.5t-65 -9t-56.5 -11.5t-39.5 -11l-33 103q21 10 50.5 17t63.5 12t70.5 7.5t71.5 2.5q71 0 119 -7.5t76.5 -26t40.5 -51.5t12 -84q0 -38 -6.5 -64t-19 -44
t-30.5 -31t-40 -23q22 -10 40.5 -22.5t31 -30.5t19.5 -44.5t7 -63.5q0 -51 -12.5 -84.5t-41.5 -53t-77 -27t-119 -7.5q-35 0 -71.5 2.5t-70.5 7.5t-63.5 12t-50.5 17l33 103q14 -5 39.5 -11t56.5 -11.5t65 -9t64 -3.5q31 0 53 1.5t36 10t20 25.5t6 48q0 34 -5.5 52.5
t-18 27.5t-32 11t-47.5 2h-161z" />
    <glyph glyph-name="afii10074" unicode="&#x438;" horiz-adv-x="685" 
d="M79 0v642h127v-422l259 422h140v-642h-128v424l-259 -424h-139z" />
    <glyph glyph-name="afii10075" unicode="&#x439;" horiz-adv-x="655" 
d="M540 735q-16 -9 -41.5 -16.5t-55 -12t-61 -7.5t-58.5 -3q-27 1 -57.5 3.5t-59 7.5t-52.5 12t-39 16l27 53q11 -5 32.5 -11t47 -11.5t53.5 -9t52 -3.5t52 3.5t53.5 9t47 11.5t32.5 11zM64 0v642h127v-422l259 422h140v-642h-128v424l-259 -424h-139z" />
    <glyph glyph-name="afii10076" unicode="&#x43a;" horiz-adv-x="675" 
d="M261 267h-57v-267h-131v642h131v-268h57l204 268h149l-122.5 -160.5l-123.5 -160.5l182 -216q7 -6 18 -9t23 -3.5t24 0t23 0.5l-11 -93q-31 -3 -59 -3.5t-54.5 8.5t-53.5 29.5t-56 58.5z" />
    <glyph glyph-name="afii10077" unicode="&#x43b;" horiz-adv-x="709" 
d="M498 0v533h-190l-20 -332q-3 -66 -17.5 -107t-45 -63.5t-78.5 -30t-117 -7.5l6 103q30 0 51.5 2.5t36.5 12t23 30t10 56.5l30 445h442v-642h-131z" />
    <glyph glyph-name="afii10078" unicode="&#x43c;" horiz-adv-x="855" 
d="M647 0v392h-3l-148 -392h-138l-148 392h-3v-392h-128v642h148l158 -382l42 -171l42 171l158 382h148v-642h-128z" />
    <glyph glyph-name="afii10079" unicode="&#x43d;" horiz-adv-x="681" 
d="M470 0v287h-260v-287h-131v642h131v-246h260v246h131v-642h-131z" />
    <glyph glyph-name="afii10080" unicode="&#x43e;" 
d="M379 549q-38 0 -72 -3.5t-60 -25t-41 -67.5t-15 -131t15 -131t41 -67.5t60 -25t72 -3.5q37 0 71 3.5t60 25t41.5 67.5t15.5 131t-15.5 131t-42 67.5t-60.5 25t-70 3.5zM57 322q0 108 25.5 173.5t69 101t102 47t125.5 11.5t125.5 -11.5t102 -47t69 -101t25.5 -173.5
t-25.5 -173.5t-69 -101t-102 -47t-125.5 -11.5t-125.5 11.5t-102 47t-69 101t-25.5 173.5z" />
    <glyph glyph-name="afii10081" unicode="&#x43f;" horiz-adv-x="681" 
d="M470 0v533h-260v-533h-131v642h522v-642h-131z" />
    <glyph glyph-name="afii10082" unicode="&#x440;" horiz-adv-x="595" 
d="M79 0v642h259q71 0 119 -7.5t77 -29.5t41.5 -62.5t12.5 -106.5t-12.5 -106.5t-41.5 -62t-77 -29t-119 -7.5h-127v-231h-132zM453 439q0 34 -6 53.5t-19 29t-35 11.5t-53 2h-129v-197h129q31 0 53 2t35 11.5t19 28.5t6 53v6z" />
    <glyph glyph-name="afii10083" unicode="&#x441;" horiz-adv-x="650" 
d="M614 31q-42 -20 -103.5 -32t-131.5 -12q-74 0 -133.5 12.5t-101.5 48.5t-65 101.5t-23 171.5t23 171.5t65 101.5t101.5 48.5t133.5 12.5q140 0 225 -40l-33 -103q-29 9 -79 22.5t-111 13.5q-41 0 -76 -6t-60.5 -29t-40 -68.5t-14.5 -123.5q0 -79 14.5 -124.5t40 -68
t60.5 -28.5t76 -6q30 0 60 4.5t56 10.5t48 13t36 12z" />
    <glyph glyph-name="afii10084" unicode="&#x442;" horiz-adv-x="543" 
d="M204 0v535h-197l10 107h529l-10 -107h-200v-535h-132z" />
    <glyph glyph-name="afii10085" unicode="&#x443;" horiz-adv-x="646" 
d="M169 97q19 0 34 1.5t27 6t21.5 12.5t17.5 22l-242 503h134l168 -342l9 -48l8 48l146 342h141l-200 -442l-33.5 -69.5t-29 -53.5t-30.5 -39t-39.5 -25.5t-57 -14t-80.5 -4.5l6 103v0z" />
    <glyph glyph-name="afii10086" unicode="&#x444;" horiz-adv-x="846" 
d="M357 -57v57h-37q-67 0 -121 10.5t-92.5 44t-59 97t-20.5 169.5t20.5 169.5t59 97t92.5 44t121 10.5h18.5t18.5 -1v58h132v-58q9 1 18 1h19q67 0 121 -10.5t92 -44t59 -97t21 -169.5t-21 -169.5t-59 -97t-92 -44t-121 -10.5q-9 0 -18.5 -0.5t-18.5 0.5v-57h-132zM489 107
q8 -1 17 -1h18q34 0 63.5 4.5t51 25.5t34 64.5t12.5 120.5q0 76 -12.5 119t-34 64t-51 26t-63.5 5h-18.5t-16.5 -1v-427zM357 534q-9 1 -18 1h-17q-34 0 -63.5 -5t-51 -26t-34 -64t-12.5 -119q0 -77 12.5 -120.5t34 -64.5t51 -25.5t63.5 -4.5h16.5t18.5 1v427z" />
    <glyph glyph-name="afii10087" unicode="&#x445;" horiz-adv-x="696" 
d="M350 289l-14 -44t-19 -50l-123 -195h-163l61 82l64.5 86.5l64 86.5l59.5 81l-52.5 74l-56 78.5l-57 79l-53.5 74.5h163l93 -165q11 -25 19 -50l14 -44l14 44t19 50l93 165h163l-54 -74.5l-56.5 -79l-56 -78.5l-52.5 -74l59.5 -81l64 -86.5l64.5 -86.5l61 -82h-163
l-123 195q-11 25 -19 50z" />
    <glyph glyph-name="afii10088" unicode="&#x446;" horiz-adv-x="680" 
d="M509 -124v124h-472v642h131v-533h260v533h131v-533h58v-223z" />
    <glyph glyph-name="afii10089" unicode="&#x447;" horiz-adv-x="599" 
d="M386 0v252q-23 -17 -52 -23t-67 -6q-57 0 -104.5 9t-81.5 31.5t-53 61t-19 96.5v221h135v-224q0 -30 8.5 -47.5t25 -26t39 -11t51.5 -2.5q47 0 75 9t43 37v265h132v-642h-132z" />
    <glyph glyph-name="afii10090" unicode="&#x448;" horiz-adv-x="932" 
d="M79 0v642h131v-533h190v533h131v-533h190v533h131v-642h-773z" />
    <glyph glyph-name="afii10091" unicode="&#x449;" horiz-adv-x="933" 
d="M758 -124v124h-723v642h131v-533h190v533h131v-533h190v533h131v-533h58v-223z" />
    <glyph glyph-name="afii10092" unicode="&#x44a;" horiz-adv-x="729" 
d="M169 0v535h-135l10 107h257v-231h127q71 0 119 -7.5t77 -29t41.5 -62t12.5 -106.5t-12.5 -106.5t-41.5 -62.5t-77 -29.5t-119 -7.5h-259zM543 209q0 34 -6 53t-19 28.5t-35 11.5t-53 2h-129v-197h129q31 0 53 2t35 11.5t19 29t6 53.5v6z" />
    <glyph glyph-name="afii10093" unicode="&#x44b;" horiz-adv-x="838" 
d="M453 209q0 34 -6 53t-19 28.5t-35 11.5t-53 2h-129v-197h129q31 0 53 2t35 11.5t19 29t6 53.5v6zM79 0v642h132v-231h127q71 0 119 -7.5t77 -29t41.5 -62t12.5 -106.5t-12.5 -106.5t-41.5 -62.5t-77 -29.5t-119 -7.5h-259zM666 0v642h132v-642h-132z" />
    <glyph glyph-name="afii10094" unicode="&#x44c;" horiz-adv-x="596" 
d="M453 209q0 34 -6 53t-19 28.5t-35 11.5t-53 2h-129v-197h129q31 0 53 2t35 11.5t19 29t6 53.5v6zM79 0v642h132v-231h127q71 0 119 -7.5t77 -29t41.5 -62t12.5 -106.5t-12.5 -106.5t-41.5 -62.5t-77 -29.5t-119 -7.5h-259z" />
    <glyph glyph-name="afii10095" unicode="&#x44d;" horiz-adv-x="650" 
d="M69 134q14 -5 36 -12t48 -13t56 -10.5t60 -4.5q38 0 71 5t58.5 24t41 57t19.5 104h-343v97h341q-6 57 -22.5 90t-41 50.5t-56.5 22t-68 4.5q-61 0 -111 -13.5t-79 -22.5l-33 103q85 40 225 40q73 0 133 -12.5t102 -48.5t65 -101.5t23 -171.5t-23 -171.5t-65 -101.5
t-102 -48.5t-133 -12.5q-70 0 -131.5 12t-103.5 32z" />
    <glyph glyph-name="afii10096" unicode="&#x44e;" horiz-adv-x="999" 
d="M209 391h105q8 85 36 136.5t70.5 80t97 38t116.5 9.5q67 0 125.5 -11.5t102 -47t69 -101t25.5 -173.5t-25.5 -173.5t-69 -101t-102 -47t-125.5 -11.5q-65 0 -121.5 10.5t-100 43t-70 92t-30.5 157.5h-103v-292h-131v642h131v-251zM634 95q37 0 71 3.5t60 25t41.5 67.5
t15.5 131t-15.5 131t-42 67.5t-60.5 25t-70 3.5q-38 0 -72 -3.5t-60 -25t-41 -67.5t-15 -131t15 -131t41 -67.5t60 -25t72 -3.5z" />
    <glyph glyph-name="afii10097" unicode="&#x44f;" horiz-adv-x="669" 
d="M464 0v231h-79l-114 -138q-31 -37 -58 -57.5t-53 -29.5t-53.5 -9t-58.5 3l-11 93q10 0 23 -1t25.5 -0.5t23 3.5t16.5 10l110 131q-41 5 -69.5 17t-46 35.5t-25 59t-7.5 88.5q0 66 12.5 106.5t41.5 62.5t77 29.5t119 7.5h259v-642h-132zM222 433q0 -34 6 -53t19 -28.5
t34.5 -11.5t53.5 -2h129v197h-129q-32 0 -53.5 -2t-34.5 -11.5t-19 -29t-6 -53.5v-6z" />
    <glyph glyph-name="uni0450" unicode="&#x450;" horiz-adv-x="704" 
d="M193 278q3 -59 14.5 -95t34.5 -55.5t58 -26.5t86 -7q30 0 61.5 5.5t60 13t52 15.5l37.5 13l33 -103q-21 -10 -51 -19t-64.5 -16t-71.5 -11.5t-72 -4.5q-75 0 -133 12t-98 47.5t-61 99t-21 167.5q0 108 22.5 175t63 104t96 50t122.5 13q72 0 127.5 -14t93.5 -50.5
t58 -99.5t20 -162v-51h-468zM525 386q-3 52 -14 84t-31 49.5t-49 23.5t-69 6q-35 0 -64.5 -3.5t-52 -19.5t-36 -49t-16.5 -91h332zM376 707l-94 107h86l53 -107h-45z" />
    <glyph glyph-name="afii10071" unicode="&#x451;" horiz-adv-x="704" 
d="M193 278q3 -59 14.5 -95t34.5 -55.5t58 -26.5t86 -7q30 0 61.5 5.5t60 13t52 15.5l37.5 13l33 -103q-21 -10 -51 -19t-64.5 -16t-71.5 -11.5t-72 -4.5q-75 0 -133 12t-98 47.5t-61 99t-21 167.5q0 108 22.5 175t63 104t96 50t122.5 13q72 0 127.5 -14t93.5 -50.5
t58 -99.5t20 -162v-51h-468zM525 386q-3 52 -14 84t-31 49.5t-49 23.5t-69 6q-35 0 -64.5 -3.5t-52 -19.5t-36 -49t-16.5 -91h332zM208 723v123h110v-123h-110zM386 723v123h110v-123h-110z" />
    <glyph glyph-name="afii10099" unicode="&#x452;" horiz-adv-x="773" 
d="M497 -98q30 0 50 2t32 11.5t17.5 28.5t5.5 53v212q0 34 -6 53t-19 28.5t-35 11.5t-53 2h-159v-304h-132v535h-197v107h197v72h132v-72h200v-107h-200v-124h157q71 0 119 -7.5t77 -29t41.5 -62t12.5 -106.5v-206q0 -66 -12.5 -106.5t-41.5 -62t-77 -29t-119 -7.5z" />
    <glyph glyph-name="afii10100" unicode="&#x453;" horiz-adv-x="526" 
d="M79 0v642h407l-10 -107h-276v-535h-121zM194 689l53 107h85q-26 -29 -45.5 -53.5l-42.5 -53.5h-50z" />
    <glyph glyph-name="afii10101" unicode="&#x454;" horiz-adv-x="650" 
d="M614 31q-42 -20 -103.5 -32t-131.5 -12q-74 0 -133.5 12.5t-101.5 48.5t-65 101.5t-23 171.5t23 171.5t65 101.5t101.5 48.5t133.5 12.5q140 0 225 -40l-33 -103q-29 9 -79 22.5t-111 13.5q-37 0 -69 -4.5t-56.5 -22t-41 -50.5t-22.5 -90h342v-97h-343q3 -66 19 -104
t41 -57t58.5 -24t71.5 -5q30 0 60 4.5t56 10.5t48 13t36 12z" />
    <glyph glyph-name="afii10102" unicode="&#x455;" horiz-adv-x="624" 
d="M522 512q-14 5 -37 11t-51 11.5t-59 9t-61 3.5q-60 0 -90.5 -15t-30.5 -54q0 -23 1.5 -35t8 -19.5t20 -12.5t36.5 -12q56 -14 112.5 -25.5t102.5 -32.5t75.5 -59t30.5 -105q0 -58 -19 -94.5t-53 -57.5t-81.5 -28.5t-104.5 -7.5q-35 0 -74 3.5t-76.5 10.5t-70.5 15.5
t-55 19.5l15 54.5t16 50.5q15 -6 39.5 -14t57.5 -15t73 -12t84 -5q28 0 50.5 1.5t38.5 8.5t24 22.5t8 43.5q0 21 -4 34t-13.5 20.5t-25 12t-37.5 9.5q-84 18 -143 32.5t-95.5 37.5t-53 60t-16.5 100q0 44 18.5 77t51 54.5t75 32.5t90.5 11q35 0 71.5 -2.5t70.5 -7.5
t63.5 -12t50.5 -17z" />
    <glyph glyph-name="afii10103" unicode="&#x456;" horiz-adv-x="290" 
d="M79 0v642h132v-642h-132z" />
    <glyph glyph-name="afii10104" unicode="&#x457;" horiz-adv-x="290" 
d="M-2 723v123h110v-123h-110zM176 723v123h110v-123h-110zM79 0v642h132v-642h-132z" />
    <glyph glyph-name="afii10105" unicode="&#x458;" horiz-adv-x="322" 
d="M6 98q31 0 52.5 2t35 11.5t19.5 29.5t6 56v445h131v-441q0 -66 -12.5 -106.5t-41.5 -62.5t-77 -29.5t-119 -7.5z" />
    <glyph glyph-name="afii10106" unicode="&#x459;" horiz-adv-x="1117" 
d="M545 0v533h-219l-10 -332q-3 -66 -18.5 -107t-47 -63.5t-81 -30t-121.5 -7.5l6 103q32 0 55.5 2.5t39.5 12t24.5 30t11.5 56.5l20 445h472v-231h157q71 0 119 -7.5t77 -29t41.5 -62t12.5 -106.5t-12.5 -106.5t-41.5 -62.5t-77 -29.5t-119 -7.5h-289zM949 209q0 34 -6 53
t-19 28.5t-35 11.5t-53 2h-159v-197h159q31 0 53 2t35 11.5t19 29t6 53.5v6z" />
    <glyph glyph-name="afii10107" unicode="&#x45a;" horiz-adv-x="1098" 
d="M500 0v292h-290v-292h-131v642h131v-251h290v251h132v-231h157q71 0 119 -7.5t77 -29t41.5 -62t12.5 -106.5t-12.5 -106.5t-41.5 -62.5t-77 -29.5t-119 -7.5h-289zM904 209q0 34 -6 53t-19 28.5t-35 11.5t-53 2h-159v-197h159q31 0 53 2t35 11.5t19 29t6 53.5v6z" />
    <glyph glyph-name="afii10108" unicode="&#x45b;" horiz-adv-x="782" 
d="M616 0v209q0 34 -6 53t-19 28.5t-35 11.5t-53 2h-159v-304h-132v535h-197v107h197v72h132v-72h200v-107h-200v-124h157q71 0 119 -7.5t77 -29t41.5 -62t12.5 -106.5v-206h-135z" />
    <glyph glyph-name="afii10109" unicode="&#x45c;" horiz-adv-x="675" 
d="M261 267h-57v-267h-131v642h131v-268h57l204 268h149l-122.5 -160.5l-123.5 -160.5l182 -216q7 -6 18 -9t23 -3.5t24 0t23 0.5l-11 -93q-31 -3 -59 -3.5t-54.5 8.5t-53.5 29.5t-56 58.5zM268 689l53 107h85q-26 -29 -45.5 -53.5l-42.5 -53.5h-50z" />
    <glyph glyph-name="uni045D" unicode="&#x45d;" horiz-adv-x="685" 
d="M79 0v642h127v-422l259 422h140v-642h-128v424l-259 -424h-139zM367 707l-94 107h86l53 -107h-45z" />
    <glyph glyph-name="afii10110" unicode="&#x45e;" horiz-adv-x="633" 
d="M528 735q-16 -9 -41.5 -16.5t-55 -12t-61 -7.5t-58.5 -3q-27 1 -57.5 3.5t-59 7.5t-52.5 12t-39 16l27 53q11 -5 32.5 -11t47 -11.5t53.5 -9t52 -3.5t52 3.5t53.5 9t47 11.5t32.5 11zM157 97q19 0 34 1.5t27 6t21.5 12.5t17.5 22l-242 503h134l168 -342l9 -48l8 48
l146 342h141l-200 -442l-33.5 -69.5t-29 -53.5t-30.5 -39t-39.5 -25.5t-57 -14t-80.5 -4.5z" />
    <glyph glyph-name="afii10193" unicode="&#x45f;" horiz-adv-x="620" 
d="M369 0v-173l-118 -10v183h-202v642h131v-533h260v533h131v-642h-202z" />
    <glyph glyph-name="afii10050" unicode="&#x490;" horiz-adv-x="456" 
d="M48 0v642h286v97l122 10l-1 -214h-276v-535h-131z" />
    <glyph glyph-name="afii10098" unicode="&#x491;" horiz-adv-x="456" 
d="M48 0v642h286v97l122 10l-1 -214h-276v-535h-131z" />
    <glyph glyph-name="uni04C1" unicode="&#x4c1;" horiz-adv-x="971" 
d="M551 0h-131v272h-14l-207 -272h-149l246 321l-226 321h149l189 -273h12v273h131v-273h12l189 273h149l-226 -321l246 -321h-149l-208 272h-13v-272zM623 819q-10 -53 -45.5 -82.5t-92.5 -29.5q-59 0 -94 27.5t-44 84.5h43q17 -69 92 -69q44 0 67 17t32 52h42z" />
    <glyph glyph-name="uni04C2" unicode="&#x4c2;" horiz-adv-x="997" 
d="M563 642v-268h37l204 268h149l-122.5 -160.5l-123.5 -160.5l182 -216q7 -6 18 -9t23 -3.5t24 0t23 0.5l-11 -93q-31 -3 -59 -3.5t-54.5 8.5t-53.5 29.5t-56 58.5l-143 174h-37v-267h-131v267h-37l-143 -174q-29 -38 -56 -58.5t-53.5 -29.5t-54.5 -8.5t-59 3.5l-11 93
q10 0 22.5 -0.5t24.5 0t23 3.5t18 9l182 216l-123.5 160.5l-122.5 160.5h149l204 -268h37v268h131zM636 819q-10 -53 -45.5 -82.5t-92.5 -29.5q-59 0 -94 27.5t-44 84.5h43q17 -69 92 -69q44 0 67 17t32 52h42z" />
    <glyph glyph-name="uni04D0" unicode="&#x4d0;" horiz-adv-x="657" 
d="M401 642l227 -642h-144l-56 181h-201l-55 -181h-144l227 642h146zM256 274h144l-51 167l-18 101h-6l-18 -101zM466 819q-10 -53 -45.5 -82.5t-92.5 -29.5q-59 0 -94 27.5t-44 84.5h43q17 -69 92 -69q44 0 67 17t32 52h42z" />
    <glyph glyph-name="uni04D1" unicode="&#x4d1;" horiz-adv-x="702" 
d="M648 -1q-64 7 -94.5 29t-41.5 71q-31 -53 -82.5 -81t-123.5 -28q-57 0 -104.5 9t-81.5 31.5t-53 61t-19 96.5q0 66 19 109t53 68.5t81.5 35.5t104.5 10h158q-3 48 -11.5 75.5t-25.5 41t-44.5 17t-68.5 3.5q-30 0 -59 -4t-54.5 -10t-46.5 -12.5t-35 -11.5l-33 103
q42 20 101 31t129 11q81 0 135.5 -12t87 -47t46.5 -100t14 -171v-16v-112q0 -49 14 -69t46 -25zM465 303h-159q-29 0 -52.5 -3.5t-41 -15.5t-27 -34.5t-9.5 -61.5q0 -30 10 -48t27 -27t41 -12t53 -3q51 0 82 13t48 39t22.5 63.5t5.5 87.5v2zM489 819q-10 -53 -45.5 -82.5
t-92.5 -29.5q-59 0 -94 27.5t-44 84.5h43q17 -69 92 -69q44 0 67 17t32 52h42z" />
    <glyph glyph-name="uni04D2" unicode="&#x4d2;" horiz-adv-x="657" 
d="M401 642l227 -642h-144l-56 181h-201l-55 -181h-144l227 642h146zM256 274h144l-51 167l-18 101h-6l-18 -101zM184 741v123h110v-123h-110zM362 741v123h110v-123h-110z" />
    <glyph glyph-name="uni04D3" unicode="&#x4d3;" horiz-adv-x="702" 
d="M648 -1q-64 7 -94.5 29t-41.5 71q-31 -53 -82.5 -81t-123.5 -28q-57 0 -104.5 9t-81.5 31.5t-53 61t-19 96.5q0 66 19 109t53 68.5t81.5 35.5t104.5 10h158q-3 48 -11.5 75.5t-25.5 41t-44.5 17t-68.5 3.5q-30 0 -59 -4t-54.5 -10t-46.5 -12.5t-35 -11.5l-33 103
q42 20 101 31t129 11q81 0 135.5 -12t87 -47t46.5 -100t14 -171v-16v-112q0 -49 14 -69t46 -25zM465 303h-159q-29 0 -52.5 -3.5t-41 -15.5t-27 -34.5t-9.5 -61.5q0 -30 10 -48t27 -27t41 -12t53 -3q51 0 82 13t48 39t22.5 63.5t5.5 87.5v2zM207 741v123h110v-123h-110z
M385 741v123h110v-123h-110z" />
    <glyph glyph-name="uni04D4" unicode="&#x4d4;" horiz-adv-x="819" 
d="M392 0v181h-160l-70 -181h-134l257 642h527l-10 -107h-278v-154h203v-97h-203v-176h288l-10 -108h-410zM392 529l-1 3h-6l-38 -91l-74 -169h119v257z" />
    <glyph glyph-name="uni04D5" unicode="&#x4d5;" horiz-adv-x="1193" 
d="M1097 38q-21 -10 -51 -19t-64.5 -16t-71.5 -11.5t-72 -4.5q-53 0 -97 5.5t-80 20.5t-63 41.5t-44 67.5q-5 -8 -12 -23q-35 -53 -93.5 -81t-142.5 -28q-57 0 -104.5 9t-81.5 31.5t-53 61t-19 96.5q0 64 19 106t53 67t81.5 35t104.5 10h188q-3 50 -13 78.5t-31 42.5
t-54 17.5t-82 3.5q-30 0 -59 -4t-54.5 -10t-46.5 -12.5t-35 -11.5l-33 103q42 20 101 31t129 11q53 0 94 -4.5t72.5 -17t53 -34.5t35.5 -57q19 34 46 56t60 34.5t71 17.5t81 5q72 0 127.5 -14t93.5 -50.5t58 -99.5t20 -162v-36h-499q1 -63 13.5 -102t39 -60.5t68.5 -29
t103 -7.5q30 0 61.5 5.5t60 13t52 15.5l37.5 13zM495 298h-189q-29 0 -52.5 -3.5t-41 -15t-27 -33t-9.5 -58.5q0 -30 10 -48t27 -27t41 -12t53 -3q58 0 94.5 13t57 38.5t28 63t8.5 86.5v-1zM992 391q-3 50 -14 81t-31 48t-49 23t-69 6q-41 0 -75.5 -3.5t-61 -19t-42.5 -47.5
t-20 -88h362z" />
    <glyph glyph-name="uni04D6" unicode="&#x4d6;" horiz-adv-x="583" 
d="M79 0v642h480l-10 -107h-338v-149h263v-107h-263v-171h348l-10 -108h-470zM429 819q-10 -53 -45.5 -82.5t-92.5 -29.5q-59 0 -94 27.5t-44 84.5h43q17 -69 92 -69q44 0 67 17t32 52h42z" />
    <glyph glyph-name="uni04D7" unicode="&#x4d7;" horiz-adv-x="704" 
d="M193 278q3 -59 14.5 -95t34.5 -55.5t58 -26.5t86 -7q30 0 61.5 5.5t60 13t52 15.5l37.5 13l33 -103q-21 -10 -51 -19t-64.5 -16t-71.5 -11.5t-72 -4.5q-75 0 -133 12t-98 47.5t-61 99t-21 167.5q0 108 22.5 175t63 104t96 50t122.5 13q72 0 127.5 -14t93.5 -50.5
t58 -99.5t20 -162v-51h-468zM525 386q-3 52 -14 84t-31 49.5t-49 23.5t-69 6q-35 0 -64.5 -3.5t-52 -19.5t-36 -49t-16.5 -91h332zM490 819q-10 -53 -45.5 -82.5t-92.5 -29.5q-59 0 -94 27.5t-44 84.5h43q17 -69 92 -69q44 0 67 17t32 52h42z" />
    <glyph glyph-name="uni04D8" unicode="&#x4d8;" horiz-adv-x="704" 
d="M526 364q-3 58 -14.5 94.5t-34.5 56t-58 26.5t-86 7q-30 0 -61.5 -5.5t-60 -13t-52 -15.5l-37.5 -13l-33 103q21 10 51 19t64.5 16t71.5 11.5t72 4.5q75 0 133 -12t98 -47.5t61 -99.5t21 -167q0 -108 -22.5 -175t-63 -104t-96 -50t-122.5 -13q-72 0 -127.5 14t-93.5 50.5
t-58 99.5t-20 162v51h468zM194 256q3 -52 14 -84t31 -49.5t49 -23.5t69 -6q35 0 64.5 3.5t52 19.5t36 49t16.5 91h-332z" />
    <glyph glyph-name="uni04D9" unicode="&#x4d9;" horiz-adv-x="704" 
d="M526 364q-3 58 -14.5 94.5t-34.5 56t-58 26.5t-86 7q-30 0 -61.5 -5.5t-60 -13t-52 -15.5l-37.5 -13l-33 103q21 10 51 19t64.5 16t71.5 11.5t72 4.5q75 0 133 -12t98 -47.5t61 -99.5t21 -167q0 -108 -22.5 -175t-63 -104t-96 -50t-122.5 -13q-72 0 -127.5 14t-93.5 50.5
t-58 99.5t-20 162v51h468zM194 256q3 -52 14 -84t31 -49.5t49 -23.5t69 -6q35 0 64.5 3.5t52 19.5t36 49t16.5 91h-332z" />
    <glyph glyph-name="uni04DA" unicode="&#x4da;" horiz-adv-x="704" 
d="M526 364q-3 58 -14.5 94.5t-34.5 56t-58 26.5t-86 7q-30 0 -61.5 -5.5t-60 -13t-52 -15.5l-37.5 -13l-33 103q21 10 51 19t64.5 16t71.5 11.5t72 4.5q75 0 133 -12t98 -47.5t61 -99.5t21 -167q0 -108 -22.5 -175t-63 -104t-96 -50t-122.5 -13q-72 0 -127.5 14t-93.5 50.5
t-58 99.5t-20 162v51h468zM194 256q3 -52 14 -84t31 -49.5t49 -23.5t69 -6q35 0 64.5 3.5t52 19.5t36 49t16.5 91h-332zM208 741v123h110v-123h-110zM386 741v123h110v-123h-110z" />
    <glyph glyph-name="uni04DB" unicode="&#x4db;" horiz-adv-x="704" 
d="M526 364q-3 58 -14.5 94.5t-34.5 56t-58 26.5t-86 7q-30 0 -61.5 -5.5t-60 -13t-52 -15.5l-37.5 -13l-33 103q21 10 51 19t64.5 16t71.5 11.5t72 4.5q75 0 133 -12t98 -47.5t61 -99.5t21 -167q0 -108 -22.5 -175t-63 -104t-96 -50t-122.5 -13q-72 0 -127.5 14t-93.5 50.5
t-58 99.5t-20 162v51h468zM194 256q3 -52 14 -84t31 -49.5t49 -23.5t69 -6q35 0 64.5 3.5t52 19.5t36 49t16.5 91h-332zM208 741v123h110v-123h-110zM386 741v123h110v-123h-110z" />
    <glyph glyph-name="uni04DC" unicode="&#x4dc;" horiz-adv-x="971" 
d="M551 0h-131v272h-14l-207 -272h-149l246 321l-226 321h149l189 -273h12v273h131v-273h12l189 273h149l-226 -321l246 -321h-149l-208 272h-13v-272zM341 741v123h110v-123h-110zM519 741v123h110v-123h-110z" />
    <glyph glyph-name="uni04DD" unicode="&#x4dd;" horiz-adv-x="997" 
d="M563 642v-268h37l204 268h149l-122.5 -160.5l-123.5 -160.5l182 -216q7 -6 18 -9t23 -3.5t24 0t23 0.5l-11 -93q-31 -3 -59 -3.5t-54.5 8.5t-53.5 29.5t-56 58.5l-143 174h-37v-267h-131v267h-37l-143 -174q-29 -38 -56 -58.5t-53.5 -29.5t-54.5 -8.5t-59 3.5l-11 93
q10 0 22.5 -0.5t24.5 0t23 3.5t18 9l182 216l-123.5 160.5l-122.5 160.5h149l204 -268h37v268h131zM354 741v123h110v-123h-110zM532 741v123h110v-123h-110z" />
    <glyph glyph-name="uni04DE" unicode="&#x4de;" horiz-adv-x="603" 
d="M141 274v97h161q28 0 47.5 2.5t31.5 11.5t17 26.5t5 49.5q0 27 -6 43.5t-19 25.5t-35 12.5t-53 3.5q-30 0 -64 -3.5t-65 -9t-56.5 -11.5t-39.5 -11l-33 103q21 10 50.5 17t63.5 12t70.5 7.5t71.5 2.5q71 0 119 -7.5t76.5 -26t40.5 -51.5t12 -84q0 -38 -6.5 -64t-19 -44
t-30.5 -31t-40 -23q22 -10 40.5 -22.5t31 -30.5t19.5 -44.5t7 -63.5q0 -51 -12.5 -84.5t-41.5 -53t-77 -27t-119 -7.5q-35 0 -71.5 2.5t-70.5 7.5t-63.5 12t-50.5 17l33 103q14 -5 39.5 -11t56.5 -11.5t65 -9t64 -3.5q31 0 53 1.5t36 10t20 25.5t6 48q0 34 -5.5 52.5
t-18 27.5t-32 11t-47.5 2h-161zM157 741v123h110v-123h-110zM335 741v123h110v-123h-110z" />
    <glyph glyph-name="uni04DF" unicode="&#x4df;" horiz-adv-x="604" 
d="M141 274v97h161q28 0 47.5 2.5t31.5 11.5t17 26.5t5 49.5q0 27 -6 43.5t-19 25.5t-35 12.5t-53 3.5q-30 0 -64 -3.5t-65 -9t-56.5 -11.5t-39.5 -11l-33 103q21 10 50.5 17t63.5 12t70.5 7.5t71.5 2.5q71 0 119 -7.5t76.5 -26t40.5 -51.5t12 -84q0 -38 -6.5 -64t-19 -44
t-30.5 -31t-40 -23q22 -10 40.5 -22.5t31 -30.5t19.5 -44.5t7 -63.5q0 -51 -12.5 -84.5t-41.5 -53t-77 -27t-119 -7.5q-35 0 -71.5 2.5t-70.5 7.5t-63.5 12t-50.5 17l33 103q14 -5 39.5 -11t56.5 -11.5t65 -9t64 -3.5q31 0 53 1.5t36 10t20 25.5t6 48q0 34 -5.5 52.5
t-18 27.5t-32 11t-47.5 2h-161zM158 741v123h110v-123h-110zM336 741v123h110v-123h-110z" />
    <glyph glyph-name="uni04E2" unicode="&#x4e2;" horiz-adv-x="685" 
d="M79 0v642h127v-422l259 422h140v-642h-128v424l-259 -424h-139zM205 745v38h275v-38h-275z" />
    <glyph glyph-name="uni04E3" unicode="&#x4e3;" horiz-adv-x="685" 
d="M79 0v642h127v-422l259 422h140v-642h-128v424l-259 -424h-139zM205 745v38h275v-38h-275z" />
    <glyph glyph-name="uni04E4" unicode="&#x4e4;" horiz-adv-x="685" 
d="M79 0v642h127v-422l259 422h140v-642h-128v424l-259 -424h-139zM198 741v123h110v-123h-110zM376 741v123h110v-123h-110z" />
    <glyph glyph-name="uni04E5" unicode="&#x4e5;" horiz-adv-x="685" 
d="M79 0v642h127v-422l259 422h140v-642h-128v424l-259 -424h-139zM198 741v123h110v-123h-110zM376 741v123h110v-123h-110z" />
    <glyph glyph-name="uni04E6" unicode="&#x4e6;" 
d="M379 549q-38 0 -72 -3.5t-60 -25t-41 -67.5t-15 -131t15 -131t41 -67.5t60 -25t72 -3.5q37 0 71 3.5t60 25t41.5 67.5t15.5 131t-15.5 131t-42 67.5t-60.5 25t-70 3.5zM57 322q0 108 25.5 173.5t69 101t102 47t125.5 11.5t125.5 -11.5t102 -47t69 -101t25.5 -173.5
t-25.5 -173.5t-69 -101t-102 -47t-125.5 -11.5t-125.5 11.5t-102 47t-69 101t-25.5 173.5zM235 741v123h110v-123h-110zM413 741v123h110v-123h-110z" />
    <glyph glyph-name="uni04E7" unicode="&#x4e7;" 
d="M379 549q-38 0 -72 -3.5t-60 -25t-41 -67.5t-15 -131t15 -131t41 -67.5t60 -25t72 -3.5q37 0 71 3.5t60 25t41.5 67.5t15.5 131t-15.5 131t-42 67.5t-60.5 25t-70 3.5zM57 322q0 108 25.5 173.5t69 101t102 47t125.5 11.5t125.5 -11.5t102 -47t69 -101t25.5 -173.5
t-25.5 -173.5t-69 -101t-102 -47t-125.5 -11.5t-125.5 11.5t-102 47t-69 101t-25.5 173.5zM235 741v123h110v-123h-110zM413 741v123h110v-123h-110z" />
    <glyph glyph-name="uni04E8" unicode="&#x4e8;" 
d="M379 -11q-67 0 -125.5 11.5t-102 47t-69 101t-25.5 173.5t25.5 173.5t69 101t102 47t125.5 11.5t125.5 -11.5t102 -47t69 -101t25.5 -173.5t-25.5 -173.5t-69 -101t-102 -47t-125.5 -11.5zM379 95q36 0 69 3.5t58.5 23t42 61t18.5 118.5h-376q2 -77 18 -118.5t41.5 -61
t58.5 -23t70 -3.5zM379 549q-37 0 -70 -3.5t-58.5 -22.5t-41.5 -60t-18 -117h376q-3 76 -19.5 117t-42.5 60t-58.5 22.5t-67.5 3.5z" />
    <glyph glyph-name="uni04E9" unicode="&#x4e9;" 
d="M379 -11q-67 0 -125.5 11.5t-102 47t-69 101t-25.5 173.5t25.5 173.5t69 101t102 47t125.5 11.5t125.5 -11.5t102 -47t69 -101t25.5 -173.5t-25.5 -173.5t-69 -101t-102 -47t-125.5 -11.5zM379 95q36 0 69 3.5t58.5 23t42 61t18.5 118.5h-376q2 -77 18 -118.5t41.5 -61
t58.5 -23t70 -3.5zM379 549q-37 0 -70 -3.5t-58.5 -22.5t-41.5 -60t-18 -117h376q-3 76 -19.5 117t-42.5 60t-58.5 22.5t-67.5 3.5z" />
    <glyph glyph-name="uni04EA" unicode="&#x4ea;" 
d="M379 -11q-67 0 -125.5 11.5t-102 47t-69 101t-25.5 173.5t25.5 173.5t69 101t102 47t125.5 11.5t125.5 -11.5t102 -47t69 -101t25.5 -173.5t-25.5 -173.5t-69 -101t-102 -47t-125.5 -11.5zM379 95q36 0 69 3.5t58.5 23t42 61t18.5 118.5h-376q2 -77 18 -118.5t41.5 -61
t58.5 -23t70 -3.5zM379 549q-37 0 -70 -3.5t-58.5 -22.5t-41.5 -60t-18 -117h376q-3 76 -19.5 117t-42.5 60t-58.5 22.5t-67.5 3.5zM235 741v123h110v-123h-110zM413 741v123h110v-123h-110z" />
    <glyph glyph-name="uni04EB" unicode="&#x4eb;" 
d="M379 -11q-67 0 -125.5 11.5t-102 47t-69 101t-25.5 173.5t25.5 173.5t69 101t102 47t125.5 11.5t125.5 -11.5t102 -47t69 -101t25.5 -173.5t-25.5 -173.5t-69 -101t-102 -47t-125.5 -11.5zM379 95q36 0 69 3.5t58.5 23t42 61t18.5 118.5h-376q2 -77 18 -118.5t41.5 -61
t58.5 -23t70 -3.5zM379 549q-37 0 -70 -3.5t-58.5 -22.5t-41.5 -60t-18 -117h376q-3 76 -19.5 117t-42.5 60t-58.5 22.5t-67.5 3.5zM235 741v123h110v-123h-110zM413 741v123h110v-123h-110z" />
    <glyph glyph-name="uni04EC" unicode="&#x4ec;" horiz-adv-x="650" 
d="M69 134q14 -5 36 -12t48 -13t56 -10.5t60 -4.5q38 0 71 5t58.5 24t41 57t19.5 104h-343v97h341q-6 57 -22.5 90t-41 50.5t-56.5 22t-68 4.5q-61 0 -111 -13.5t-79 -22.5l-33 103q85 40 225 40q73 0 133 -12.5t102 -48.5t65 -101.5t23 -171.5t-23 -171.5t-65 -101.5
t-102 -48.5t-133 -12.5q-70 0 -131.5 12t-103.5 32zM181 741v123h110v-123h-110zM359 741v123h110v-123h-110z" />
    <glyph glyph-name="uni04ED" unicode="&#x4ed;" horiz-adv-x="650" 
d="M69 134q14 -5 36 -12t48 -13t56 -10.5t60 -4.5q38 0 71 5t58.5 24t41 57t19.5 104h-343v97h341q-6 57 -22.5 90t-41 50.5t-56.5 22t-68 4.5q-61 0 -111 -13.5t-79 -22.5l-33 103q85 40 225 40q73 0 133 -12.5t102 -48.5t65 -101.5t23 -171.5t-23 -171.5t-65 -101.5
t-102 -48.5t-133 -12.5q-70 0 -131.5 12t-103.5 32zM181 741v123h110v-123h-110zM359 741v123h110v-123h-110z" />
    <glyph glyph-name="uni04EE" unicode="&#x4ee;" horiz-adv-x="646" 
d="M169 97q19 0 34 1.5t27 6t21.5 12.5t17.5 22l-242 503h134l168 -342l9 -48l8 48l146 342h141l-200 -442l-33.5 -69.5t-29 -53.5t-30.5 -39t-39.5 -25.5t-57 -14t-80.5 -4.5l6 103v0zM185 745v38h275v-38h-275z" />
    <glyph glyph-name="uni04EF" unicode="&#x4ef;" horiz-adv-x="646" 
d="M169 97q19 0 34 1.5t27 6t21.5 12.5t17.5 22l-242 503h134l168 -342l9 -48l8 48l146 342h141l-200 -442l-33.5 -69.5t-29 -53.5t-30.5 -39t-39.5 -25.5t-57 -14t-80.5 -4.5l6 103v0zM185 745v38h275v-38h-275z" />
    <glyph glyph-name="uni04F0" unicode="&#x4f0;" horiz-adv-x="646" 
d="M169 97q19 0 34 1.5t27 6t21.5 12.5t17.5 22l-242 503h134l168 -342l9 -48l8 48l146 342h141l-200 -442l-33.5 -69.5t-29 -53.5t-30.5 -39t-39.5 -25.5t-57 -14t-80.5 -4.5l6 103v0zM179 741v123h110v-123h-110zM357 741v123h110v-123h-110z" />
    <glyph glyph-name="uni04F1" unicode="&#x4f1;" horiz-adv-x="646" 
d="M169 97q19 0 34 1.5t27 6t21.5 12.5t17.5 22l-242 503h134l168 -342l9 -48l8 48l146 342h141l-200 -442l-33.5 -69.5t-29 -53.5t-30.5 -39t-39.5 -25.5t-57 -14t-80.5 -4.5l6 103v0zM179 741v123h110v-123h-110zM357 741v123h110v-123h-110z" />
    <glyph glyph-name="uni04F2" unicode="&#x4f2;" horiz-adv-x="646" 
d="M169 97q19 0 34 1.5t27 6t21.5 12.5t17.5 22l-242 503h134l168 -342l9 -48l8 48l146 342h141l-200 -442l-33.5 -69.5t-29 -53.5t-30.5 -39t-39.5 -25.5t-57 -14t-80.5 -4.5l6 103v0zM167 707l53 107h85q-26 -29 -45.5 -53.5l-42.5 -53.5h-50zM341 707l53 107h85
q-26 -29 -45.5 -53.5l-42.5 -53.5h-50z" />
    <glyph glyph-name="uni04F3" unicode="&#x4f3;" horiz-adv-x="646" 
d="M169 97q19 0 34 1.5t27 6t21.5 12.5t17.5 22l-242 503h134l168 -342l9 -48l8 48l146 342h141l-200 -442l-33.5 -69.5t-29 -53.5t-30.5 -39t-39.5 -25.5t-57 -14t-80.5 -4.5l6 103v0zM167 707l53 107h85q-26 -29 -45.5 -53.5l-42.5 -53.5h-50zM341 707l53 107h85
q-26 -29 -45.5 -53.5l-42.5 -53.5h-50z" />
    <glyph glyph-name="uni04F4" unicode="&#x4f4;" horiz-adv-x="599" 
d="M386 0v252q-23 -17 -52 -23t-67 -6q-57 0 -104.5 9t-81.5 31.5t-53 61t-19 96.5v221h135v-224q0 -30 8.5 -47.5t25 -26t39 -11t51.5 -2.5q47 0 75 9t43 37v265h132v-642h-132zM155 741v123h110v-123h-110zM333 741v123h110v-123h-110z" />
    <glyph glyph-name="uni04F5" unicode="&#x4f5;" horiz-adv-x="599" 
d="M386 0v252q-23 -17 -52 -23t-67 -6q-57 0 -104.5 9t-81.5 31.5t-53 61t-19 96.5v221h135v-224q0 -30 8.5 -47.5t25 -26t39 -11t51.5 -2.5q47 0 75 9t43 37v265h132v-642h-132zM155 741v123h110v-123h-110zM333 741v123h110v-123h-110z" />
    <glyph glyph-name="uni04F8" unicode="&#x4f8;" horiz-adv-x="838" 
d="M453 209q0 34 -6 53t-19 28.5t-35 11.5t-53 2h-129v-197h129q31 0 53 2t35 11.5t19 29t6 53.5v6zM79 0v642h132v-231h127q71 0 119 -7.5t77 -29t41.5 -62t12.5 -106.5t-12.5 -106.5t-41.5 -62.5t-77 -29.5t-119 -7.5h-259zM666 0v642h132v-642h-132zM275 741v123h110
v-123h-110zM453 741v123h110v-123h-110z" />
    <glyph glyph-name="uni04F9" unicode="&#x4f9;" horiz-adv-x="838" 
d="M453 209q0 34 -6 53t-19 28.5t-35 11.5t-53 2h-129v-197h129q31 0 53 2t35 11.5t19 29t6 53.5v6zM79 0v642h132v-231h127q71 0 119 -7.5t77 -29t41.5 -62t12.5 -106.5t-12.5 -106.5t-41.5 -62.5t-77 -29.5t-119 -7.5h-259zM666 0v642h132v-642h-132zM275 741v123h110
v-123h-110zM453 741v123h110v-123h-110z" />
    <glyph glyph-name="uni1E00" unicode="&#x1e00;" horiz-adv-x="657" 
d="M401 642l227 -642h-144l-56 181h-201l-55 -181h-144l227 642h146zM256 274h144l-51 167l-18 101h-6l-18 -101zM328 -153q13 0 22.5 5t9.5 32q0 26 -10 30.5t-22 4.5q-13 0 -22.5 -4.5t-9.5 -30.5q0 -27 9.5 -32t22.5 -5zM328 -183q-14 0 -25.5 2.5t-20 9.5t-13.5 20
t-5 35q0 21 5 34t13.5 20t20 9.5t25.5 2.5q13 0 25 -2.5t20.5 -9.5t13.5 -20t5 -34q0 -22 -5 -35t-13.5 -20t-20.5 -9.5t-25 -2.5z" />
    <glyph glyph-name="uni1E01" unicode="&#x1e01;" horiz-adv-x="703" 
d="M648 -1q-64 7 -94.5 29t-41.5 71q-31 -53 -82.5 -81t-123.5 -28q-57 0 -104.5 9t-81.5 31.5t-53 61t-19 96.5q0 66 19 109t53 68.5t81.5 35.5t104.5 10h158q-3 48 -11.5 75.5t-25.5 41t-44.5 17t-68.5 3.5q-30 0 -59 -4t-54.5 -10t-46.5 -12.5t-35 -11.5l-33 103
q42 20 101 31t129 11q81 0 135.5 -12t87 -47t46.5 -100t14 -171v-16v-112q0 -49 14 -69t46 -25zM465 303h-159q-29 0 -52.5 -3.5t-41 -15.5t-27 -34.5t-9.5 -61.5q0 -30 10 -48t27 -27t41 -12t53 -3q51 0 82 13t48 39t22.5 63.5t5.5 87.5v2zM351 -153q13 0 22.5 5t9.5 32
q0 26 -10 30.5t-22 4.5q-13 0 -22.5 -4.5t-9.5 -30.5q0 -27 9.5 -32t22.5 -5zM351 -183q-14 0 -25.5 2.5t-20 9.5t-13.5 20t-5 35q0 21 5 34t13.5 20t20 9.5t25.5 2.5q13 0 25 -2.5t20.5 -9.5t13.5 -20t5 -34q0 -22 -5 -35t-13.5 -20t-20.5 -9.5t-25 -2.5z" />
    <glyph glyph-name="uni1E02" unicode="&#x1e02;" horiz-adv-x="675" 
d="M79 0v642h275q71 0 119 -6.5t76.5 -24t40.5 -49.5t12 -83q0 -38 -5 -63t-15.5 -42.5t-26 -29.5t-35.5 -22q20 -10 36.5 -21.5t28 -29t17.5 -43t6 -62.5q0 -51 -12.5 -83.5t-41.5 -50.5t-77 -25t-119 -7h-279zM360 107q31 0 53 1t36 6t20 17t6 35q0 39 -5.5 60t-18 30.5
t-32 11t-47.5 1.5h-181v-162h169zM372 376q27 0 46 2.5t30 12t16 29.5t5 56q0 21 -6 32.5t-19 17.5t-35 7.5t-53 1.5h-165v-159h181zM396 737h-118v123h118v-123z" />
    <glyph glyph-name="uni1E03" unicode="&#x1e03;" horiz-adv-x="675" 
d="M79 0v642h275q71 0 119 -6.5t76.5 -24t40.5 -49.5t12 -83q0 -38 -5 -63t-15.5 -42.5t-26 -29.5t-35.5 -22q20 -10 36.5 -21.5t28 -29t17.5 -43t6 -62.5q0 -51 -12.5 -83.5t-41.5 -50.5t-77 -25t-119 -7h-279zM360 107q31 0 53 1t36 6t20 17t6 35q0 39 -5.5 60t-18 30.5
t-32 11t-47.5 1.5h-181v-162h169zM372 376q27 0 46 2.5t30 12t16 29.5t5 56q0 21 -6 32.5t-19 17.5t-35 7.5t-53 1.5h-165v-159h181zM396 737h-118v123h118v-123z" />
    <glyph glyph-name="uni1E04" unicode="&#x1e04;" horiz-adv-x="675" 
d="M79 0v642h275q71 0 119 -6.5t76.5 -24t40.5 -49.5t12 -83q0 -38 -5 -63t-15.5 -42.5t-26 -29.5t-35.5 -22q20 -10 36.5 -21.5t28 -29t17.5 -43t6 -62.5q0 -51 -12.5 -83.5t-41.5 -50.5t-77 -25t-119 -7h-279zM360 107q31 0 53 1t36 6t20 17t6 35q0 39 -5.5 60t-18 30.5
t-32 11t-47.5 1.5h-181v-162h169zM372 376q27 0 46 2.5t30 12t16 29.5t5 56q0 21 -6 32.5t-19 17.5t-35 7.5t-53 1.5h-165v-159h181zM396 -203h-118v123h118v-123z" />
    <glyph glyph-name="uni1E05" unicode="&#x1e05;" horiz-adv-x="675" 
d="M79 0v642h275q71 0 119 -6.5t76.5 -24t40.5 -49.5t12 -83q0 -38 -5 -63t-15.5 -42.5t-26 -29.5t-35.5 -22q20 -10 36.5 -21.5t28 -29t17.5 -43t6 -62.5q0 -51 -12.5 -83.5t-41.5 -50.5t-77 -25t-119 -7h-279zM360 107q31 0 53 1t36 6t20 17t6 35q0 39 -5.5 60t-18 30.5
t-32 11t-47.5 1.5h-181v-162h169zM372 376q27 0 46 2.5t30 12t16 29.5t5 56q0 21 -6 32.5t-19 17.5t-35 7.5t-53 1.5h-165v-159h181zM396 -203h-118v123h118v-123z" />
    <glyph glyph-name="uni1E06" unicode="&#x1e06;" horiz-adv-x="675" 
d="M79 0v642h275q71 0 119 -6.5t76.5 -24t40.5 -49.5t12 -83q0 -38 -5 -63t-15.5 -42.5t-26 -29.5t-35.5 -22q20 -10 36.5 -21.5t28 -29t17.5 -43t6 -62.5q0 -51 -12.5 -83.5t-41.5 -50.5t-77 -25t-119 -7h-279zM360 107q31 0 53 1t36 6t20 17t6 35q0 39 -5.5 60t-18 30.5
t-32 11t-47.5 1.5h-181v-162h169zM372 376q27 0 46 2.5t30 12t16 29.5t5 56q0 21 -6 32.5t-19 17.5t-35 7.5t-53 1.5h-165v-159h181zM200 -113v38h275v-38h-275z" />
    <glyph glyph-name="uni1E07" unicode="&#x1e07;" horiz-adv-x="675" 
d="M79 0v642h275q71 0 119 -6.5t76.5 -24t40.5 -49.5t12 -83q0 -38 -5 -63t-15.5 -42.5t-26 -29.5t-35.5 -22q20 -10 36.5 -21.5t28 -29t17.5 -43t6 -62.5q0 -51 -12.5 -83.5t-41.5 -50.5t-77 -25t-119 -7h-279zM360 107q31 0 53 1t36 6t20 17t6 35q0 39 -5.5 60t-18 30.5
t-32 11t-47.5 1.5h-181v-162h169zM372 376q27 0 46 2.5t30 12t16 29.5t5 56q0 21 -6 32.5t-19 17.5t-35 7.5t-53 1.5h-165v-159h181zM200 -113v38h275v-38h-275z" />
    <glyph glyph-name="uni1E08" unicode="&#x1e08;" horiz-adv-x="650" 
d="M614 31q-42 -20 -103.5 -32t-131.5 -12q-74 0 -133.5 12.5t-101.5 48.5t-65 101.5t-23 171.5t23 171.5t65 101.5t101.5 48.5t133.5 12.5q140 0 225 -40l-33 -103q-29 9 -79 22.5t-111 13.5q-41 0 -76 -6t-60.5 -29t-40 -68.5t-14.5 -123.5q0 -79 14.5 -124.5t40 -68
t60.5 -28.5t76 -6q30 0 60 4.5t56 10.5t48 13t36 12zM237 -156h4q8 -1 17 -1h14q46 0 69 14q17 15 17 32q0 8 -2 14.5t-9 12t-21 9t-38 4.5l18 61h41l-15 -48q44 -5 65 -21.5t21 -37.5q0 -29 -32 -52.5t-95 -23.5q-34 0 -59 3zM256 707l53 107h85q-26 -29 -45.5 -53.5
l-42.5 -53.5h-50z" />
    <glyph glyph-name="uni1E09" unicode="&#x1e09;" horiz-adv-x="650" 
d="M614 31q-42 -20 -103.5 -32t-131.5 -12q-74 0 -133.5 12.5t-101.5 48.5t-65 101.5t-23 171.5t23 171.5t65 101.5t101.5 48.5t133.5 12.5q140 0 225 -40l-33 -103q-29 9 -79 22.5t-111 13.5q-41 0 -76 -6t-60.5 -29t-40 -68.5t-14.5 -123.5q0 -79 14.5 -124.5t40 -68
t60.5 -28.5t76 -6q30 0 60 4.5t56 10.5t48 13t36 12zM237 -156h4q8 -1 17 -1h14q46 0 69 14q17 15 17 32q0 8 -2 14.5t-9 12t-21 9t-38 4.5l18 61h41l-15 -48q44 -5 65 -21.5t21 -37.5q0 -29 -32 -52.5t-95 -23.5q-34 0 -59 3zM256 707l53 107h85q-26 -29 -45.5 -53.5
l-42.5 -53.5h-50z" />
    <glyph glyph-name="uni1E0A" unicode="&#x1e0a;" horiz-adv-x="689" 
d="M79 0v642h230q73 0 133 -9.5t102 -42.5t65 -96t23 -169q0 -107 -20.5 -171.5t-60.5 -98.5t-98 -44.5t-134 -10.5h-240zM309 108q53 0 89.5 6.5t58.5 29t31.5 66t9.5 116.5q0 76 -14.5 118.5t-40 62.5t-60.5 24t-76 4h-96v-427h98zM403 737h-118v123h118v-123z" />
    <glyph glyph-name="uni1E0B" unicode="&#x1e0b;" horiz-adv-x="689" 
d="M79 0v642h230q73 0 133 -9.5t102 -42.5t65 -96t23 -169q0 -107 -20.5 -171.5t-60.5 -98.5t-98 -44.5t-134 -10.5h-240zM309 108q53 0 89.5 6.5t58.5 29t31.5 66t9.5 116.5q0 76 -14.5 118.5t-40 62.5t-60.5 24t-76 4h-96v-427h98zM403 737h-118v123h118v-123z" />
    <glyph glyph-name="uni1E0C" unicode="&#x1e0c;" horiz-adv-x="689" 
d="M79 0v642h230q73 0 133 -9.5t102 -42.5t65 -96t23 -169q0 -107 -20.5 -171.5t-60.5 -98.5t-98 -44.5t-134 -10.5h-240zM309 108q53 0 89.5 6.5t58.5 29t31.5 66t9.5 116.5q0 76 -14.5 118.5t-40 62.5t-60.5 24t-76 4h-96v-427h98zM403 -203h-118v123h118v-123z" />
    <glyph glyph-name="uni1E0D" unicode="&#x1e0d;" horiz-adv-x="689" 
d="M79 0v642h230q73 0 133 -9.5t102 -42.5t65 -96t23 -169q0 -107 -20.5 -171.5t-60.5 -98.5t-98 -44.5t-134 -10.5h-240zM309 108q53 0 89.5 6.5t58.5 29t31.5 66t9.5 116.5q0 76 -14.5 118.5t-40 62.5t-60.5 24t-76 4h-96v-427h98zM403 -203h-118v123h118v-123z" />
    <glyph glyph-name="uni1E0E" unicode="&#x1e0e;" horiz-adv-x="689" 
d="M79 0v642h230q73 0 133 -9.5t102 -42.5t65 -96t23 -169q0 -107 -20.5 -171.5t-60.5 -98.5t-98 -44.5t-134 -10.5h-240zM309 108q53 0 89.5 6.5t58.5 29t31.5 66t9.5 116.5q0 76 -14.5 118.5t-40 62.5t-60.5 24t-76 4h-96v-427h98zM207 -113v38h275v-38h-275z" />
    <glyph glyph-name="uni1E0F" unicode="&#x1e0f;" horiz-adv-x="689" 
d="M79 0v642h230q73 0 133 -9.5t102 -42.5t65 -96t23 -169q0 -107 -20.5 -171.5t-60.5 -98.5t-98 -44.5t-134 -10.5h-240zM309 108q53 0 89.5 6.5t58.5 29t31.5 66t9.5 116.5q0 76 -14.5 118.5t-40 62.5t-60.5 24t-76 4h-96v-427h98zM207 -113v38h275v-38h-275z" />
    <glyph glyph-name="uni1E10" unicode="&#x1e10;" horiz-adv-x="689" 
d="M213 -115h4q8 -1 17 -1h14q46 0 69 14q17 15 17 32q0 8 -2 14.5t-9 12t-21 9t-38 4.5l9 30h-194v642h230q73 0 133 -9.5t102 -42.5t65 -96t23 -169q0 -107 -20.5 -171.5t-60.5 -98.5t-98 -44.5t-134 -10.5h-6l-5 -17q44 -5 65 -21.5t21 -37.5q0 -29 -32 -52.5t-95 -23.5
q-34 0 -59 3zM309 108q53 0 89.5 6.5t58.5 29t31.5 66t9.5 116.5q0 76 -14.5 118.5t-40 62.5t-60.5 24t-76 4h-96v-427h98z" />
    <glyph glyph-name="uni1E11" unicode="&#x1e11;" horiz-adv-x="689" 
d="M213 -115h4q8 -1 17 -1h14q46 0 69 14q17 15 17 32q0 8 -2 14.5t-9 12t-21 9t-38 4.5l9 30h-194v642h230q73 0 133 -9.5t102 -42.5t65 -96t23 -169q0 -107 -20.5 -171.5t-60.5 -98.5t-98 -44.5t-134 -10.5h-6l-5 -17q44 -5 65 -21.5t21 -37.5q0 -29 -32 -52.5t-95 -23.5
q-34 0 -59 3zM309 108q53 0 89.5 6.5t58.5 29t31.5 66t9.5 116.5q0 76 -14.5 118.5t-40 62.5t-60.5 24t-76 4h-96v-427h98z" />
    <glyph glyph-name="uni1E12" unicode="&#x1e12;" horiz-adv-x="689" 
d="M79 0v642h230q73 0 133 -9.5t102 -42.5t65 -96t23 -169q0 -107 -20.5 -171.5t-60.5 -98.5t-98 -44.5t-134 -10.5h-240zM309 108q53 0 89.5 6.5t58.5 29t31.5 66t9.5 116.5q0 76 -14.5 118.5t-40 62.5t-60.5 24t-76 4h-96v-427h98zM405 -153l-59 84l-59 -84h-72l44 54
l44 53h80l91 -107h-69z" />
    <glyph glyph-name="uni1E13" unicode="&#x1e13;" horiz-adv-x="689" 
d="M79 0v642h230q73 0 133 -9.5t102 -42.5t65 -96t23 -169q0 -107 -20.5 -171.5t-60.5 -98.5t-98 -44.5t-134 -10.5h-240zM309 108q53 0 89.5 6.5t58.5 29t31.5 66t9.5 116.5q0 76 -14.5 118.5t-40 62.5t-60.5 24t-76 4h-96v-427h98zM405 -153l-59 84l-59 -84h-72l44 54
l44 53h80l91 -107h-69z" />
    <glyph glyph-name="uni1E14" unicode="&#x1e14;" horiz-adv-x="566" 
d="M79 0v642h480l-10 -107h-338v-149h263v-107h-263v-171h348l-10 -108h-470zM145 745v38h275v-38h-275zM307 857l-94 107h86l53 -107h-45z" />
    <glyph glyph-name="uni1E15" unicode="&#x1e15;" horiz-adv-x="704" 
d="M193 278q3 -59 14.5 -95t34.5 -55.5t58 -26.5t86 -7q30 0 61.5 5.5t60 13t52 15.5l37.5 13l33 -103q-21 -10 -51 -19t-64.5 -16t-71.5 -11.5t-72 -4.5q-75 0 -133 12t-98 47.5t-61 99t-21 167.5q0 108 22.5 175t63 104t96 50t122.5 13q72 0 127.5 -14t93.5 -50.5
t58 -99.5t20 -162v-51h-468zM525 386q-3 52 -14 84t-31 49.5t-49 23.5t-69 6q-35 0 -64.5 -3.5t-52 -19.5t-36 -49t-16.5 -91h332zM214 745v38h275v-38h-275zM376 857l-94 107h86l53 -107h-45z" />
    </font>
</defs>
</svg>
